<svg width="48" height="48" viewBox="0 0 48 48" fill="none" xmlns="http://www.w3.org/2000/svg">
<mask id="mask0_248_10573" style="mask-type:alpha" maskUnits="userSpaceOnUse" x="12" y="12" width="24" height="24">
<rect x="12" y="12" width="24" height="24" fill="#D9D9D9"/>
</mask>
<g mask="url(#mask0_248_10573)">
<path d="M16.125 31.775C15.6083 31.775 15.1667 31.5917 14.8 31.225C14.4333 30.8583 14.25 30.4167 14.25 29.9V18.1C14.25 17.5833 14.4333 17.1417 14.8 16.775C15.1667 16.4083 15.6083 16.225 16.125 16.225H31.875C32.3917 16.225 32.8333 16.4083 33.2 16.775C33.5667 17.1417 33.75 17.5833 33.75 18.1V29.9C33.75 30.4167 33.5667 30.8583 33.2 31.225C32.8333 31.5917 32.3917 31.775 31.875 31.775H16.125ZM16.125 20.125V23.925H31.875V20.125H16.125Z" fill="white"/>
</g>
</svg>
