<svg width="48" height="48" viewBox="0 0 48 48" fill="none" xmlns="http://www.w3.org/2000/svg">
<path d="M22.1899 24.8959C22.5786 25.4155 23.0745 25.8455 23.644 26.1567C24.2136 26.4677 24.8432 26.6528 25.4905 26.6992C26.1378 26.7455 26.7874 26.6521 27.3955 26.4253C28.0035 26.1985 28.5556 25.8436 29.0143 25.3846L31.7297 22.6693C32.554 21.8158 33.0102 20.6727 32.9998 19.4861C32.9896 18.2995 32.5136 17.1645 31.6746 16.3254C30.8355 15.4864 29.7005 15.0104 28.5138 15.0002C27.3273 14.9898 26.1842 15.446 25.3307 16.2703L23.7739 17.818" stroke="white" stroke-width="1.5" stroke-linecap="round" stroke-linejoin="round"/>
<path d="M25.8101 23.0853C25.4213 22.5657 24.9254 22.1357 24.3559 21.8245C23.7864 21.5135 23.1567 21.3284 22.5095 21.2821C21.8621 21.2357 21.2125 21.3291 20.6045 21.5559C19.9965 21.7827 19.4443 22.1376 18.9856 22.5966L16.2703 25.3119C15.446 26.1654 14.9898 27.3085 15.0002 28.495C15.0104 29.6817 15.4864 30.8167 16.3254 31.6558C17.1645 32.4948 18.2995 32.9708 19.4861 32.981C20.6727 32.9914 21.8158 32.5352 22.6693 31.7109L24.2171 30.1632" stroke="white" stroke-width="1.5" stroke-linecap="round" stroke-linejoin="round"/>
</svg>
