<svg width="48" height="48" viewBox="0 0 48 48" fill="none" xmlns="http://www.w3.org/2000/svg">
<mask id="mask0_248_10555" style="mask-type:alpha" maskUnits="userSpaceOnUse" x="12" y="12" width="24" height="24">
<rect x="12" y="12" width="24" height="24" fill="#D9D9D9"/>
</mask>
<g mask="url(#mask0_248_10555)">
<path d="M16.2001 23.975C15.9334 23.975 15.7044 23.8834 15.5131 23.7C15.3211 23.5167 15.2251 23.2834 15.2251 23V16.25C15.2251 15.9834 15.3211 15.7584 15.5131 15.575C15.7044 15.3917 15.9334 15.3 16.2001 15.3H31.8001C32.0668 15.3 32.2961 15.3917 32.4881 15.575C32.6794 15.7584 32.7751 15.9834 32.7751 16.25V23C32.7751 23.2834 32.6794 23.5167 32.4881 23.7C32.2961 23.8834 32.0668 23.975 31.8001 23.975H16.2001ZM19.5751 21.075C19.9751 21.075 20.3128 20.9334 20.5881 20.65C20.8628 20.3667 21.0001 20.025 21.0001 19.625C21.0001 19.225 20.8628 18.8874 20.5881 18.612C20.3128 18.3374 19.9751 18.2 19.5751 18.2C19.1751 18.2 18.8334 18.3374 18.5501 18.612C18.2668 18.8874 18.1251 19.225 18.1251 19.625C18.1251 20.025 18.2668 20.3667 18.5501 20.65C18.8334 20.9334 19.1751 21.075 19.5751 21.075ZM16.2001 33.7001C15.9334 33.7001 15.7044 33.6084 15.5131 33.425C15.3211 33.2417 15.2251 33.0084 15.2251 32.725V26C15.2251 25.7334 15.3211 25.504 15.5131 25.312C15.7044 25.1207 15.9334 25.025 16.2001 25.025H31.8001C32.0668 25.025 32.2961 25.1207 32.4881 25.312C32.6794 25.504 32.7751 25.7334 32.7751 26V32.725C32.7751 33.0084 32.6794 33.2417 32.4881 33.425C32.2961 33.6084 32.0668 33.7001 31.8001 33.7001H16.2001ZM19.5751 30.8C19.9751 30.8 20.3128 30.6627 20.5881 30.388C20.8628 30.1127 21.0001 29.775 21.0001 29.375C21.0001 28.975 20.8628 28.6334 20.5881 28.35C20.3128 28.0667 19.9751 27.925 19.5751 27.925C19.1751 27.925 18.8334 28.0667 18.5501 28.35C18.2668 28.6334 18.1251 28.975 18.1251 29.375C18.1251 29.775 18.2668 30.1127 18.5501 30.388C18.8334 30.6627 19.1751 30.8 19.5751 30.8Z" fill="white"/>
</g>
</svg>
