<svg width="48" height="48" viewBox="0 0 48 48" fill="none" xmlns="http://www.w3.org/2000/svg">
<mask id="mask0_248_10563" style="mask-type:alpha" maskUnits="userSpaceOnUse" x="12" y="12" width="24" height="24">
<rect x="12" y="12" width="24" height="24" fill="#D9D9D9"/>
</mask>
<g mask="url(#mask0_248_10563)">
<path d="M21.1251 32.775C20.8751 32.775 20.6378 32.729 20.4131 32.637C20.1878 32.5456 19.9834 32.4083 19.8001 32.225L15.7751 28.2C15.5918 28.0166 15.4541 27.8123 15.3621 27.587C15.2708 27.3623 15.2251 27.125 15.2251 26.875V21.125C15.2251 20.875 15.2708 20.6373 15.3621 20.412C15.4541 20.1873 15.5918 19.9833 15.7751 19.8L19.8001 15.775C19.9834 15.5916 20.1878 15.454 20.4131 15.362C20.6378 15.2706 20.8751 15.225 21.1251 15.225H26.8751C27.1251 15.225 27.3628 15.2706 27.5881 15.362C27.8128 15.454 28.0168 15.5916 28.2001 15.775L32.2251 19.8C32.4084 19.9833 32.5461 20.1873 32.6381 20.412C32.7294 20.6373 32.7751 20.875 32.7751 21.125V26.875C32.7751 27.125 32.7294 27.3623 32.6381 27.587C32.5461 27.8123 32.4084 28.0166 32.2251 28.2L28.2001 32.225C28.0168 32.4083 27.8128 32.5456 27.5881 32.637C27.3628 32.729 27.1251 32.775 26.8751 32.775H21.1251ZM24.0001 28.85C24.2668 28.85 24.4918 28.7583 24.6751 28.575C24.8584 28.3916 24.9501 28.1666 24.9501 27.9C24.9501 27.6333 24.8584 27.4083 24.6751 27.225C24.4918 27.0416 24.2668 26.95 24.0001 26.95C23.7334 26.95 23.5084 27.0416 23.3251 27.225C23.1418 27.4083 23.0501 27.6333 23.0501 27.9C23.0501 28.1666 23.1418 28.3916 23.3251 28.575C23.5084 28.7583 23.7334 28.85 24.0001 28.85ZM24.0001 25C24.2668 25 24.4918 24.9083 24.6751 24.725C24.8584 24.5416 24.9501 24.3166 24.9501 24.05V20.025C24.9501 19.775 24.8584 19.5583 24.6751 19.375C24.4918 19.1916 24.2668 19.1 24.0001 19.1C23.7501 19.1 23.5334 19.1916 23.3501 19.375C23.1668 19.5583 23.0751 19.775 23.0751 20.025V24.05C23.0751 24.3166 23.1668 24.5416 23.3501 24.725C23.5334 24.9083 23.7501 25 24.0001 25Z" fill="white"/>
</g>
</svg>
