<svg width="48" height="48" viewBox="0 0 48 48" fill="none" xmlns="http://www.w3.org/2000/svg">
<mask id="mask0_248_10556" style="mask-type:alpha" maskUnits="userSpaceOnUse" x="12" y="12" width="24" height="24">
<rect x="12" y="12" width="24" height="24" fill="#D9D9D9"/>
</mask>
<g mask="url(#mask0_248_10556)">
<path d="M18.1001 32.7999C17.0334 32.7999 16.1208 32.4209 15.3621 31.663C14.6041 30.9043 14.2251 29.9916 14.2251 28.925C14.2251 27.8583 14.6041 26.95 15.3621 26.2C16.1208 25.45 17.0334 25.075 18.1001 25.075C19.1668 25.075 20.0751 25.45 20.8251 26.2C21.5751 26.95 21.9501 27.8583 21.9501 28.925C21.9501 29.9916 21.5751 30.9043 20.8251 31.663C20.0751 32.4209 19.1668 32.7999 18.1001 32.7999ZM24.0001 22.95C22.9334 22.95 22.0208 22.5706 21.2621 21.812C20.5041 21.054 20.1251 20.1416 20.1251 19.075C20.1251 17.9916 20.5041 17.075 21.2621 16.325C22.0208 15.575 22.9334 15.2 24.0001 15.2C25.0834 15.2 26.0001 15.575 26.7501 16.325C27.5001 17.075 27.8751 17.9916 27.8751 19.075C27.8751 20.1416 27.5001 21.054 26.7501 21.812C26.0001 22.5706 25.0834 22.95 24.0001 22.95ZM29.9251 32.7999C28.8584 32.7999 27.9461 32.4209 27.1881 31.663C26.4294 30.9043 26.0501 29.9916 26.0501 28.925C26.0501 27.8583 26.4294 26.95 27.1881 26.2C27.9461 25.45 28.8584 25.075 29.9251 25.075C30.9918 25.075 31.9001 25.45 32.6501 26.2C33.4001 26.95 33.7751 27.8583 33.7751 28.925C33.7751 29.9916 33.4001 30.9043 32.6501 31.663C31.9001 32.4209 30.9918 32.7999 29.9251 32.7999Z" fill="white"/>
</g>
</svg>
