<svg width="48" height="48" viewBox="0 0 48 48" fill="none" xmlns="http://www.w3.org/2000/svg">
<path d="M33.4557 26.1814C33.4369 26.1814 33.4369 26.1814 33.4557 26.1814H33.4369C33.4181 26.1814 33.3993 26.1814 33.3993 26.1621C33.3619 26.1621 33.3243 26.1428 33.2868 26.1428C33.1553 26.1235 33.0428 26.1042 32.9301 26.1042C32.8738 26.1042 32.8174 26.1042 32.7423 26.0849H32.7236C32.3294 26.0462 32.0103 26.0077 31.7099 25.9112C31.5786 25.8531 31.5411 25.7761 31.5034 25.6988C31.5034 25.6795 31.4847 25.6795 31.4847 25.6602L31.2407 25.5831C31.356 24.6749 31.3114 23.7529 31.1093 22.8609C30.9043 21.9616 30.5487 21.1058 30.0581 20.3319L30.2459 20.1583V20.1197C30.2459 20.0231 30.2647 19.9266 30.3397 19.83C30.5649 19.6177 30.8466 19.444 31.1844 19.2316C31.2407 19.1931 31.2969 19.1737 31.3533 19.1351C31.4659 19.0772 31.5598 19.0193 31.6724 18.9421C31.6912 18.9228 31.7287 18.9034 31.7663 18.8649C31.7851 18.8455 31.8038 18.8455 31.8038 18.8263C32.0666 18.5945 32.123 18.2085 31.9352 17.9574C31.8413 17.8223 31.6724 17.7451 31.5034 17.7451C31.3534 17.7451 31.2219 17.803 31.0906 17.8996L31.053 17.9381C31.0156 17.9574 30.9967 17.9961 30.9592 18.0154C30.8653 18.1119 30.7902 18.1891 30.7151 18.2856C30.6777 18.3242 30.6401 18.3822 30.5838 18.4207C30.3209 18.7103 30.0769 18.9421 29.8329 19.1158C29.7767 19.1543 29.7203 19.1737 29.664 19.1737C29.6266 19.1737 29.5889 19.1737 29.5513 19.1543H29.5139L29.2886 19.3089C29.0446 19.0386 28.7818 18.8069 28.519 18.5753C27.3876 17.6656 26.0258 17.1095 24.5959 16.9729L24.5771 16.7219L24.5397 16.6833C24.4832 16.6253 24.4082 16.5675 24.3893 16.4323C24.3707 16.1235 24.4082 15.7759 24.4458 15.3898V15.3706C24.4458 15.3127 24.4646 15.2355 24.4832 15.1775C24.502 15.0618 24.5208 14.9459 24.5397 14.8107V14.6371C24.5397 14.2895 24.2768 14 23.9578 14C23.8074 14 23.6573 14.0772 23.5448 14.193C23.4322 14.3088 23.3759 14.4632 23.3759 14.6371V14.7914C23.3759 14.9266 23.3946 15.0424 23.4321 15.1582C23.4509 15.2162 23.4509 15.274 23.4696 15.3513V15.3706C23.5071 15.7566 23.5634 16.1042 23.526 16.4131C23.5072 16.5483 23.4321 16.6061 23.3759 16.6641L23.3383 16.7026L23.3194 16.9536C22.9816 16.9921 22.6437 17.0308 22.3058 17.1081C20.8606 17.4362 19.5841 18.1892 18.5893 19.2701L18.4016 19.1351H18.3641C18.3266 19.1351 18.289 19.1543 18.2514 19.1543C18.1951 19.1543 18.1389 19.1351 18.0824 19.0964C17.8384 18.9228 17.5944 18.6717 17.3317 18.3822C17.2942 18.3435 17.2567 18.2856 17.2003 18.2471C17.1252 18.1506 17.0501 18.0733 16.9562 17.9768C16.9374 17.9574 16.8999 17.9382 16.8624 17.8996C16.8437 17.8803 16.8249 17.8803 16.8249 17.8609C16.7087 17.7621 16.5628 17.7076 16.4119 17.7065C16.2429 17.7065 16.074 17.7838 15.9801 17.9188C15.7924 18.1698 15.8488 18.5559 16.1116 18.7875C16.1303 18.7875 16.1303 18.8069 16.149 18.8069C16.1866 18.8263 16.2054 18.8648 16.2429 18.8841C16.3556 18.9612 16.4494 19.0191 16.562 19.0772C16.6184 19.0964 16.6747 19.1351 16.731 19.1737C17.0688 19.386 17.3504 19.5598 17.5757 19.7722C17.6696 19.8687 17.6696 19.9651 17.6696 20.0618V20.1003L17.8572 20.2741C17.8197 20.3319 17.7822 20.3707 17.7633 20.4285C16.8248 21.9536 16.4682 23.749 16.7122 25.5251L16.4682 25.6023C16.4682 25.6216 16.4494 25.6216 16.4494 25.6408C16.4119 25.7181 16.3556 25.7953 16.2429 25.8531C15.9614 25.9497 15.6236 25.9884 15.2293 26.027H15.2106C15.1542 26.027 15.0791 26.027 15.0229 26.0462C14.9102 26.0462 14.7977 26.0656 14.6662 26.0849C14.6288 26.0849 14.5912 26.1042 14.5537 26.1042C14.5349 26.1042 14.5161 26.1042 14.4972 26.1235C14.1593 26.2007 13.9529 26.529 14.0092 26.8378C14.0656 27.1081 14.3097 27.2818 14.6099 27.2818C14.6662 27.2818 14.7038 27.2818 14.7601 27.2625C14.7789 27.2625 14.7977 27.2625 14.7977 27.2432C14.8351 27.2432 14.8727 27.2239 14.9101 27.2239C15.0417 27.1853 15.1356 27.1467 15.2481 27.0887C15.3044 27.0695 15.3607 27.0308 15.417 27.0117H15.4358C15.7924 26.8764 16.1116 26.7606 16.4119 26.7219H16.4494C16.562 26.7219 16.6372 26.7798 16.6934 26.8186C16.7122 26.8186 16.7122 26.8379 16.7309 26.8379L16.9938 26.7992C17.4443 28.2277 18.3077 29.5019 19.4528 30.4285C19.7156 30.6409 19.9782 30.8147 20.2599 30.9884L20.1472 31.2393C20.1472 31.2587 20.166 31.2587 20.166 31.2778C20.2036 31.3551 20.241 31.4517 20.2036 31.5867C20.091 31.8765 19.922 32.166 19.7156 32.4942V32.5134C19.678 32.5714 19.6404 32.61 19.603 32.6679C19.5279 32.7644 19.4716 32.861 19.3963 32.9768C19.3777 32.996 19.3589 33.0347 19.3401 33.0733C19.3401 33.0926 19.3213 33.112 19.3213 33.112C19.1712 33.4401 19.2839 33.8069 19.5653 33.942C19.6403 33.9806 19.7156 34 19.7907 34C20.0159 34 20.2411 33.8455 20.3538 33.6331C20.3538 33.6138 20.3726 33.5946 20.3726 33.5946C20.3912 33.5559 20.41 33.5174 20.4288 33.498C20.4851 33.3629 20.5039 33.2663 20.5414 33.1505L20.5978 32.9768C20.7291 32.5907 20.823 32.2818 20.9919 32.0115C21.0669 31.8957 21.1609 31.8765 21.2359 31.8377C21.2547 31.8377 21.2547 31.8377 21.2734 31.8185L21.4049 31.5675C22.2308 31.8957 23.1319 32.0695 24.0328 32.0695C24.5771 32.0695 25.1402 32.0115 25.6659 31.8765C25.9967 31.8003 26.3227 31.7036 26.6419 31.5867L26.7544 31.7992C26.7733 31.7992 26.7733 31.7992 26.7921 31.8185C26.8859 31.8377 26.961 31.8765 27.0361 31.9923C27.1862 32.2625 27.2988 32.5907 27.4302 32.9575V32.9768L27.4866 33.1505C27.5241 33.2663 27.5429 33.3821 27.5991 33.498C27.618 33.5366 27.6367 33.5559 27.6554 33.5946C27.6554 33.6138 27.6743 33.6331 27.6743 33.6331C27.7869 33.8647 28.0121 34 28.2373 34C28.3124 34 28.3876 33.9806 28.4627 33.942C28.594 33.8649 28.7067 33.7489 28.7442 33.5946C28.7818 33.4401 28.7818 33.2663 28.7068 33.112C28.7068 33.0926 28.6879 33.0926 28.6879 33.0733C28.6691 33.0348 28.6503 32.9961 28.6316 32.9768C28.5752 32.861 28.5002 32.7644 28.4251 32.6679C28.3876 32.61 28.3501 32.5714 28.3126 32.5135V32.4942C28.106 32.166 27.9182 31.8765 27.8244 31.5867C27.787 31.4517 27.8244 31.3745 27.8432 31.2779C27.8432 31.2587 27.862 31.2587 27.862 31.2394L27.7681 31.0078C28.763 30.4092 29.6077 29.5597 30.2459 28.5173C30.5838 27.9768 30.8466 27.3783 31.0342 26.7798L31.2594 26.8184C31.2783 26.8184 31.2783 26.7991 31.2969 26.7991C31.3721 26.7606 31.4284 26.7027 31.5411 26.7027H31.5786C31.8789 26.7413 32.198 26.857 32.5547 26.9922H32.5734C32.6297 27.0116 32.686 27.0501 32.7423 27.0694C32.855 27.1274 32.9489 27.1659 33.0802 27.2047C33.1178 27.2047 33.1552 27.2239 33.1929 27.2239C33.2116 27.2239 33.2303 27.2239 33.2491 27.2432C33.3054 27.2625 33.343 27.2625 33.3993 27.2625C33.6809 27.2625 33.9249 27.0695 34 26.8186C34 26.5869 33.7934 26.2779 33.4557 26.1814ZM24.7648 25.2355L23.9389 25.6409L23.113 25.2355L22.9066 24.3281L23.4696 23.5946H24.3893L24.9526 24.3281L24.7648 25.2355ZM29.664 23.2278C29.8097 23.8661 29.854 24.5245 29.7953 25.1774L26.9234 24.3281C26.6607 24.2511 26.5106 23.9807 26.5668 23.7104C26.5856 23.6332 26.6232 23.5559 26.6794 23.4981L28.9508 21.3938C29.2698 21.9343 29.5138 22.5522 29.664 23.2278ZM28.0497 20.2356L25.5908 22.0309C25.3842 22.166 25.1027 22.1273 24.9338 21.915C24.8776 21.857 24.8588 21.7799 24.8399 21.7027L24.671 18.5559C25.9493 18.7073 27.1402 19.2993 28.0497 20.2356ZM22.6062 18.6522C22.8127 18.6137 23.0003 18.5752 23.2069 18.5365L23.038 21.6253C23.0192 21.8956 22.8127 22.1272 22.5311 22.1272C22.4561 22.1272 22.3622 22.1079 22.3058 22.0694L19.8093 20.2356C20.579 19.444 21.5363 18.9032 22.6062 18.6522ZM18.9083 21.3936L21.142 23.44C21.3486 23.6138 21.3673 23.9419 21.1984 24.1542C21.142 24.2314 21.067 24.2894 20.9731 24.3088L18.0637 25.1774C17.9511 23.8647 18.2326 22.5326 18.9083 21.3936ZM18.4014 26.6253L21.3862 26.104C21.6302 26.0848 21.8554 26.2586 21.9117 26.5095C21.9304 26.6252 21.9304 26.7218 21.8929 26.8184L20.7479 29.6562C19.6968 28.9612 18.852 27.8994 18.4014 26.6253ZM25.2529 30.4671C24.8211 30.5636 24.3893 30.6214 23.9389 30.6214C23.282 30.6214 22.6437 30.5057 22.0432 30.3126L23.526 27.552C23.6761 27.3782 23.9201 27.3011 24.1267 27.4169C24.2142 27.472 24.2908 27.5442 24.3519 27.6292L25.7972 30.3126C25.6283 30.3705 25.4407 30.4092 25.2529 30.4671ZM28.9131 27.7837C28.4439 28.5559 27.8243 29.1736 27.1112 29.6562L25.9287 26.741C25.8723 26.5095 25.9662 26.2586 26.1914 26.1426C26.2664 26.104 26.3603 26.0848 26.4542 26.0848L29.4576 26.606C29.3449 27.0306 29.1571 27.4169 28.9131 27.7837Z" fill="white"/>
</svg>
