<svg width="48" height="48" viewBox="0 0 48 48" fill="none" xmlns="http://www.w3.org/2000/svg">
<path d="M23.9936 26.4549C25.3492 26.4549 26.4481 25.356 26.4481 24.0004C26.4481 22.6448 25.3492 21.5459 23.9936 21.5459C22.638 21.5459 21.5391 22.6448 21.5391 24.0004C21.5391 25.356 22.638 26.4549 23.9936 26.4549Z" stroke="white" stroke-width="1.5" stroke-linecap="round" stroke-linejoin="round"/>
<path d="M30.0545 26.4545C29.9456 26.7014 29.9131 26.9751 29.9613 27.2404C30.0094 27.5059 30.136 27.7509 30.3245 27.9437L30.3737 27.9927C30.5258 28.1447 30.6465 28.3252 30.7288 28.5239C30.8112 28.7225 30.8536 28.9354 30.8536 29.1505C30.8536 29.3655 30.8112 29.5784 30.7288 29.7771C30.6465 29.9758 30.5258 30.1562 30.3737 30.3082C30.2217 30.4603 30.0411 30.581 29.8426 30.6634C29.6439 30.7457 29.4309 30.7881 29.216 30.7881C29.0009 30.7881 28.7879 30.7457 28.5893 30.6634C28.3906 30.581 28.2102 30.4603 28.0582 30.3082L28.0091 30.2591C27.8162 30.0705 27.5713 29.9439 27.3059 29.8958C27.0405 29.8476 26.7668 29.8802 26.52 29.9891C26.278 30.0928 26.0716 30.265 25.9262 30.4845C25.7809 30.704 25.7029 30.9613 25.7018 31.2245V31.3637C25.7018 31.7976 25.5294 32.2138 25.2225 32.5207C24.9156 32.8276 24.4995 33 24.0655 33C23.6315 33 23.2152 32.8276 22.9084 32.5207C22.6015 32.2138 22.429 31.7976 22.429 31.3637V31.29C22.4227 31.0192 22.3351 30.7565 22.1775 30.5362C22.0199 30.3159 21.7997 30.148 21.5455 30.0545C21.2986 29.9456 21.0249 29.9131 20.7596 29.9613C20.4941 30.0094 20.2491 30.136 20.0563 30.3245L20.0073 30.3737C19.8553 30.5258 19.6748 30.6465 19.4761 30.7288C19.2775 30.8112 19.0646 30.8536 18.8495 30.8536C18.6345 30.8536 18.4216 30.8112 18.2229 30.7288C18.0242 30.6465 17.8438 30.5258 17.6918 30.3737C17.5397 30.2217 17.419 30.0411 17.3366 29.8426C17.2543 29.6439 17.2119 29.4309 17.2119 29.216C17.2119 29.0009 17.2543 28.7879 17.3366 28.5893C17.419 28.3906 17.5397 28.2102 17.6918 28.0582L17.741 28.0091C17.9295 27.8162 18.0561 27.5713 18.1042 27.3059C18.1524 27.0405 18.1199 26.7668 18.011 26.52C17.9072 26.278 17.735 26.0716 17.5155 25.9262C17.296 25.7809 17.0387 25.7029 16.7755 25.7018H16.6363C16.2024 25.7018 15.7861 25.5294 15.4792 25.2225C15.1723 24.9156 15 24.4995 15 24.0655C15 23.6315 15.1723 23.2152 15.4792 22.9084C15.7861 22.6015 16.2024 22.429 16.6363 22.429H16.71C16.9808 22.4227 17.2435 22.3351 17.4637 22.1775C17.6841 22.0199 17.852 21.7997 17.9455 21.5455C18.0544 21.2986 18.0869 21.0249 18.0387 20.7596C17.9906 20.4941 17.864 20.2491 17.6755 20.0563L17.6263 20.0073C17.4742 19.8553 17.3535 19.6748 17.2711 19.4761C17.1888 19.2775 17.1464 19.0646 17.1464 18.8495C17.1464 18.6345 17.1888 18.4216 17.2711 18.2229C17.3535 18.0242 17.4742 17.8438 17.6263 17.6918C17.7783 17.5397 17.9589 17.419 18.1574 17.3366C18.3561 17.2543 18.5691 17.2119 18.784 17.2119C18.9991 17.2119 19.2121 17.2543 19.4107 17.3366C19.6093 17.419 19.7898 17.5397 19.9418 17.6918L19.9909 17.741C20.1838 17.9295 20.4287 18.0561 20.6941 18.1042C20.9595 18.1524 21.2332 18.1199 21.48 18.011H21.5455C21.7875 17.9072 21.9938 17.735 22.1393 17.5155C22.2846 17.296 22.3626 17.0387 22.3637 16.7755V16.6363C22.3637 16.2024 22.536 15.7861 22.8429 15.4792C23.1498 15.1723 23.566 15 24 15C24.434 15 24.8502 15.1723 25.1571 15.4792C25.464 15.7861 25.6363 16.2024 25.6363 16.6363V16.71C25.6374 16.9733 25.7154 17.2305 25.8607 17.45C26.0062 17.6695 26.2125 17.8418 26.4545 17.9455C26.7014 18.0544 26.9751 18.0869 27.2404 18.0387C27.5059 17.9906 27.7509 17.864 27.9437 17.6755L27.9927 17.6263C28.1447 17.4742 28.3252 17.3535 28.5239 17.2711C28.7225 17.1888 28.9354 17.1464 29.1505 17.1464C29.3655 17.1464 29.5784 17.1888 29.7771 17.2711C29.9758 17.3535 30.1562 17.4742 30.3082 17.6263C30.4603 17.7783 30.581 17.9589 30.6634 18.1574C30.7457 18.3561 30.7881 18.5691 30.7881 18.784C30.7881 18.9991 30.7457 19.2121 30.6634 19.4107C30.581 19.6093 30.4603 19.7898 30.3082 19.9418L30.2591 19.9909C30.0705 20.1838 29.9439 20.4287 29.8958 20.6941C29.8476 20.9595 29.8802 21.2332 29.9891 21.48V21.5455C30.0928 21.7875 30.265 21.9938 30.4845 22.1393C30.704 22.2846 30.9613 22.3626 31.2245 22.3637H31.3637C31.7976 22.3637 32.2138 22.536 32.5207 22.8429C32.8276 23.1498 33 23.566 33 24C33 24.434 32.8276 24.8502 32.5207 25.1571C32.2138 25.464 31.7976 25.6363 31.3637 25.6363H31.29C31.0267 25.6374 30.7695 25.7154 30.55 25.8607C30.3305 26.0062 30.1582 26.2125 30.0545 26.4545Z" stroke="white" stroke-width="1.5" stroke-linecap="round" stroke-linejoin="round"/>
</svg>
