<svg width="48" height="48" viewBox="0 0 48 48" fill="none" xmlns="http://www.w3.org/2000/svg">
<mask id="mask0_248_10566" style="mask-type:alpha" maskUnits="userSpaceOnUse" x="12" y="12" width="24" height="24">
<rect x="12" y="12" width="24" height="24" fill="#D9D9D9"/>
</mask>
<g mask="url(#mask0_248_10566)">
<path d="M22.3251 26.75C22.5084 26.5667 22.6001 26.3457 22.6001 26.087C22.6001 25.829 22.5084 25.6083 22.3251 25.425L20.8751 23.975L22.3501 22.5C22.5168 22.3167 22.6001 22.0957 22.6001 21.837C22.6001 21.579 22.5168 21.3583 22.3501 21.175C22.1501 20.9917 21.9211 20.9 21.6631 20.9C21.4044 20.9 21.1834 20.9917 21.0001 21.175L18.8501 23.325C18.6668 23.5083 18.5751 23.7293 18.5751 23.988C18.5751 24.246 18.6668 24.4583 18.8501 24.625L20.9751 26.775C21.1584 26.9583 21.3791 27.05 21.6371 27.05C21.8958 27.05 22.1251 26.95 22.3251 26.75ZM25.7001 26.775C25.8834 26.975 26.1044 27.075 26.3631 27.075C26.6211 27.075 26.8418 26.9833 27.0251 26.8L29.1751 24.65C29.3418 24.4833 29.4251 24.2707 29.4251 24.012C29.4251 23.754 29.3418 23.5333 29.1751 23.35L27.0001 21.2C26.8168 21.0167 26.5961 20.925 26.3381 20.925C26.0794 20.925 25.8584 21.0167 25.6751 21.2C25.4918 21.3833 25.4001 21.6043 25.4001 21.863C25.4001 22.121 25.4918 22.3417 25.6751 22.525L27.1501 24L25.7001 25.45C25.5168 25.6333 25.4251 25.8543 25.4251 26.113C25.4251 26.371 25.5168 26.5917 25.7001 26.775ZM17.1001 32.75C16.5834 32.75 16.1418 32.5667 15.7751 32.2C15.4084 31.8333 15.2251 31.3917 15.2251 30.875V17.1C15.2251 16.5833 15.4084 16.1417 15.7751 15.775C16.1418 15.4083 16.5834 15.225 17.1001 15.225H21.3501C21.5334 14.625 21.8668 14.1457 22.3501 13.787C22.8334 13.429 23.3834 13.25 24.0001 13.25C24.6168 13.25 25.1711 13.429 25.6631 13.787C26.1544 14.1457 26.4834 14.625 26.6501 15.225H30.9001C31.4168 15.225 31.8584 15.4083 32.2251 15.775C32.5918 16.1417 32.7751 16.5833 32.7751 17.1V30.875C32.7751 31.3917 32.5918 31.8333 32.2251 32.2C31.8584 32.5667 31.4168 32.75 30.9001 32.75H17.1001ZM24.0001 16.4C24.2168 16.4 24.3961 16.329 24.5381 16.187C24.6794 16.0457 24.7501 15.8667 24.7501 15.65C24.7501 15.4333 24.6794 15.254 24.5381 15.112C24.3961 14.9707 24.2168 14.9 24.0001 14.9C23.7834 14.9 23.6044 14.9707 23.4631 15.112C23.3211 15.254 23.2501 15.4333 23.2501 15.65C23.2501 15.8667 23.3211 16.0457 23.4631 16.187C23.6044 16.329 23.7834 16.4 24.0001 16.4Z" fill="white"/>
</g>
</svg>
