<svg width="48" height="48" viewBox="0 0 48 48" fill="none" xmlns="http://www.w3.org/2000/svg">
<mask id="mask0_248_10561" style="mask-type:alpha" maskUnits="userSpaceOnUse" x="12" y="12" width="24" height="24">
<rect x="12" y="12" width="24" height="24" fill="#D9D9D9"/>
</mask>
<g mask="url(#mask0_248_10561)">
<path d="M24 30.6C23.8666 30.6 23.7376 30.5793 23.613 30.538C23.4876 30.496 23.3666 30.4333 23.25 30.35C21.1666 28.7333 19.6166 27.1667 18.6 25.65C17.5833 24.1333 17.075 22.6333 17.075 21.15C17.075 19.9833 17.2833 18.954 17.7 18.062C18.1166 17.1707 18.654 16.429 19.312 15.837C19.9706 15.2457 20.7126 14.8 21.538 14.5C22.3626 14.2 23.1833 14.05 24 14.05C24.8 14.05 25.6166 14.2 26.45 14.5C27.2833 14.8 28.0293 15.2457 28.688 15.837C29.346 16.429 29.8873 17.1707 30.312 18.062C30.7373 18.954 30.95 19.9833 30.95 21.15C30.95 22.6333 30.4376 24.1333 29.413 25.65C28.3876 27.1667 26.8333 28.7333 24.75 30.35C24.6666 30.4333 24.5543 30.496 24.413 30.538C24.271 30.5793 24.1333 30.6 24 30.6ZM24 22.925C24.5333 22.925 24.9916 22.7373 25.375 22.362C25.7583 21.9873 25.95 21.5333 25.95 21C25.95 20.4667 25.7583 20.0083 25.375 19.625C24.9916 19.2417 24.5333 19.05 24 19.05C23.4666 19.05 23.0126 19.2417 22.638 19.625C22.2626 20.0083 22.075 20.4667 22.075 21C22.075 21.5333 22.2626 21.9873 22.638 22.362C23.0126 22.7373 23.4666 22.925 24 22.925ZM18 33.925C17.75 33.925 17.5333 33.8333 17.35 33.65C17.1666 33.4667 17.075 33.25 17.075 33C17.075 32.7333 17.1666 32.5083 17.35 32.325C17.5333 32.1417 17.75 32.05 18 32.05H30C30.2666 32.05 30.4916 32.1417 30.675 32.325C30.8583 32.5083 30.95 32.7333 30.95 33C30.95 33.25 30.8583 33.4667 30.675 33.65C30.4916 33.8333 30.2666 33.925 30 33.925H18Z" fill="white"/>
</g>
</svg>
