<svg width="48" height="48" viewBox="0 0 48 48" fill="none" xmlns="http://www.w3.org/2000/svg">
<mask id="mask0_248_10569" style="mask-type:alpha" maskUnits="userSpaceOnUse" x="12" y="12" width="24" height="24">
<rect x="12" y="12" width="24" height="24" fill="#D9D9D9"/>
</mask>
<g mask="url(#mask0_248_10569)">
<path d="M19.1 33.75C18.5667 33.75 18.1127 33.5627 17.738 33.188C17.3627 32.8127 17.175 32.3583 17.175 31.825C17.175 31.2917 17.3627 30.8373 17.738 30.462C18.1127 30.0873 18.5667 29.9 19.1 29.9C19.6333 29.9 20.0877 30.0873 20.463 30.462C20.8377 30.8373 21.025 31.2917 21.025 31.825C21.025 32.3583 20.8377 32.8127 20.463 33.188C20.0877 33.5627 19.6333 33.75 19.1 33.75ZM28.875 33.75C28.3417 33.75 27.8873 33.5627 27.512 33.188C27.1373 32.8127 26.95 32.3583 26.95 31.825C26.95 31.2917 27.1373 30.8373 27.512 30.462C27.8873 30.0873 28.3417 29.9 28.875 29.9C29.4083 29.9 29.8627 30.0873 30.238 30.462C30.6127 30.8373 30.8 31.2917 30.8 31.825C30.8 32.3583 30.6127 32.8127 30.238 33.188C29.8627 33.5627 29.4083 33.75 28.875 33.75ZM19.1 28.825C18.3833 28.825 17.8377 28.5083 17.463 27.875C17.0877 27.2417 17.0667 26.6167 17.4 26L18.75 23.575L15.2 16.075H14.175C13.9083 16.075 13.6877 15.9833 13.513 15.8C13.3377 15.6167 13.25 15.3917 13.25 15.125C13.25 14.875 13.3417 14.6583 13.525 14.475C13.7083 14.2917 13.9333 14.2 14.2 14.2H15.8C15.9833 14.2 16.15 14.2457 16.3 14.337C16.45 14.429 16.5583 14.5583 16.625 14.725L17.3 16.15H31.675C32.125 16.15 32.4333 16.3167 32.6 16.65C32.7667 16.9833 32.7583 17.3333 32.575 17.7L29.15 23.875C28.9833 24.1917 28.75 24.4417 28.45 24.625C28.15 24.8083 27.8167 24.9 27.45 24.9H20.15L19.025 26.95H29.9C30.15 26.95 30.3627 27.0417 30.538 27.225C30.7127 27.4083 30.8 27.625 30.8 27.875C30.8 28.1417 30.7083 28.3667 30.525 28.55C30.3417 28.7333 30.125 28.825 29.875 28.825H19.1Z" fill="white"/>
</g>
</svg>
