<svg width="48" height="48" viewBox="0 0 48 48" fill="none" xmlns="http://www.w3.org/2000/svg">
<path d="M33 18.151C33 16.1044 28.3631 15 24 15C19.6369 15 15 16.1044 15 18.151V29.849C15 31.8956 19.6369 33 24 33C28.3631 33 33 31.8956 33 29.849V18.151ZM15.766 23.1094C17.2603 24.2974 20.7078 24.9264 24 24.9264C27.2922 24.9264 30.7398 24.2974 32.234 23.1094V25.812C32.234 26.9378 28.7128 28.1971 24 28.1971C19.2872 28.1971 15.766 26.9378 15.766 25.812V23.1094ZM24 24.1604C19.2872 24.1604 15.766 22.9012 15.766 21.7751V19.4853C17.2603 20.6734 20.7078 21.3023 24 21.3023C27.2922 21.3023 30.7398 20.6734 32.234 19.4853V21.7751C32.234 22.9012 28.7128 24.1604 24 24.1604ZM24 15.766C28.7128 15.766 32.234 17.0252 32.234 18.151C32.234 19.2771 28.7128 20.5363 24 20.5363C19.2872 20.5363 15.766 19.2771 15.766 18.151C15.766 17.0252 19.2872 15.766 24 15.766ZM24 32.234C19.2872 32.234 15.766 30.9748 15.766 29.849V27.1462C17.2603 28.3341 20.7078 28.963 24 28.963C27.2922 28.963 30.7398 28.334 32.234 27.1462V29.849C32.234 30.9748 28.7128 32.234 24 32.234Z" fill="#EEEEEE"/>
</svg>
