<svg width="48" height="48" viewBox="0 0 48 48" fill="none" xmlns="http://www.w3.org/2000/svg">
<mask id="mask0_248_10557" style="mask-type:alpha" maskUnits="userSpaceOnUse" x="12" y="12" width="24" height="24">
<rect x="12" y="12" width="24" height="24" fill="#D9D9D9"/>
</mask>
<g mask="url(#mask0_248_10557)">
<path d="M16.2251 26.875C15.4251 26.875 14.7461 26.5956 14.1881 26.037C13.6294 25.479 13.3501 24.8 13.3501 24C13.3501 23.2 13.6334 22.525 14.2001 21.975C14.7668 21.425 15.4418 21.15 16.2251 21.15V19.075C16.2251 18.575 16.4084 18.1373 16.7751 17.762C17.1418 17.3873 17.5834 17.2 18.1001 17.2H21.1501C21.1501 16.4166 21.4294 15.7456 21.9881 15.187C22.5461 14.629 23.2168 14.35 24.0001 14.35C24.8001 14.35 25.4751 14.629 26.0251 15.187C26.5751 15.7456 26.8501 16.4166 26.8501 17.2H29.9001C30.4168 17.2 30.8584 17.3873 31.2251 17.762C31.5918 18.1373 31.7751 18.575 31.7751 19.075V21.15C32.5751 21.15 33.2541 21.425 33.8121 21.975C34.3708 22.525 34.6501 23.2 34.6501 24C34.6501 24.8 34.3708 25.479 33.8121 26.037C33.2541 26.5956 32.5751 26.875 31.7751 26.875V30.875C31.7751 31.3916 31.5918 31.8333 31.2251 32.2C30.8584 32.5666 30.4168 32.75 29.9001 32.75H18.1001C17.5834 32.75 17.1418 32.5666 16.7751 32.2C16.4084 31.8333 16.2251 31.3916 16.2251 30.875V26.875ZM21.0501 24.925C21.4501 24.925 21.7918 24.7873 22.0751 24.512C22.3584 24.2373 22.5001 23.9 22.5001 23.5C22.5001 23.1 22.3584 22.7583 22.0751 22.475C21.7918 22.1916 21.4501 22.05 21.0501 22.05C20.6501 22.05 20.3128 22.1916 20.0381 22.475C19.7628 22.7583 19.6251 23.1 19.6251 23.5C19.6251 23.9 19.7628 24.2373 20.0381 24.512C20.3128 24.7873 20.6501 24.925 21.0501 24.925ZM26.9501 24.925C27.3501 24.925 27.6918 24.7873 27.9751 24.512C28.2584 24.2373 28.4001 23.9 28.4001 23.5C28.4001 23.1 28.2584 22.7583 27.9751 22.475C27.6918 22.1916 27.3501 22.05 26.9501 22.05C26.5501 22.05 26.2128 22.1916 25.9381 22.475C25.6628 22.7583 25.5251 23.1 25.5251 23.5C25.5251 23.9 25.6628 24.2373 25.9381 24.512C26.2128 24.7873 26.5501 24.925 26.9501 24.925ZM21.0501 28.875H26.9751C27.2251 28.875 27.4418 28.7833 27.6251 28.6C27.8084 28.4166 27.9001 28.1916 27.9001 27.925C27.9001 27.675 27.8084 27.4583 27.6251 27.275C27.4418 27.0916 27.2251 27 26.9751 27H21.0501C20.7834 27 20.5584 27.0916 20.3751 27.275C20.1918 27.4583 20.1001 27.675 20.1001 27.925C20.1001 28.1916 20.1918 28.4166 20.3751 28.6C20.5584 28.7833 20.7834 28.875 21.0501 28.875Z" fill="white"/>
</g>
</svg>
