<svg width="48" height="48" viewBox="0 0 48 48" fill="none" xmlns="http://www.w3.org/2000/svg">
<mask id="mask0_248_10558" style="mask-type:alpha" maskUnits="userSpaceOnUse" x="12" y="12" width="24" height="24">
<rect x="12" y="12" width="24" height="24" fill="#D9D9D9"/>
</mask>
<g mask="url(#mask0_248_10558)">
<path d="M14.25 25.05V20.075C14.25 19.5583 14.4333 19.1166 14.8 18.75C15.1667 18.3833 15.6083 18.2 16.125 18.2H20.15V16.225C20.15 15.7083 20.3333 15.2666 20.7 14.9C21.0667 14.5333 21.5083 14.35 22.025 14.35H25.975C26.4917 14.35 26.9333 14.5333 27.3 14.9C27.6667 15.2666 27.85 15.7083 27.85 16.225V18.2H31.875C32.3917 18.2 32.8333 18.3833 33.2 18.75C33.5667 19.1166 33.75 19.5583 33.75 20.075V25.05H26.875V24.05C26.875 23.7833 26.7833 23.5623 26.6 23.387C26.4167 23.2123 26.2 23.125 25.95 23.125H22.075C21.8083 23.125 21.5877 23.2123 21.413 23.387C21.2377 23.5623 21.15 23.7833 21.15 24.05V25.05H14.25ZM22.025 18.2H25.975V16.225H22.025V18.2ZM23.025 26.975V25H25V26.975H23.025ZM16.125 32.775C15.6083 32.775 15.1667 32.5916 14.8 32.225C14.4333 31.8583 14.25 31.4166 14.25 30.9V26.925H21.15V27.925C21.15 28.1916 21.2377 28.4123 21.413 28.587C21.5877 28.7623 21.8083 28.85 22.075 28.85H25.95C26.2 28.85 26.4167 28.7623 26.6 28.587C26.7833 28.4123 26.875 28.1916 26.875 27.925V26.925H33.75V30.9C33.75 31.4166 33.5667 31.8583 33.2 32.225C32.8333 32.5916 32.3917 32.775 31.875 32.775H16.125Z" fill="white"/>
</g>
</svg>
