<svg width="48" height="48" viewBox="0 0 48 48" fill="none" xmlns="http://www.w3.org/2000/svg">
<mask id="mask0_248_10564" style="mask-type:alpha" maskUnits="userSpaceOnUse" x="12" y="12" width="24" height="24">
<rect x="12" y="12" width="24" height="24" fill="#D9D9D9"/>
</mask>
<g mask="url(#mask0_248_10564)">
<path d="M24.0001 33.675C23.9168 33.675 23.8374 33.671 23.7621 33.663C23.6874 33.6543 23.6168 33.6417 23.5501 33.625C21.4168 32.9583 19.6624 31.6333 18.2871 29.65C16.9124 27.6667 16.2251 25.4833 16.2251 23.1V18.45C16.2251 18.0667 16.3374 17.7167 16.5621 17.4C16.7874 17.0833 17.0834 16.8583 17.4501 16.725L23.3501 14.5C23.5668 14.4167 23.7878 14.375 24.0131 14.375C24.2378 14.375 24.4584 14.4167 24.6751 14.5L30.5751 16.725C30.9251 16.8583 31.2128 17.0833 31.4381 17.4C31.6628 17.7167 31.7751 18.0667 31.7751 18.45V23.1C31.7751 25.4833 31.0878 27.6667 29.7131 29.65C28.3378 31.6333 26.5834 32.9583 24.4501 33.625C24.4168 33.6417 24.2668 33.6583 24.0001 33.675Z" fill="white"/>
</g>
</svg>
