<svg width="48" height="48" viewBox="0 0 48 48" fill="none" xmlns="http://www.w3.org/2000/svg">
<mask id="mask0_248_10568" style="mask-type:alpha" maskUnits="userSpaceOnUse" x="12" y="12" width="24" height="24">
<rect x="12" y="12" width="24" height="24" fill="#D9D9D9"/>
</mask>
<g mask="url(#mask0_248_10568)">
<path d="M30.4249 20.25C30.3416 20.25 30.2583 20.2293 30.1749 20.188C30.0916 20.146 30.0333 20.075 29.9999 19.975L29.3749 18.625L27.9999 18C27.9166 17.9667 27.8499 17.9083 27.7999 17.825C27.7499 17.7417 27.7249 17.6583 27.7249 17.575C27.7249 17.4917 27.7499 17.4083 27.7999 17.325C27.8499 17.2417 27.9166 17.1833 27.9999 17.15L29.3749 16.525L29.9999 15.15C30.0333 15.0667 30.0916 15 30.1749 14.95C30.2583 14.9 30.3416 14.875 30.4249 14.875C30.5083 14.875 30.5916 14.9 30.6749 14.95C30.7583 15 30.8166 15.0667 30.8499 15.15L31.4749 16.525L32.8249 17.15C32.9249 17.1833 32.9959 17.2417 33.0379 17.325C33.0793 17.4083 33.0999 17.4917 33.0999 17.575C33.0999 17.6583 33.0793 17.7417 33.0379 17.825C32.9959 17.9083 32.9249 17.9667 32.8249 18L31.4749 18.625L30.8499 19.975C30.8166 20.075 30.7583 20.146 30.6749 20.188C30.5916 20.2293 30.5083 20.25 30.4249 20.25ZM32.3749 27.225C32.2916 27.225 32.2083 27.2 32.1249 27.15C32.0416 27.1 31.9833 27.0333 31.9499 26.95L31.5999 26.225L30.8499 25.875C30.7999 25.8417 30.7166 25.7 30.5999 25.45C30.5999 25.3667 30.6209 25.2833 30.6629 25.2C30.7043 25.1167 30.7666 25.0583 30.8499 25.025L31.5999 24.675L31.9499 23.925C31.9833 23.875 32.1249 23.7917 32.3749 23.675C32.4583 23.675 32.5376 23.6957 32.6129 23.737C32.6876 23.779 32.7499 23.8417 32.7999 23.925L33.1499 24.675L33.8749 25.025C33.9416 25.0583 34.0333 25.2 34.1499 25.45C34.1499 25.5333 34.1249 25.6127 34.0749 25.688C34.0249 25.7627 33.9583 25.825 33.8749 25.875L33.1499 26.225L32.7999 26.95C32.7666 27.0167 32.6249 27.1083 32.3749 27.225ZM20.4749 33.725C20.2416 33.725 20.0416 33.646 19.8749 33.488C19.7083 33.3293 19.6083 33.1333 19.5749 32.9L19.3999 31.45C19.2499 31.4 19.1043 31.3293 18.9629 31.238C18.8209 31.146 18.6999 31.05 18.5999 30.95L17.2249 31.55C17.0083 31.65 16.7873 31.6623 16.5619 31.587C16.3373 31.5123 16.1666 31.375 16.0499 31.175L14.4999 28.475C14.3833 28.2583 14.3499 28.0373 14.3999 27.812C14.4499 27.5873 14.5749 27.4 14.7749 27.25L15.9499 26.4C15.9499 26.2333 15.9499 26.0793 15.9499 25.938C15.9499 25.796 15.9499 25.65 15.9499 25.5L14.7749 24.625C14.5749 24.4917 14.4499 24.3083 14.3999 24.075C14.3499 23.8417 14.3833 23.625 14.4999 23.425L16.0499 20.725C16.1666 20.5083 16.3373 20.3667 16.5619 20.3C16.7873 20.2333 17.0083 20.2417 17.2249 20.325L18.5999 20.95C18.6999 20.8333 18.8209 20.7333 18.9629 20.65C19.1043 20.5667 19.2499 20.5 19.3999 20.45L19.5749 18.975C19.6083 18.7417 19.7083 18.55 19.8749 18.4C20.0416 18.25 20.2416 18.175 20.4749 18.175H23.5999C23.8333 18.175 24.0333 18.25 24.1999 18.4C24.3666 18.55 24.4666 18.7417 24.4999 18.975L24.6999 20.45C24.8333 20.5 24.9709 20.5667 25.1129 20.65C25.2543 20.7333 25.3833 20.8333 25.4999 20.95L26.8499 20.325C27.0666 20.2417 27.2876 20.2333 27.5129 20.3C27.7376 20.3667 27.9083 20.5083 28.0249 20.725L29.5749 23.425C29.7083 23.625 29.7499 23.8417 29.6999 24.075C29.6499 24.3083 29.5249 24.4917 29.3249 24.625L28.1499 25.5C28.1499 25.65 28.1499 25.796 28.1499 25.938C28.1499 26.0793 28.1499 26.2333 28.1499 26.4L29.3249 27.25C29.5249 27.4 29.6499 27.5873 29.6999 27.812C29.7499 28.0373 29.7083 28.2583 29.5749 28.475L28.0249 31.175C27.9083 31.375 27.7376 31.5123 27.5129 31.587C27.2876 31.6623 27.0666 31.65 26.8499 31.55L25.4999 30.95C25.3833 31.05 25.2543 31.146 25.1129 31.238C24.9709 31.3293 24.8333 31.4 24.6999 31.45L24.4999 32.9C24.4666 33.1333 24.3666 33.3293 24.1999 33.488C24.0333 33.646 23.8333 33.725 23.5999 33.725H20.4749ZM22.0499 28.875C22.8499 28.875 23.5376 28.5873 24.1129 28.012C24.6876 27.4373 24.9749 26.75 24.9749 25.95C24.9749 25.1333 24.6876 24.4417 24.1129 23.875C23.5376 23.3083 22.8499 23.025 22.0499 23.025C21.2333 23.025 20.5416 23.3083 19.9749 23.875C19.4083 24.4417 19.1249 25.1333 19.1249 25.95C19.1249 26.75 19.4083 27.4373 19.9749 28.012C20.5416 28.5873 21.2333 28.875 22.0499 28.875Z" fill="white"/>
</g>
</svg>
