<svg width="48" height="48" viewBox="0 0 48 48" fill="none" xmlns="http://www.w3.org/2000/svg">
<mask id="mask0_248_10560" style="mask-type:alpha" maskUnits="userSpaceOnUse" x="12" y="12" width="24" height="24">
<rect x="12" y="12" width="24" height="24" fill="#D9D9D9"/>
</mask>
<g mask="url(#mask0_248_10560)">
<path d="M21.575 21.325V26.65C21.575 27.0167 21.7373 27.2873 22.062 27.462C22.3873 27.6373 22.7 27.625 23 27.425L27.15 24.775C27.4333 24.5917 27.575 24.3333 27.575 24C27.575 23.6667 27.4333 23.4 27.15 23.2L23 20.575C22.7 20.3583 22.3873 20.3417 22.062 20.525C21.7373 20.7083 21.575 20.975 21.575 21.325ZM24 33.75C22.65 33.75 21.3833 33.4917 20.2 32.975C19.0167 32.4583 17.9877 31.7623 17.113 30.887C16.2377 30.0123 15.5417 28.9833 15.025 27.8C14.5083 26.6167 14.25 25.35 14.25 24C14.25 22.65 14.5083 21.3833 15.025 20.2C15.5417 19.0167 16.2377 17.9833 17.113 17.1C17.9877 16.2167 19.0167 15.5207 20.2 15.012C21.3833 14.504 22.65 14.25 24 14.25C25.35 14.25 26.6167 14.5083 27.8 15.025C28.9833 15.5417 30.0167 16.2373 30.9 17.112C31.7833 17.9873 32.4793 19.0167 32.988 20.2C33.496 21.3833 33.75 22.65 33.75 24C33.75 25.35 33.4917 26.6167 32.975 27.8C32.4583 28.9833 31.7627 30.0123 30.888 30.887C30.0127 31.7623 28.9833 32.4583 27.8 32.975C26.6167 33.4917 25.35 33.75 24 33.75Z" fill="white"/>
</g>
</svg>
