<svg width="48" height="48" viewBox="0 0 48 48" fill="none" xmlns="http://www.w3.org/2000/svg">
<mask id="mask0_248_10559" style="mask-type:alpha" maskUnits="userSpaceOnUse" x="12" y="12" width="24" height="24">
<rect x="12" y="12" width="24" height="24" fill="#D9D9D9"/>
</mask>
<g mask="url(#mask0_248_10559)">
<path d="M22.3001 29.2C22.4001 29.2833 22.5044 29.3457 22.6131 29.387C22.7211 29.429 22.8334 29.45 22.9501 29.45C23.0668 29.45 23.1834 29.429 23.3001 29.387C23.4168 29.3457 23.5168 29.2833 23.6001 29.2L27.8001 25C27.9834 24.8167 28.0751 24.5957 28.0751 24.337C28.0751 24.079 27.9751 23.8583 27.7751 23.675C27.5918 23.475 27.3711 23.375 27.1131 23.375C26.8544 23.375 26.6251 23.475 26.4251 23.675L22.9501 27.15L21.5001 25.7C21.3001 25.5167 21.0794 25.425 20.8381 25.425C20.5961 25.425 20.3751 25.525 20.1751 25.725C19.9918 25.9083 19.9001 26.129 19.9001 26.387C19.9001 26.6457 19.9918 26.8667 20.1751 27.05L22.3001 29.2ZM18.1001 33.75C17.5834 33.75 17.1418 33.5667 16.7751 33.2C16.4084 32.8333 16.2251 32.3917 16.2251 31.875V16.125C16.2251 15.6083 16.4084 15.1667 16.7751 14.8C17.1418 14.4333 17.5834 14.25 18.1001 14.25H25.2251C25.4751 14.25 25.7128 14.2957 25.9381 14.387C26.1628 14.479 26.3668 14.6167 26.5501 14.8L31.2251 19.45C31.4084 19.6333 31.5461 19.8417 31.6381 20.075C31.7294 20.3083 31.7751 20.5417 31.7751 20.775V31.875C31.7751 32.3917 31.5918 32.8333 31.2251 33.2C30.8584 33.5667 30.4168 33.75 29.9001 33.75H18.1001ZM26.0001 20.95H29.9001L25.0751 16.125V20.025C25.0751 20.2917 25.1628 20.5127 25.3381 20.688C25.5128 20.8627 25.7334 20.95 26.0001 20.95Z" fill="white"/>
</g>
</svg>
