<svg width="48" height="48" viewBox="0 0 48 48" fill="none" xmlns="http://www.w3.org/2000/svg">
<mask id="mask0_248_10570" style="mask-type:alpha" maskUnits="userSpaceOnUse" x="12" y="12" width="24" height="24">
<rect x="12" y="12" width="24" height="24" fill="#D9D9D9"/>
</mask>
<g mask="url(#mask0_248_10570)">
<path d="M14.3 31.675C14.0333 31.675 13.8127 31.5833 13.638 31.4C13.4627 31.2167 13.375 31 13.375 30.75V29.025C13.375 28.475 13.5127 27.9707 13.788 27.512C14.0627 27.054 14.4417 26.7083 14.925 26.475C15.9417 25.975 16.971 25.5957 18.013 25.337C19.0543 25.079 20.1 24.95 21.15 24.95C22.2167 24.95 23.2667 25.079 24.3 25.337C25.3333 25.5957 26.3583 25.975 27.375 26.475C27.8583 26.7083 28.2377 27.054 28.513 27.512C28.7877 27.9707 28.925 28.475 28.925 29.025V30.75C28.925 31 28.8377 31.2167 28.663 31.4C28.4877 31.5833 28.2667 31.675 28 31.675H14.3ZM30.35 31.675C30.5167 31.5917 30.65 31.4667 30.75 31.3C30.85 31.1333 30.9 30.9333 30.9 30.7V28.85C30.9 28.1167 30.696 27.429 30.288 26.787C29.8793 26.1457 29.3083 25.5917 28.575 25.125C29.3917 25.225 30.1543 25.3917 30.863 25.625C31.571 25.8583 32.2417 26.1417 32.875 26.475C33.4417 26.7917 33.8793 27.15 34.188 27.55C34.496 27.95 34.65 28.3833 34.65 28.85V30.75C34.65 31 34.5583 31.2167 34.375 31.4C34.1917 31.5833 33.975 31.675 33.725 31.675H30.35ZM21.15 24.025C20.0833 24.025 19.175 23.65 18.425 22.9C17.675 22.15 17.3 21.2417 17.3 20.175C17.3 19.1083 17.675 18.2 18.425 17.45C19.175 16.7 20.0833 16.325 21.15 16.325C22.2167 16.325 23.125 16.7 23.875 17.45C24.625 18.2 25 19.1083 25 20.175C25 21.2417 24.625 22.15 23.875 22.9C23.125 23.65 22.2167 24.025 21.15 24.025ZM30.7 20.15C30.7 21.2167 30.325 22.125 29.575 22.875C28.825 23.625 27.9167 24 26.85 24C26.7 24 26.4917 23.9833 26.225 23.95C25.9583 23.9167 25.7417 23.875 25.575 23.825C26.025 23.3083 26.3667 22.7373 26.6 22.112C26.8333 21.4873 26.95 20.8333 26.95 20.15C26.95 19.4833 26.8333 18.8333 26.6 18.2C26.3667 17.5667 26.025 17 25.575 16.5C25.7917 16.4167 26.0083 16.3667 26.225 16.35C26.4417 16.3333 26.65 16.325 26.85 16.325C27.9167 16.325 28.825 16.7 29.575 17.45C30.325 18.2 30.7 19.1 30.7 20.15Z" fill="white"/>
</g>
</svg>
