<svg width="48" height="48" viewBox="0 0 48 48" fill="none" xmlns="http://www.w3.org/2000/svg">
<mask id="mask0_990_8134" style="mask-type:alpha" maskUnits="userSpaceOnUse" x="12" y="12" width="24" height="24">
<rect x="12" y="12" width="24" height="24" fill="#D9D9D9"/>
</mask>
<g mask="url(#mask0_990_8134)">
<path d="M16.125 19.6251H15.625V20.1251V23.9251V24.4251H16.125H31.875H32.375V23.9251V20.1251V19.6251H31.875H16.125ZM16.125 31.2751C15.7415 31.2751 15.4268 31.1448 15.1536 30.8715C14.8803 30.5983 14.75 30.2836 14.75 29.9001V18.1001C14.75 17.7166 14.8803 17.4019 15.1536 17.1287C15.4268 16.8554 15.7415 16.7251 16.125 16.7251H31.875C32.2585 16.7251 32.5732 16.8554 32.8464 17.1287C33.1197 17.4019 33.25 17.7166 33.25 18.1001V29.9001C33.25 30.2836 33.1197 30.5983 32.8464 30.8715C32.5732 31.1448 32.2585 31.2751 31.875 31.2751H16.125Z" fill="#17141C" stroke="#17141C"/>
</g>
</svg>
