<svg width="48" height="48" viewBox="0 0 48 48" fill="none" xmlns="http://www.w3.org/2000/svg">
<mask id="mask0_990_8061" style="mask-type:alpha" maskUnits="userSpaceOnUse" x="12" y="12" width="24" height="24">
<rect x="12" y="12" width="24" height="24" fill="#D9D9D9"/>
</mask>
<g mask="url(#mask0_990_8061)">
<path d="M15.859 23.339L15.8584 23.3384C15.7724 23.2563 15.7251 23.157 15.7251 23V16.25C15.7251 16.1193 15.7657 16.0252 15.8584 15.9367L15.8584 15.9367L15.859 15.9361C15.9566 15.8426 16.0614 15.8 16.2001 15.8H31.8001C31.9387 15.8 32.0442 15.8426 32.1427 15.9366C32.2345 16.0248 32.2751 16.119 32.2751 16.25V23C32.2751 23.1574 32.2279 23.2567 32.1426 23.3387C32.0441 23.4326 31.9387 23.475 31.8001 23.475H16.2001C16.0614 23.475 15.9566 23.4325 15.859 23.339ZM20.9467 20.9985L20.9471 20.9981C21.3136 20.62 21.5001 20.153 21.5001 19.625C21.5001 19.0969 21.3132 18.6309 20.9421 18.2589L20.9412 18.2581C20.5692 17.887 20.1033 17.7 19.5751 17.7C19.0472 17.7 18.5801 17.8866 18.2021 18.253L18.2016 18.2535C17.8201 18.6243 17.6251 19.0919 17.6251 19.625C17.6251 20.1579 17.8196 20.6267 18.1965 21.0036C18.5735 21.3805 19.0422 21.575 19.5751 21.575C20.1083 21.575 20.5759 21.3801 20.9467 20.9985ZM15.859 33.064L15.8584 33.0634C15.7724 32.9813 15.7251 32.882 15.7251 32.725V26C15.7251 25.8687 15.7665 25.7658 15.8667 25.6656C15.9658 25.5665 16.0682 25.525 16.2001 25.525H31.8001C31.9318 25.525 32.0348 25.5664 32.1346 25.6657C32.2338 25.7655 32.2751 25.8684 32.2751 26V32.725C32.2751 32.8823 32.2279 32.9817 32.1426 33.0636C32.0441 33.1576 31.9387 33.2001 31.8001 33.2001H16.2001C16.0614 33.2001 15.9566 33.1575 15.859 33.064ZM20.9412 30.742L20.9421 30.7412C21.3132 30.3692 21.5001 29.9032 21.5001 29.375C21.5001 28.8471 21.3136 28.3801 20.9471 28.002L20.9467 28.0016C20.5759 27.62 20.1083 27.425 19.5751 27.425C19.0422 27.425 18.5735 27.6196 18.1965 27.9965C17.8196 28.3734 17.6251 28.8422 17.6251 29.375C17.6251 29.9082 17.8201 30.3758 18.2016 30.7466L18.2021 30.7471C18.5801 31.1135 19.0472 31.3 19.5751 31.3C20.1033 31.3 20.5692 31.1131 20.9412 30.742Z" fill="#17141C" stroke="#17141C"/>
</g>
</svg>
