<svg width="48" height="48" viewBox="0 0 48 48" fill="none" xmlns="http://www.w3.org/2000/svg">
<mask id="mask0_990_8102" style="mask-type:alpha" maskUnits="userSpaceOnUse" x="12" y="12" width="24" height="24">
<rect x="12" y="12" width="24" height="24" fill="#D9D9D9"/>
</mask>
<g mask="url(#mask0_990_8102)">
<path d="M20.6026 32.1744L20.6009 32.1737C20.4417 32.1092 20.2928 32.0107 20.1537 31.8715L16.1287 27.8465C15.9894 27.7072 15.8904 27.5582 15.8252 27.3985C15.759 27.2356 15.7251 27.0625 15.7251 26.8751V21.1251C15.7251 20.9379 15.7589 20.7645 15.8251 20.6008C15.8903 20.4419 15.9892 20.2931 16.1287 20.1537L20.1537 16.1287C20.2929 15.9894 20.442 15.8904 20.6017 15.8252C20.7646 15.759 20.9377 15.7251 21.1251 15.7251H26.8751C27.0622 15.7251 27.2357 15.7589 27.3994 15.8251C27.5583 15.8903 27.7071 15.9892 27.8465 16.1287L31.8715 20.1537C32.011 20.2931 32.1099 20.4419 32.1751 20.6009C32.2413 20.7646 32.2751 20.938 32.2751 21.1251V26.8751C32.2751 27.0626 32.2412 27.2358 32.1749 27.3988C32.1097 27.5583 32.0108 27.7073 31.8715 27.8465L27.8465 31.8715C27.7071 32.011 27.5584 32.1094 27.3998 32.1739L27.3991 32.1742C27.2354 32.241 27.0621 32.2751 26.8751 32.2751H21.1251C20.9381 32.2751 20.7653 32.241 20.6026 32.1744ZM24.0001 29.3501C24.3951 29.3501 24.7486 29.2087 25.0287 28.9287C25.3087 28.6486 25.4501 28.2951 25.4501 27.9001C25.4501 27.5051 25.3087 27.1516 25.0287 26.8715C24.7486 26.5915 24.3951 26.4501 24.0001 26.4501C23.6051 26.4501 23.2516 26.5915 22.9715 26.8715C22.6915 27.1516 22.5501 27.5051 22.5501 27.9001C22.5501 28.2951 22.6915 28.6486 22.9715 28.9287C23.2516 29.2087 23.6051 29.3501 24.0001 29.3501ZM24.0001 25.5001C24.3951 25.5001 24.7486 25.3587 25.0287 25.0787C25.3087 24.7986 25.4501 24.4451 25.4501 24.0501V20.0251C25.4501 19.6371 25.3019 19.2948 25.0287 19.0215C24.7486 18.7415 24.3951 18.6001 24.0001 18.6001C23.6121 18.6001 23.2698 18.7483 22.9965 19.0215C22.7233 19.2948 22.5751 19.6371 22.5751 20.0251V24.0501C22.5751 24.4451 22.7165 24.7986 22.9965 25.0787C23.2698 25.3519 23.6121 25.5001 24.0001 25.5001Z" fill="#17141C" stroke="#17141C"/>
</g>
</svg>
