<svg width="48" height="48" viewBox="0 0 48 48" fill="none" xmlns="http://www.w3.org/2000/svg">
<mask id="mask0_990_8074" style="mask-type:alpha" maskUnits="userSpaceOnUse" x="12" y="12" width="24" height="24">
<rect x="12" y="12" width="24" height="24" fill="#D9D9D9"/>
</mask>
<g mask="url(#mask0_990_8074)">
<path d="M15.7157 31.3095C16.3811 31.9742 17.1669 32.2999 18.1001 32.2999C19.0333 32.2999 19.8136 31.9743 20.4697 31.3113C21.1271 30.6462 21.4501 29.8599 21.4501 28.925C21.4501 27.99 21.1272 27.2091 20.4715 26.5535C19.8159 25.8979 19.035 25.575 18.1001 25.575C17.1651 25.575 16.3788 25.898 15.7138 26.5554L15.7157 31.3095ZM15.7157 31.3095C15.0509 30.644 14.7251 29.8582 14.7251 28.925C14.7251 27.9918 15.0507 27.2115 15.7136 26.5555L15.7157 31.3095ZM26.3947 21.4603L26.3945 21.4604C25.7401 22.1224 24.9522 22.45 24.0001 22.45C23.0669 22.45 22.2812 22.1239 21.6157 21.4584C20.9509 20.7936 20.6251 20.0083 20.6251 19.075C20.6251 18.1228 20.9523 17.3349 21.6136 16.6805C22.2787 16.023 23.0651 15.7 24.0001 15.7C24.954 15.7 25.7425 16.0245 26.3965 16.6785C27.0506 17.3325 27.3751 18.121 27.3751 19.075C27.3751 20.01 27.052 20.7959 26.3947 21.4603ZM27.5396 26.5555L27.5398 26.5554C28.2041 25.898 28.9901 25.575 29.9251 25.575C30.86 25.575 31.6409 25.8979 32.2965 26.5535C32.9522 27.2091 33.2751 27.99 33.2751 28.925C33.2751 29.86 32.952 30.6464 32.2945 31.3114C31.6385 31.9744 30.8582 32.2999 29.9251 32.2999C28.9918 32.2999 28.2064 31.9742 27.5416 31.3094C26.8761 30.6439 26.5501 29.8581 26.5501 28.925C26.5501 27.9919 26.8759 27.2116 27.5396 26.5555Z" fill="#17141C" stroke="#17141C"/>
</g>
</svg>
