<svg width="48" height="48" viewBox="0 0 48 48" fill="none" xmlns="http://www.w3.org/2000/svg">
<mask id="mask0_1143_9325" style="mask-type:alpha" maskUnits="userSpaceOnUse" x="12" y="12" width="24" height="24">
<rect x="12" y="12" width="24" height="24" fill="#D9D9D9"/>
</mask>
<g mask="url(#mask0_1143_9325)">
<path d="M21.6 27.6L23 26.15L20.85 24L23 21.85L21.6 20.4L18 24L21.6 27.6ZM26.4 27.6L30 24L26.4 20.4L25 21.85L27.15 24L25 26.15L26.4 27.6ZM17 33C16.45 33 15.979 32.8043 15.587 32.413C15.1957 32.021 15 31.55 15 31V17C15 16.45 15.1957 15.979 15.587 15.587C15.979 15.1957 16.45 15 17 15H21.2C21.4167 14.4 21.7793 13.9167 22.288 13.55C22.796 13.1833 23.3667 13 24 13C24.6333 13 25.2043 13.1833 25.713 13.55C26.221 13.9167 26.5833 14.4 26.8 15H31C31.55 15 32.021 15.1957 32.413 15.587C32.8043 15.979 33 16.45 33 17V31C33 31.55 32.8043 32.021 32.413 32.413C32.021 32.8043 31.55 33 31 33H17ZM24 16.25C24.2167 16.25 24.396 16.179 24.538 16.037C24.6793 15.8957 24.75 15.7167 24.75 15.5C24.75 15.2833 24.6793 15.104 24.538 14.962C24.396 14.8207 24.2167 14.75 24 14.75C23.7833 14.75 23.6043 14.8207 23.463 14.962C23.321 15.104 23.25 15.2833 23.25 15.5C23.25 15.7167 23.321 15.8957 23.463 16.037C23.6043 16.179 23.7833 16.25 24 16.25Z" fill="#1C1B1F"/>
</g>
</svg>
