<svg width="48" height="48" viewBox="0 0 48 48" fill="none" xmlns="http://www.w3.org/2000/svg">
<mask id="mask0_1143_9320" style="mask-type:alpha" maskUnits="userSpaceOnUse" x="12" y="12" width="24" height="24">
<rect x="12" y="12" width="24" height="24" fill="#D9D9D9"/>
</mask>
<g mask="url(#mask0_1143_9320)">
<path d="M24 31C21.65 29.2667 19.8957 27.5833 18.737 25.95C17.579 24.3167 17 22.7167 17 21.15C17 19.9667 17.2127 18.929 17.638 18.037C18.0627 17.1457 18.6083 16.4 19.275 15.8C19.9417 15.2 20.6917 14.75 21.525 14.45C22.3583 14.15 23.1833 14 24 14C24.8167 14 25.6417 14.15 26.475 14.45C27.3083 14.75 28.0583 15.2 28.725 15.8C29.3917 16.4 29.9377 17.1457 30.363 18.037C30.7877 18.929 31 19.9667 31 21.15C31 22.7167 30.4207 24.3167 29.262 25.95C28.104 27.5833 26.35 29.2667 24 31ZM24 23C24.55 23 25.021 22.804 25.413 22.412C25.8043 22.0207 26 21.55 26 21C26 20.45 25.8043 19.979 25.413 19.587C25.021 19.1957 24.55 19 24 19C23.45 19 22.9793 19.1957 22.588 19.587C22.196 19.979 22 20.45 22 21C22 21.55 22.196 22.0207 22.588 22.412C22.9793 22.804 23.45 23 24 23ZM17 34V32H31V34H17Z" fill="#1C1B1F"/>
</g>
</svg>
