<svg width="48" height="48" viewBox="0 0 48 48" fill="none" xmlns="http://www.w3.org/2000/svg">
<mask id="mask0_990_8126" style="mask-type:alpha" maskUnits="userSpaceOnUse" x="12" y="12" width="24" height="24">
<rect x="12" y="12" width="24" height="24" fill="#D9D9D9"/>
</mask>
<g mask="url(#mask0_990_8126)">
<path d="M17.8933 27.6204L17.8931 27.62C17.6024 27.1295 17.5951 26.6923 17.8385 26.2403L19.1869 23.8182L19.3119 23.5935L19.2019 23.361L15.6519 15.861L15.5165 15.575H15.2H14.175C14.037 15.575 13.9498 15.5336 13.875 15.4551L13.875 15.4551L13.8743 15.4544C13.7929 15.3692 13.75 15.2702 13.75 15.125C13.75 15.013 13.7851 14.922 13.8786 14.8285C13.9652 14.7419 14.0617 14.7 14.2 14.7H15.8C15.8955 14.7 15.9713 14.7224 16.0392 14.7636C16.0952 14.7981 16.1333 14.842 16.1608 14.9106L16.1665 14.925L16.1731 14.939L16.8481 16.364L16.9836 16.65H17.3H31.675C31.8399 16.65 31.9427 16.6806 32.006 16.7148C32.0639 16.7461 32.1123 16.7926 32.1528 16.8736C32.2403 17.0485 32.2487 17.2297 32.1321 17.4676L28.7128 23.6324L28.7126 23.6324L28.7075 23.6421C28.5821 23.8804 28.4109 24.0629 28.1893 24.1983C27.9712 24.3316 27.7288 24.4 27.45 24.4H20.15H19.854L19.7117 24.6594L18.5867 26.7094L18.1803 27.45H19.025H29.9C30.0111 27.45 30.0938 27.4841 30.1762 27.5701C30.2634 27.6617 30.3 27.7553 30.3 27.875C30.3 28.0132 30.2581 28.1098 30.1714 28.1964C30.078 28.2898 29.987 28.325 29.875 28.325H19.1C18.5658 28.325 18.181 28.1066 17.8933 27.6204ZM19.1 33.25C18.6983 33.25 18.3718 33.1146 18.0916 32.8344C17.8105 32.5533 17.675 32.2264 17.675 31.825C17.675 31.4235 17.8105 31.0966 18.0916 30.8155C18.3718 30.5353 18.6983 30.4 19.1 30.4C19.5016 30.4 19.8286 30.5353 20.1096 30.8156C20.3898 31.0965 20.525 31.4234 20.525 31.825C20.525 32.2265 20.3898 32.5534 20.1095 32.8343C19.8286 33.1147 19.5016 33.25 19.1 33.25ZM28.875 33.25C28.4734 33.25 28.1465 33.1147 27.8655 32.8344C27.5853 32.5535 27.45 32.2265 27.45 31.825C27.45 31.4234 27.5853 31.0964 27.8656 30.8155C28.1465 30.5352 28.4734 30.4 28.875 30.4C29.2766 30.4 29.6035 30.5352 29.8845 30.8155C30.1647 31.0964 30.3 31.4234 30.3 31.825C30.3 32.2265 30.1647 32.5535 29.8844 32.8344C29.6035 33.1147 29.2766 33.25 28.875 33.25Z" fill="#17141C" stroke="#17141C"/>
</g>
</svg>
