<svg width="48" height="48" viewBox="0 0 48 48" fill="none" xmlns="http://www.w3.org/2000/svg">
<mask id="mask0_990_8098" style="mask-type:alpha" maskUnits="userSpaceOnUse" x="12" y="12" width="24" height="24">
<rect x="12" y="12" width="24" height="24" fill="#D9D9D9"/>
</mask>
<g mask="url(#mask0_990_8098)">
<path d="M20.488 23.1881L20.7388 22.7556C20.5118 22.6239 20.2634 22.5501 20 22.5501H14.75V18.1001C14.75 17.7166 14.8803 17.4019 15.1536 17.1287C15.4268 16.8554 15.7415 16.7251 16.125 16.7251H31.875C32.2585 16.7251 32.5732 16.8554 32.8464 17.1287C33.1197 17.4019 33.25 17.7166 33.25 18.1001V22.5501H28.908L27.2972 19.3515C27.2971 19.3512 27.297 19.351 27.2969 19.3508C27.1671 19.0917 26.9682 18.8871 26.7032 18.7608L26.7009 18.7597C26.4792 18.6554 26.2441 18.6001 26 18.6001C25.7559 18.6001 25.5208 18.6554 25.2991 18.7597L25.2968 18.7608C25.0315 18.8873 24.8325 19.0921 24.7028 19.3515L22 24.7571L21.2972 23.3515C21.1711 23.0992 20.9828 22.8966 20.7382 22.7552L20.488 23.1881ZM20.488 23.1881C20.646 23.2794 20.7667 23.4084 20.85 23.5751L21.7205 25.3161L14.75 23.0501H20C20.1667 23.0501 20.3293 23.0961 20.488 23.1881ZM23.2976 28.648L25.9985 23.2248L26.7018 24.6468L26.7028 24.6487C26.8307 24.9045 27.0242 25.1081 27.2787 25.2424L27.2795 25.2428C27.5043 25.3608 27.7463 25.4251 28 25.4251H33.25V29.9001C33.25 30.2836 33.1197 30.5983 32.8464 30.8715C32.5732 31.1448 32.2585 31.2751 31.875 31.2751H16.125C15.7415 31.2751 15.4268 31.1448 15.1536 30.8715C14.8803 30.5983 14.75 30.2836 14.75 29.9001V25.4251H19.114L20.7015 28.6461L20.7015 28.6461L20.7028 28.6487C20.8307 28.9045 21.0242 29.1081 21.2787 29.2424L21.2795 29.2428C21.5043 29.3608 21.7463 29.4251 22 29.4251C22.2537 29.4251 22.4957 29.3608 22.7205 29.2428L22.7213 29.2424C22.9758 29.1081 23.1693 28.9045 23.2972 28.6487L23.2976 28.648Z" fill="#17141C" stroke="#17141C"/>
</g>
</svg>
