<svg width="48" height="48" viewBox="0 0 48 48" fill="none" xmlns="http://www.w3.org/2000/svg">
<mask id="mask0_990_8069" style="mask-type:alpha" maskUnits="userSpaceOnUse" x="12" y="12" width="24" height="24">
<rect x="12" y="12" width="24" height="24" fill="#D9D9D9"/>
</mask>
<g mask="url(#mask0_990_8069)">
<path d="M25.3751 30.5H28.4751V32.5H16.4751V30.5H19.0751H19.7506L19.5533 29.854L17.0033 21.504L16.9443 21.311L16.7679 21.2129C16.4015 21.0094 16.092 20.7078 15.8413 20.2919L15.8411 20.2915C15.5949 19.884 15.4751 19.4564 15.4751 19C15.4751 18.2978 15.7152 17.7171 16.2037 17.2286C16.6922 16.7401 17.2729 16.5 17.9751 16.5C18.5215 16.5 18.9961 16.6551 19.4162 16.9643C19.8446 17.2809 20.1359 17.6774 20.3021 18.1622L20.418 18.5H20.7751H23.9751H24.4751V18V17C24.4751 16.8429 24.5229 16.7344 24.6167 16.6406C24.7094 16.5478 24.8174 16.5 24.9751 16.5C25.0481 16.5 25.1217 16.5157 25.2002 16.5524C25.2628 16.582 25.3208 16.6276 25.3751 16.7L25.7106 17.1474L26.1178 16.7641L27.8178 15.1641L27.8233 15.1589L27.8287 15.1536C27.9088 15.0734 27.999 15.0249 28.1101 15.0023C28.2039 14.9839 28.2955 14.9943 28.4015 15.0472L28.4085 15.0507L28.4156 15.054L32.3074 16.8502C32.403 16.8993 32.447 16.9549 32.4725 17.0193C32.4979 17.0852 32.4962 17.1314 32.4734 17.1852C32.4284 17.2712 32.3853 17.2957 32.343 17.3085L32.342 17.3089C32.2672 17.3317 32.2052 17.3279 32.1327 17.2952C32.1324 17.2951 32.1322 17.2949 32.132 17.2948L28.5334 15.6455L28.2284 15.5057L27.9834 15.735L25.6334 17.935L25.4751 18.0832V18.3V19.7V19.9203L25.6376 20.0689L27.9876 22.2189L28.2321 22.4427L28.5334 22.3046L32.132 20.6552C32.1322 20.6551 32.1324 20.655 32.1325 20.655C32.195 20.6267 32.2558 20.6206 32.342 20.6494C32.417 20.6744 32.4471 20.7067 32.4699 20.7569L32.4737 20.7654L32.4779 20.7736C32.5189 20.8556 32.5084 20.8885 32.4949 20.9181C32.4646 20.9848 32.4124 21.0465 32.3055 21.1008L28.4108 22.9483L28.4108 22.9482L28.4015 22.9528C28.2957 23.0057 28.2044 23.0157 28.1108 22.9969L28.1095 22.9966C27.9986 22.9746 27.9087 22.9266 27.8287 22.8465L27.8233 22.8411L27.8178 22.8359L26.1178 21.2359L25.7645 20.9035L25.4215 21.2465C25.3558 21.3122 25.2701 21.3788 25.1597 21.444C25.0869 21.4867 25.0275 21.5 24.9751 21.5C24.818 21.5 24.7101 21.4523 24.6173 21.3591L24.616 21.3579C24.5228 21.265 24.4751 21.1572 24.4751 21V20V19.5H23.9751H20.7751H20.4286L20.3069 19.8245C20.2626 19.9428 20.2154 20.0516 20.1659 20.1513C20.1236 20.2353 20.0616 20.3347 19.9751 20.45L19.783 20.7061L19.9352 20.9878L24.9352 30.2378L25.077 30.5H25.3751ZM19.041 20.0672L19.0423 20.066C19.3316 19.7756 19.4751 19.409 19.4751 19C19.4751 18.5911 19.3316 18.2244 19.0423 17.9341L19.041 17.9329C18.7507 17.6435 18.3841 17.5 17.9751 17.5C17.5661 17.5 17.1995 17.6436 16.9095 17.9335C16.6193 18.2237 16.4751 18.5905 16.4751 19C16.4751 19.4095 16.6193 19.7764 16.9095 20.0666C17.1995 20.3565 17.5661 20.5 17.9751 20.5C18.3841 20.5 18.7507 20.3565 19.041 20.0672ZM20.647 30.1464L20.7553 30.5H21.1251H23.0751H23.9115L23.5155 29.7633L19.2155 21.7633L19.074 21.5H18.7751H18.7751H18.7751H18.7751H18.7751H18.7751H18.7751H18.7751H18.7751H18.7751H18.775H18.775H18.775H18.775H18.775H18.775H18.775H18.775H18.775H18.775H18.775H18.775H18.7749H18.7749H18.7749H18.7749H18.7749H18.7749H18.7749H18.7749H18.7749H18.7748H18.7748H18.7748H18.7748H18.7748H18.7748H18.7747H18.7747H18.7747H18.7747H18.7747H18.7747H18.7746H18.7746H18.7746H18.7746H18.7746H18.7745H18.7745H18.7745H18.7745H18.7745H18.7744H18.7744H18.7744H18.7744H18.7743H18.7743H18.7743H18.7743H18.7742H18.7742H18.7742H18.7742H18.7741H18.7741H18.7741H18.7741H18.774H18.774H18.774H18.7739H18.7739H18.7739H18.7738H18.7738H18.7738H18.7738H18.7737H18.7737H18.7737H18.7736H18.7736H18.7736H18.7735H18.7735H18.7734H18.7734H18.7734H18.7733H18.7733H18.7733H18.7732H18.7732H18.7732H18.7731H18.7731H18.773H18.773H18.773H18.7729H18.7729H18.7728H18.7728H18.7727H18.7727H18.7727H18.7726H18.7726H18.7725H18.7725H18.7724H18.7724H18.7724H18.7723H18.7723H18.7722H18.7722H18.7721H18.7721H18.772H18.772H18.7719H18.7719H18.7718H18.7718H18.7717H18.7717H18.7716H18.7716H18.7715H18.7715H18.7714H18.7714H18.7713H18.7713H18.7712H18.7711H18.7711H18.771H18.771H18.7709H18.7709H18.7708H18.7707H18.7707H18.7706H18.7706H18.7705H18.7705H18.7704H18.7703H18.7703H18.7702H18.7702H18.7701H18.77H18.77H18.7699H18.7698H18.7698H18.7697H18.7697H18.7696H18.7695H18.7695H18.7694H18.7693H18.7693H18.7692H18.7691H18.7691H18.769H18.7689H18.7688H18.7688H18.7687H18.7686H18.7686H18.7685H18.7684H18.7684H18.7683H18.7682H18.7681H18.7681H18.768H18.7679H18.7678H18.7678H18.7677H18.7676H18.7675H18.7675H18.7674H18.7673H18.7672H18.7672H18.7671H18.767H18.7669H18.7668H18.7668H18.7667H18.7666H18.7665H18.7664H18.7664H18.7663H18.7662H18.7661H18.766H18.7659H18.7659H18.7658H18.7657H18.7656H18.7655H18.7654H18.7654H18.7653H18.7652H18.7651H18.765H18.7649H18.7648H18.7647H18.7647H18.7646H18.7645H18.7644H18.7643H18.7642H18.7641H18.764H18.7639H18.7638H18.7637H18.7636H18.7636H18.7635H18.7634H18.7633H18.7632H18.7631H18.763H18.7629H18.7628H18.7627H18.7626H18.7625H18.7624H18.7623H18.7622H18.7621H18.762H18.7619H18.7618H18.7617H18.7616H18.7615H18.7614H18.7613H18.7612H18.7611H18.761H18.7609H18.7608H18.7607H18.7606H18.7605H18.7604H18.7603H18.7601H18.76H18.7599H18.7598H18.7597H18.7596H18.7595H18.7594H18.7593H18.7592H18.7591H18.7589H18.7588H18.7587H18.7586H18.7585H18.7584H18.7583H18.7582H18.758H18.7579H18.7578H18.7577H18.7576H18.7575H18.7574H18.7572H18.7571H18.757H18.7569H18.7568H18.7566H18.7565H18.7564H18.7563H18.7562H18.7561H18.7559H18.7558H18.7557H18.7556H18.7554H18.7553H18.7552H18.7551H18.755H18.7548H18.7547H18.7546H18.7545H18.7543H18.7542H18.7541H18.7539H18.7538H18.7537H18.7536H18.7534H18.7533H18.7532H18.753H18.7529H18.7528H18.7527H18.7525H18.7524H18.7523H18.7521H18.752H18.7519H18.7517H18.7516H18.7515H18.7513H18.7512H18.7511H18.7509H18.7508H18.7507H18.7505H18.7504H18.7502H18.7501H18.75H18.7498H18.7497H18.7495H18.7494H18.7493H18.7491H18.749H18.7488H18.7487H18.7486H18.7484H18.7483H18.7481H18.748H18.7478H18.7477H18.7476H18.7474H18.7473H18.7471H18.747H18.7468H18.7467H18.7465H18.7464H18.7462H18.7461H18.7459H18.7458H18.7456H18.7455H18.7453H18.7452H18.745H18.7449H18.7447H18.7446H18.7444H18.7443H18.7441H18.744H18.7438H18.7437H18.7435H18.7433H18.7432H18.743H18.7429H18.7427H18.7426H18.7424H18.7422H18.7421H18.7419H18.7418H18.7416H18.7415H18.7413H18.7411H18.741H18.7408H18.7406H18.7405H18.7403H18.7402H18.74H18.7398H18.7397H18.7395H18.7393H18.7392H18.739H18.7388H18.7387H18.7385H18.7383H18.7382H18.738H18.7378H18.7377H18.7375H18.7373H18.7372H18.737H18.7368H18.7366H18.7365H18.7363H18.7361H18.736H18.7358H18.7356H18.7354H18.7353H18.7351H18.7349H18.7347H18.7346H18.7344H18.7342H18.734H18.7339H18.7337H18.7335H18.7333H18.7331H18.733H18.7328H18.7326H18.7324H18.7322H18.7321H18.7319H18.7317H18.7315H18.7313H18.7312H18.731H18.7308H18.7306H18.7304H18.7302H18.73H18.7299H18.7297H18.7295H18.7293H18.7291H18.7289H18.7287H18.7286H18.7284H18.7282H18.728H18.7278H18.7276H18.7274H18.7272H18.727H18.7268H18.7266H18.7265H18.7263H18.7261H18.7259H18.7257H18.7255H18.7253H18.7251H18.7249H18.7247H18.7245H18.7243H18.7241H18.7239H18.7237H18.7235H18.7234H18.7232H18.723H18.7228H18.7226H18.7224H18.7222H18.722H18.7218H18.7216H18.7215H18.7213H18.7211H18.7209H18.7207H18.7205H18.7203H18.7201H18.72H18.7198H18.7196H18.7194H18.7192H18.719H18.7189H18.7187H18.7185H18.7183H18.7181H18.718H18.7178H18.7176H18.7174H18.7172H18.7171H18.7169H18.7167H18.7165H18.7163H18.7162H18.716H18.7158H18.7156H18.7155H18.7153H18.7151H18.7149H18.7148H18.7146H18.7144H18.7142H18.7141H18.7139H18.7137H18.7136H18.7134H18.7132H18.713H18.7129H18.7127H18.7125H18.7124H18.7122H18.712H18.7119H18.7117H18.7115H18.7114H18.7112H18.711H18.7109H18.7107H18.7105H18.7104H18.7102H18.71H18.7099H18.7097H18.7095H18.7094H18.7092H18.7091H18.7089H18.7087H18.7086H18.7084H18.7083H18.7081H18.7079H18.7078H18.7076H18.7075H18.7073H18.7072H18.707H18.7068H18.7067H18.7065H18.7064H18.7062H18.7061H18.7059H18.7058H18.7056H18.7055H18.7053H18.7052H18.705H18.7049H18.7047H18.7046H18.7044H18.7043H18.7041H18.704H18.7038H18.7037H18.7035H18.7034H18.7032H18.7031H18.7029H18.7028H18.7026H18.7025H18.7024H18.7022H18.7021H18.7019H18.7018H18.7016H18.7015H18.7014H18.7012H18.7011H18.7009H18.7008H18.7006H18.7005H18.7004H18.7002H18.7001H18.7H18.6998H18.6997H18.6995H18.6994H18.6993H18.6991H18.699H18.6989H18.6987H18.6986H18.6985H18.6983H18.6982H18.6981H18.6979H18.6978H18.6977H18.6975H18.6974H18.6973H18.6971H18.697H18.6969H18.6968H18.6966H18.6965H18.6964H18.6962H18.6961H18.696H18.6959H18.6957H18.6956H18.6955H18.6954H18.6952H18.6951H18.695H18.6949H18.6948H18.6946H18.6945H18.6944H18.6943H18.6941H18.694H18.6939H18.6938H18.6937H18.6935H18.6934H18.6933H18.6932H18.6931H18.693H18.6928H18.6927H18.6926H18.6925H18.6924H18.6923H18.6921H18.692H18.6919H18.6918H18.6917H18.6916H18.6915H18.6914H18.6912H18.6911H18.691H18.6909H18.6908H18.6907H18.6906H18.6905H18.6904H18.6903H18.6902H18.6901H18.6899H18.6898H18.6897H18.6896H18.6895H18.6894H18.6893H18.6892H18.6891H18.689H18.6889H18.6888H18.6887H18.6886H18.6885H18.6884H18.6883H18.6882H18.6881H18.688H18.6879H18.6878H18.6877H18.6876H18.6875H18.6874H18.6873H18.6872H18.6871H18.687H18.6869H18.6868H18.6867H18.6866H18.6865H18.6865H18.6864H18.6863H18.6862H18.6861H18.686H18.6859H18.6858H18.6857H18.6856H18.6855H18.6855H18.6854H18.6853H18.6852H18.6851H18.685H18.6849H18.6848H18.6848H18.6847H18.6846H18.6845H18.6844H18.6843H18.6842H18.6842H18.6841H18.684H18.6839H18.6838H18.6838H18.6837H18.6836H18.6835H18.6834H18.6833H18.6833H18.6832H18.6831H18.683H18.683H18.6829H18.6828H18.6827H18.6827H18.6826H18.6825H18.6824H18.6824H18.6823H18.6822H18.6821H18.6821H18.682H18.6819H18.6818H18.6818H18.6817H18.6816H18.6816H18.6815H18.6814H18.6813H18.6813H18.6812H18.6811H18.6811H18.681H18.6809H18.6809H18.6808H18.6807H18.6807H18.6806H18.6805H18.6805H18.6804H18.6804H18.6803H18.6802H18.6802H18.6801H18.68H18.68H18.6799H18.6799H18.6798H18.6797H18.6797H18.6796H18.6796H18.6795H18.6794H18.6794H18.6793H18.6793H18.6792H18.6792H18.6791H18.6791H18.679H18.6789H18.6789H18.6788H18.6788H18.6787H18.6787H18.6786H18.6786H18.6785H18.6785H18.6784H18.6784H18.6783H18.6783H18.6782H18.6782H18.6781H18.6781H18.678H18.678H18.6779H18.6779H18.6778H18.6778H18.6778H18.6777H18.6777H18.6776H18.6776H18.6775H18.6775H18.6774H18.6774H18.6774H18.6773H18.6773H18.6772H18.6772H18.6772H18.6771H18.6771H18.677H18.677H18.677H18.6769H18.6769H18.6769H18.6768H18.6768H18.6767H18.6767H18.6767H18.6766H18.6766H18.6766H18.6765H18.6765H18.6765H18.6764H18.6764H18.6764H18.6763H18.6763H18.6763H18.6763H18.6762H18.6762H18.6762H18.6761H18.6761H18.6761H18.6761H18.676H18.676H18.676H18.676H18.6759H18.6759H18.6759H18.6759H18.6758H18.6758H18.6758H18.6758H18.6757H18.6757H18.6757H18.6757H18.6757H18.6756H18.6756H18.6756H18.6756H18.6756H18.6755H18.6755H18.6755H18.6755H18.6755H18.6755H18.6754H18.6754H18.6754H18.6754H18.6754H18.6754H18.6753H18.6753H18.6753H18.6753H18.6753H18.6753H18.6753H18.6753H18.6752H18.6752H18.6752H18.6752H18.6752H18.6752H18.6752H18.6752H18.6752H18.6752H18.6752H18.6752H18.6751H18.6751H18.6751H18.6751H18.6751H18.6751H18.6751H18.6751H18.6751H18.6751H18.6751H17.9991L18.197 22.1464L20.647 30.1464Z" fill="#17141C" stroke="#17141C"/>
</g>
</svg>
