<svg width="48" height="48" viewBox="0 0 48 48" fill="none" xmlns="http://www.w3.org/2000/svg">
<mask id="mask0_1143_9311" style="mask-type:alpha" maskUnits="userSpaceOnUse" x="12" y="12" width="24" height="24">
<rect x="12" y="12" width="24" height="24" fill="#D9D9D9"/>
</mask>
<g mask="url(#mask0_1143_9311)">
<path d="M16 27C15.1667 27 14.4583 26.7083 13.875 26.125C13.2917 25.5417 13 24.8333 13 24C13 23.1667 13.2917 22.4583 13.875 21.875C14.4583 21.2917 15.1667 21 16 21V19C16 18.45 16.196 17.9793 16.588 17.588C16.9793 17.196 17.45 17 18 17H21C21 16.1667 21.2917 15.4583 21.875 14.875C22.4583 14.2917 23.1667 14 24 14C24.8333 14 25.5417 14.2917 26.125 14.875C26.7083 15.4583 27 16.1667 27 17H30C30.55 17 31.021 17.196 31.413 17.588C31.8043 17.9793 32 18.45 32 19V21C32.8333 21 33.5417 21.2917 34.125 21.875C34.7083 22.4583 35 23.1667 35 24C35 24.8333 34.7083 25.5417 34.125 26.125C33.5417 26.7083 32.8333 27 32 27V31C32 31.55 31.8043 32.021 31.413 32.413C31.021 32.8043 30.55 33 30 33H18C17.45 33 16.9793 32.8043 16.588 32.413C16.196 32.021 16 31.55 16 31V27ZM21 25C21.4167 25 21.7707 24.854 22.062 24.562C22.354 24.2707 22.5 23.9167 22.5 23.5C22.5 23.0833 22.354 22.7293 22.062 22.438C21.7707 22.146 21.4167 22 21 22C20.5833 22 20.2293 22.146 19.938 22.438C19.646 22.7293 19.5 23.0833 19.5 23.5C19.5 23.9167 19.646 24.2707 19.938 24.562C20.2293 24.854 20.5833 25 21 25ZM27 25C27.4167 25 27.7707 24.854 28.062 24.562C28.354 24.2707 28.5 23.9167 28.5 23.5C28.5 23.0833 28.354 22.7293 28.062 22.438C27.7707 22.146 27.4167 22 27 22C26.5833 22 26.2293 22.146 25.938 22.438C25.646 22.7293 25.5 23.0833 25.5 23.5C25.5 23.9167 25.646 24.2707 25.938 24.562C26.2293 24.854 26.5833 25 27 25ZM20 29H28V27H20V29Z" fill="#1C1B1F"/>
</g>
</svg>
