<svg width="48" height="48" viewBox="0 0 48 48" fill="none" xmlns="http://www.w3.org/2000/svg">
<mask id="mask0_1143_9317" style="mask-type:alpha" maskUnits="userSpaceOnUse" x="12" y="12" width="24" height="24">
<rect x="12" y="12" width="24" height="24" fill="#D9D9D9"/>
</mask>
<g mask="url(#mask0_1143_9317)">
<path d="M20 18V16C20 15.45 20.196 14.979 20.588 14.587C20.9793 14.1957 21.45 14 22 14H26C26.55 14 27.021 14.1957 27.413 14.587C27.8043 14.979 28 15.45 28 16V18H32C32.55 18 33.021 18.196 33.413 18.588C33.8043 18.9793 34 19.45 34 20V25H27V23H21V25H14V20C14 19.45 14.196 18.9793 14.588 18.588C14.9793 18.196 15.45 18 16 18H20ZM22 18H26V16H22V18ZM23 27V25H25V27H23ZM14 27H21V29H27V27H34V31C34 31.55 33.8043 32.021 33.413 32.413C33.021 32.8043 32.55 33 32 33H16C15.45 33 14.9793 32.8043 14.588 32.413C14.196 32.021 14 31.55 14 31V27Z" fill="#1C1B1F"/>
</g>
</svg>
