<svg width="48" height="48" viewBox="0 0 48 48" fill="none" xmlns="http://www.w3.org/2000/svg">
<mask id="mask0_1143_9324" style="mask-type:alpha" maskUnits="userSpaceOnUse" x="12" y="12" width="24" height="24">
<rect x="12" y="12" width="24" height="24" fill="#D9D9D9"/>
</mask>
<g mask="url(#mask0_1143_9324)">
<path d="M17 33C16.45 33 15.979 32.8043 15.587 32.413C15.1957 32.021 15 31.55 15 31V27C15 26.45 15.1957 25.979 15.587 25.587C15.979 25.1957 16.45 25 17 25H27V21H29V25H31C31.55 25 32.021 25.1957 32.413 25.587C32.8043 25.979 33 26.45 33 27V31C33 31.55 32.8043 32.021 32.413 32.413C32.021 32.8043 31.55 33 31 33H17ZM20 29C20 28.7167 19.9043 28.4793 19.713 28.288C19.521 28.096 19.2833 28 19 28C18.7167 28 18.479 28.096 18.287 28.288C18.0957 28.4793 18 28.7167 18 29C18 29.2833 18.0957 29.5207 18.287 29.712C18.479 29.904 18.7167 30 19 30C19.2833 30 19.521 29.904 19.713 29.712C19.9043 29.5207 20 29.2833 20 29ZM23.5 29C23.5 28.7167 23.4043 28.4793 23.213 28.288C23.021 28.096 22.7833 28 22.5 28C22.2167 28 21.9793 28.096 21.788 28.288C21.596 28.4793 21.5 28.7167 21.5 29C21.5 29.2833 21.596 29.5207 21.788 29.712C21.9793 29.904 22.2167 30 22.5 30C22.7833 30 23.021 29.904 23.213 29.712C23.4043 29.5207 23.5 29.2833 23.5 29ZM26 30C26.2833 30 26.521 29.904 26.713 29.712C26.9043 29.5207 27 29.2833 27 29C27 28.7167 26.9043 28.4793 26.713 28.288C26.521 28.096 26.2833 28 26 28C25.7167 28 25.4793 28.096 25.288 28.288C25.096 28.4793 25 28.7167 25 29C25 29.2833 25.096 29.5207 25.288 29.712C25.4793 29.904 25.7167 30 26 30ZM26.25 20.25L24.8 18.8C25.2333 18.4 25.7167 18.0833 26.25 17.85C26.7833 17.6167 27.3667 17.5 28 17.5C28.6333 17.5 29.2167 17.6167 29.75 17.85C30.2833 18.0833 30.7667 18.4 31.2 18.8L29.75 20.25C29.5167 20.0167 29.2543 19.8333 28.963 19.7C28.671 19.5667 28.35 19.5 28 19.5C27.65 19.5 27.3293 19.5667 27.038 19.7C26.746 19.8333 26.4833 20.0167 26.25 20.25ZM23.75 17.75L22.35 16.35C23.0833 15.6167 23.9333 15.0417 24.9 14.625C25.8667 14.2083 26.9 14 28 14C29.1 14 30.1333 14.2083 31.1 14.625C32.0667 15.0417 32.9167 15.6167 33.65 16.35L32.25 17.75C31.7 17.2 31.0623 16.771 30.337 16.463C29.6123 16.1543 28.8333 16 28 16C27.1667 16 26.3877 16.1543 25.663 16.463C24.9377 16.771 24.3 17.2 23.75 17.75Z" fill="#1C1B1F"/>
</g>
</svg>
