<svg width="48" height="48" viewBox="0 0 48 48" fill="none" xmlns="http://www.w3.org/2000/svg">
<mask id="mask0_1143_9319" style="mask-type:alpha" maskUnits="userSpaceOnUse" x="12" y="12" width="24" height="24">
<rect x="12" y="12" width="24" height="24" fill="#D9D9D9"/>
</mask>
<g mask="url(#mask0_1143_9319)">
<path d="M21.5 28.5L28.5 24L21.5 19.5V28.5ZM24 34C22.6167 34 21.3167 33.7373 20.1 33.212C18.8833 32.6873 17.825 31.975 16.925 31.075C16.025 30.175 15.3127 29.1167 14.788 27.9C14.2627 26.6833 14 25.3833 14 24C14 22.6167 14.2627 21.3167 14.788 20.1C15.3127 18.8833 16.025 17.825 16.925 16.925C17.825 16.025 18.8833 15.3123 20.1 14.787C21.3167 14.2623 22.6167 14 24 14C25.3833 14 26.6833 14.2623 27.9 14.787C29.1167 15.3123 30.175 16.025 31.075 16.925C31.975 17.825 32.6873 18.8833 33.212 20.1C33.7373 21.3167 34 22.6167 34 24C34 25.3833 33.7373 26.6833 33.212 27.9C32.6873 29.1167 31.975 30.175 31.075 31.075C30.175 31.975 29.1167 32.6873 27.9 33.212C26.6833 33.7373 25.3833 34 24 34Z" fill="#1C1B1F"/>
</g>
</svg>
