<svg width="48" height="48" viewBox="0 0 48 48" fill="none" xmlns="http://www.w3.org/2000/svg">
<mask id="mask0_990_8086" style="mask-type:alpha" maskUnits="userSpaceOnUse" x="12" y="12" width="24" height="24">
<rect x="12" y="12" width="24" height="24" fill="#D9D9D9"/>
</mask>
<g mask="url(#mask0_990_8086)">
<path d="M21.9445 29.5515L21.9615 29.5687L21.98 29.5841C22.117 29.6983 22.2681 29.7905 22.4336 29.8537C22.5992 29.9178 22.7725 29.95 22.9501 29.95C23.1272 29.95 23.3003 29.9181 23.4671 29.8583C23.6503 29.7934 23.815 29.6922 23.9537 29.5536L23.6001 29.2L23.9537 29.5536L28.1537 25.3536C28.4305 25.0767 28.5751 24.7286 28.5751 24.337C28.5751 23.9382 28.4161 23.5916 28.1289 23.3212C27.8585 23.034 27.5119 22.875 27.1131 22.875C26.7088 22.875 26.3557 23.0373 26.0715 23.3214L22.9501 26.4429L21.8537 25.3464L21.846 25.3388L21.838 25.3314C21.5581 25.0749 21.2203 24.925 20.8381 24.925C20.4411 24.925 20.0982 25.0948 19.8215 25.3714C19.545 25.648 19.4001 25.9957 19.4001 26.387C19.4001 26.7781 19.5443 27.1258 19.8205 27.4025C19.8208 27.4028 19.8212 27.4032 19.8215 27.4036L21.9445 29.5515ZM26.1965 15.1536L26.1975 15.1545L30.8715 19.8036C30.8716 19.8037 30.8717 19.8038 30.8719 19.8039C31.008 19.9401 31.1067 20.0907 31.1727 20.2577C31.2428 20.4371 31.2751 20.6087 31.2751 20.775V31.875C31.2751 32.2585 31.1448 32.5732 30.8715 32.8464C30.5983 33.1197 30.2836 33.25 29.9001 33.25H18.1001C17.7166 33.25 17.4019 33.1197 17.1287 32.8464C16.8554 32.5732 16.7251 32.2585 16.7251 31.875V16.125C16.7251 15.7415 16.8554 15.4268 17.1287 15.1536C17.4019 14.8803 17.7166 14.75 18.1001 14.75H25.2251C25.4122 14.75 25.5857 14.7838 25.7494 14.85C25.9083 14.9152 26.0571 15.0141 26.1965 15.1536ZM29.9001 21.45H31.1072L30.2537 20.5964L25.4287 15.7714L24.5751 14.9179V16.125V20.025C24.5751 20.4132 24.7079 20.7649 24.9845 21.0416C25.2609 21.3179 25.6125 21.45 26.0001 21.45H29.9001Z" fill="#17141C" stroke="#17141C"/>
</g>
</svg>
