<svg width="48" height="48" viewBox="0 0 48 48" fill="none" xmlns="http://www.w3.org/2000/svg">
<mask id="mask0_990_8130" style="mask-type:alpha" maskUnits="userSpaceOnUse" x="12" y="12" width="24" height="24">
<rect x="12" y="12" width="24" height="24" fill="#D9D9D9"/>
</mask>
<g mask="url(#mask0_990_8130)">
<path d="M29.2214 22.5214C29.8771 21.8658 30.2 21.0849 30.2 20.15C30.2 19.2341 29.8787 18.4608 29.2214 17.8035C28.5658 17.1479 27.7849 16.825 26.85 16.825C26.7262 16.825 26.5984 16.8284 26.4663 16.8353C26.7118 17.2054 26.9129 17.6029 27.0692 18.0271C27.3226 18.7151 27.45 19.4236 27.45 20.15C27.45 20.8915 27.3232 21.6048 27.0685 22.2867L29.2214 22.5214ZM29.2214 22.5214C28.5658 23.177 27.7849 23.5 26.85 23.5C26.7605 23.5 26.6343 23.4922 26.467 23.4746M29.2214 22.5214L26.467 23.4746M26.467 23.4746C26.7115 23.1017 26.9121 22.7056 27.0684 22.2869L26.467 23.4746ZM14 31.0551L13.9993 31.0544C13.9115 30.9626 13.875 30.8691 13.875 30.75V29.025C13.875 28.5629 13.9894 28.148 14.2167 27.7693L14.2168 27.7691C14.4411 27.3952 14.7464 27.1164 15.1424 26.9252L15.1424 26.9252L15.1457 26.9236C16.1321 26.4385 17.1279 26.0718 18.1335 25.8222C19.1362 25.5738 20.1415 25.45 21.15 25.45C22.1759 25.45 23.1852 25.574 24.1789 25.8221C25.1757 26.0716 26.1675 26.4383 27.1543 26.9236L27.1576 26.9252C27.5536 27.1164 27.8593 27.3952 28.0843 27.7692C28.3109 28.1478 28.425 28.5628 28.425 29.025V30.75C28.425 30.8696 28.3884 30.9632 28.3012 31.0548C28.2256 31.1337 28.1378 31.175 28 31.175H14.3C14.162 31.175 14.0748 31.1336 14 31.0551ZM31.3401 31.175C31.3812 31.0224 31.4 30.863 31.4 30.7V28.85C31.4 28.018 31.1669 27.2378 30.71 26.5188L30.7097 26.5183C30.5907 26.3315 30.4597 26.1522 30.3171 25.9803C30.4489 26.0179 30.5787 26.0578 30.7065 26.0998C31.3872 26.3242 32.0303 26.5958 32.6365 26.9145C33.1575 27.2063 33.5356 27.5229 33.7922 27.8554C34.0385 28.1755 34.15 28.503 34.15 28.85V30.75C34.15 30.8619 34.1149 30.9529 34.0214 31.0464C33.928 31.1398 33.837 31.175 33.725 31.175H31.3401ZM21.15 23.525C20.2151 23.525 19.4342 23.202 18.7786 22.5464C18.1229 21.8908 17.8 21.1099 17.8 20.175C17.8 19.24 18.1229 18.4591 18.7786 17.8035C19.4342 17.1479 20.2151 16.825 21.15 16.825C22.0849 16.825 22.8658 17.1479 23.5214 17.8035C24.1771 18.4591 24.5 19.24 24.5 20.175C24.5 21.1099 24.1771 21.8908 23.5214 22.5464C22.8658 23.202 22.0849 23.525 21.15 23.525Z" fill="#17141C" stroke="#17141C"/>
</g>
</svg>
