<svg width="48" height="48" viewBox="0 0 48 48" fill="none" xmlns="http://www.w3.org/2000/svg">
<mask id="mask0_1143_9314" style="mask-type:alpha" maskUnits="userSpaceOnUse" x="12" y="12" width="24" height="24">
<rect x="12" y="12" width="24" height="24" fill="#D9D9D9"/>
</mask>
<g mask="url(#mask0_1143_9314)">
<path d="M18.5 32C16.9833 32 15.6877 31.475 14.613 30.425C13.5377 29.375 13 28.0917 13 26.575C13 25.275 13.3917 24.1167 14.175 23.1C14.9583 22.0833 15.9833 21.4333 17.25 21.15C17.6667 19.6167 18.5 18.375 19.75 17.425C21 16.475 22.4167 16 24 16C25.95 16 27.604 16.679 28.962 18.037C30.3207 19.3957 31 21.05 31 23C32.15 23.1333 33.1043 23.629 33.863 24.487C34.621 25.3457 35 26.35 35 27.5C35 28.75 34.5627 29.8127 33.688 30.688C32.8127 31.5627 31.75 32 30.5 32H18.5Z" fill="#1C1B1F"/>
</g>
</svg>
