<svg width="76" height="66" viewBox="0 0 76 66" fill="none" xmlns="http://www.w3.org/2000/svg">
<path d="M38 43C43.5229 43 48 38.5229 48 33C48 27.4772 43.5229 23 38 23C32.4772 23 28 27.4772 28 33C28 38.5229 32.4772 43 38 43Z" stroke="black" stroke-width="1.33333" stroke-linecap="round" stroke-linejoin="round"/>
<path d="M35.0938 30.0006C35.3289 29.3322 35.7929 28.7687 36.4037 28.4097C37.0145 28.0507 37.7326 27.9195 38.4309 28.0393C39.1292 28.1591 39.7626 28.5221 40.2188 29.0641C40.6751 29.6061 40.9248 30.2921 40.9237 31.0006C40.9237 33.0006 37.9237 34.0006 37.9237 34.0006" stroke="black" stroke-width="1.33333" stroke-linecap="round" stroke-linejoin="round"/>
<path d="M38 38H38.01" stroke="black" stroke-width="1.33333" stroke-linecap="round" stroke-linejoin="round"/>
</svg>
