<svg width="76" height="66" viewBox="0 0 76 66" fill="none" xmlns="http://www.w3.org/2000/svg">
<path d="M44 29C44 27.4087 43.3679 25.8826 42.2426 24.7574C41.1174 23.6321 39.5913 23 38 23C36.4087 23 34.8826 23.6321 33.7574 24.7574C32.6321 25.8826 32 27.4087 32 29C32 36 29 38 29 38H47C47 38 44 36 44 29Z" stroke="black" stroke-width="1.33333" stroke-linecap="round" stroke-linejoin="round"/>
<path d="M41 41.25C40.6951 41.7062 40.2575 42.0849 39.731 42.3482C39.2045 42.6114 38.6076 42.75 38 42.75C37.3924 42.75 36.7955 42.6114 36.269 42.3482C35.7425 42.0849 35.3049 41.7062 35 41.25" stroke="black" stroke-width="1.33333" stroke-linecap="round" stroke-linejoin="round"/>
</svg>
