<svg width="48" height="48" viewBox="0 0 48 48" fill="none" xmlns="http://www.w3.org/2000/svg">
<mask id="mask0_1131_8848" style="mask-type:alpha" maskUnits="userSpaceOnUse" x="12" y="12" width="25" height="25">
<rect x="12" y="12" width="24.0005" height="24.0005" fill="#D9D9D9"/>
</mask>
<g mask="url(#mask0_1131_8848)">
<path d="M21.7502 21.7257H29.2253C29.4253 21.7257 29.5962 21.6591 29.7378 21.5257C29.8795 21.3924 29.9503 21.2257 29.9503 21.0257C29.9503 20.809 29.8795 20.634 29.7378 20.5007C29.5962 20.3674 29.4253 20.3007 29.2253 20.3007H21.7502C21.5502 20.3007 21.3793 20.3715 21.2377 20.5132C21.096 20.6549 21.0252 20.8257 21.0252 21.0257C21.0252 21.2257 21.096 21.3924 21.2377 21.5257C21.3793 21.6591 21.5502 21.7257 21.7502 21.7257ZM21.7502 25.7008H29.2253C29.4253 25.7008 29.5962 25.6341 29.7378 25.5008C29.8795 25.3675 29.9503 25.2008 29.9503 25.0008C29.9503 24.7841 29.8795 24.6091 29.7378 24.4758C29.5962 24.3425 29.4253 24.2758 29.2253 24.2758H21.7502C21.5502 24.2758 21.3793 24.3466 21.2377 24.4883C21.096 24.63 21.0252 24.8008 21.0252 25.0008C21.0252 25.2008 21.096 25.3675 21.2377 25.5008C21.3793 25.6341 21.5502 25.7008 21.7502 25.7008ZM19.0251 21.8007C19.2584 21.8007 19.4543 21.7257 19.6126 21.5757C19.771 21.4257 19.8501 21.2424 19.8501 21.0257C19.8501 20.7924 19.771 20.5965 19.6126 20.4382C19.4543 20.2799 19.2668 20.2007 19.0501 20.2007C18.8168 20.2007 18.6251 20.2799 18.4751 20.4382C18.3251 20.5965 18.2501 20.7924 18.2501 21.0257C18.2501 21.2424 18.3251 21.4257 18.4751 21.5757C18.6251 21.7257 18.8084 21.8007 19.0251 21.8007ZM19.0251 25.7758C19.2584 25.7758 19.4543 25.7008 19.6126 25.5508C19.771 25.4008 19.8501 25.2175 19.8501 25.0008C19.8501 24.7675 19.771 24.5716 19.6126 24.4133C19.4543 24.255 19.2668 24.1758 19.0501 24.1758C18.8168 24.1758 18.6251 24.255 18.4751 24.4133C18.3251 24.5716 18.2501 24.7675 18.2501 25.0008C18.2501 25.2175 18.3251 25.4008 18.4751 25.5508C18.6251 25.7008 18.8084 25.7758 19.0251 25.7758ZM21.0502 32.876C20.8335 32.876 20.6585 32.8093 20.5251 32.676C20.3918 32.5426 20.3251 32.376 20.3251 32.176V30.9009H15.575C15.175 30.9009 14.8333 30.7593 14.55 30.4759C14.2667 30.1926 14.125 29.8509 14.125 29.4509V16.5506C14.125 16.1506 14.2667 15.8089 14.55 15.5256C14.8333 15.2423 15.175 15.1006 15.575 15.1006H32.4504C32.8337 15.1006 33.1671 15.2423 33.4504 15.5256C33.7338 15.8089 33.8754 16.1506 33.8754 16.5506V29.4509C33.8754 29.8509 33.7338 30.1926 33.4504 30.4759C33.1671 30.7593 32.8337 30.9009 32.4504 30.9009H27.6753V32.176C27.6753 32.376 27.6086 32.5426 27.4753 32.676C27.342 32.8093 27.1753 32.876 26.9753 32.876H21.0502Z" fill="white"/>
</g>
</svg>
