<svg width="24" height="24" viewBox="0 0 24 24" fill="none" xmlns="http://www.w3.org/2000/svg">
<mask id="mask0_990_7927" style="mask-type:alpha" maskUnits="userSpaceOnUse" x="0" y="0" width="24" height="24">
<rect width="24" height="24" fill="#D9D9D9"/>
</mask>
<g mask="url(#mask0_990_7927)">
<path d="M19.6 20.2929L13.6536 14.3464L13.3371 14.03L12.9877 14.3096C12.534 14.6725 12.0082 14.9632 11.4061 15.1794C10.8135 15.3921 10.1793 15.5 9.5 15.5C7.8128 15.5 6.40359 14.9215 5.24155 13.7594C4.0788 12.5967 3.5 11.1871 3.5 9.5C3.5 7.81288 4.0788 6.40331 5.24155 5.24055C6.40359 4.07852 7.8128 3.5 9.5 3.5C11.1871 3.5 12.5967 4.07846 13.7594 5.24046C14.9215 6.4032 15.5 7.8128 15.5 9.5C15.5 10.1793 15.3921 10.8135 15.1794 11.4061C14.9632 12.0082 14.6725 12.534 14.3096 12.9877L14.03 13.3371L14.3464 13.6536L20.2929 19.6L19.6 20.2929ZM13.0414 13.0417L13.0417 13.0414C14.0111 12.0713 14.5 10.881 14.5 9.5C14.5 8.11897 14.0111 6.92874 13.0417 5.95858L13.0414 5.95831C12.0713 4.9889 10.881 4.5 9.5 4.5C8.11897 4.5 6.92874 4.9889 5.95858 5.95831L5.95831 5.95858C4.9889 6.92874 4.5 8.11897 4.5 9.5C4.5 10.881 4.9889 12.0713 5.95831 13.0414L5.95858 13.0417C6.92874 14.0111 8.11897 14.5 9.5 14.5C10.881 14.5 12.0713 14.0111 13.0414 13.0417Z" stroke="#C9C9C9"/>
</g>
</svg>
