<svg width="26" height="25" viewBox="0 0 26 25" fill="none" xmlns="http://www.w3.org/2000/svg">
<path d="M14.1361 11.7576L13.1099 11.7756C12.7723 11.7793 12.4157 11.906 11.9839 12.0777C11.5521 12.2494 11.0796 12.4762 10.6627 12.7179C10.0255 13.0876 9.18472 13.8899 8.45064 14.6206C7.71652 15.3513 7.12025 16.0008 7.12025 16.0008L6.65174 16.5112L8.53973 16.866L8.6856 16.7332L14.1361 11.7576ZM11.354 13.242L8.29701 16.0341L8.19097 16.013C8.42566 15.763 8.55849 15.612 9.00977 15.1628C9.72952 14.4464 10.6146 13.6436 11.0621 13.384C11.1527 13.3315 11.2571 13.2932 11.354 13.242L11.354 13.242ZM6.91286 6.61741C6.31749 6.64659 5.72743 6.73553 5.18466 6.95567C4.17821 7.36391 3.63255 7.93825 3.13538 8.40077C2.17968 9.28988 0.462385 11.4752 0.462385 11.4752L0 12.0566L5.82528 14.2009L6.06336 13.8309L10.6197 6.77142L9.70723 6.70042C9.70723 6.70042 9.05915 6.64977 8.67182 6.63702C8.10966 6.61838 7.50826 6.58818 6.91286 6.61737V6.61741ZM8.63344 7.71975C8.65577 7.72047 8.67583 7.72219 8.70091 7.72341L5.37352 12.8787L1.82338 11.571C2.29818 10.9861 3.27652 9.75985 3.89262 9.18667C4.42571 8.69073 4.79586 8.28377 5.60395 7.95599C6.33296 7.66029 7.501 7.68144 8.63332 7.71889L8.63344 7.71975ZM18.843 15.4119L11.2265 19.5842L11.4278 20.0342L13.4924 24.6565L14.0562 24.1808C14.0562 24.1808 16.0084 22.5365 16.8966 21.7134C17.4391 21.2106 18.0792 20.5325 18.459 19.7563C18.9946 18.6616 19.1966 18.0026 19.224 16.8465C19.2352 16.3678 19.0734 15.9872 19.0734 15.9872L18.843 15.4119ZM18.0518 17.0851C18.0089 17.9125 17.9259 18.3494 17.4665 19.2882C17.1948 19.8437 16.6305 20.4713 16.1408 20.9251C15.4734 21.5437 14.4291 22.4252 13.8995 22.8746L12.6368 20.0508L18.0518 17.0851ZM20.072 0.0592754C18.5199 0.148803 16.8289 0.12243 15.216 0.684421C14.2679 1.0148 13.4125 1.56618 12.6905 2.2156C11.6388 3.16161 10.9888 4.363 10.271 5.38066C8.44598 7.96804 5.1309 13.2571 5.1309 13.2571L4.90355 13.6195L11.8226 20.4781L12.1805 20.3C12.1805 20.3 15.6104 18.5915 18.6049 16.8057C19.7388 16.1295 20.8099 15.4439 21.625 14.82C22.6685 14.0214 23.7563 13.1267 24.5116 11.9418C25.0902 11.034 25.3516 10.0094 25.5562 9.05462C25.9469 7.23112 26.034 5.36073 25.9894 3.53087C25.9648 2.52103 25.8316 1.59126 25.61 0.540963L25.5285 0.160441L25.1352 0.113582C24.0539 -0.0120515 21.7618 -0.0383231 20.0719 0.059238L20.072 0.0592754ZM20.1365 1.14047C21.6124 1.05548 23.5446 1.09924 24.5853 1.18411C24.7424 2.00598 24.8686 2.76581 24.8879 3.55793C24.9312 5.33649 24.8454 7.12258 24.4793 8.83103C24.2819 9.75218 24.0359 10.6512 23.5791 11.3679C22.9466 12.3602 21.9665 13.1854 20.9476 13.9652C20.1936 14.5422 19.1473 15.2156 18.0334 15.8799C15.2525 17.5384 12.3713 18.9752 12.03 19.1461L6.30148 13.4669C6.58211 13.0202 9.47724 8.4048 11.1758 5.99664C11.9413 4.91144 12.5653 3.79577 13.434 3.0143C14.0642 2.44747 14.8054 1.97516 15.5847 1.7036C16.9517 1.22728 18.5325 1.23284 20.1365 1.14032V1.14047ZM5.49958 12.9249L3.50254 16.7815L9.02672 21.8946L12.8657 19.9542L12.3157 19.4287L5.49958 12.9249ZM5.80377 14.7233L10.9992 19.6808L9.21412 20.5823L4.85748 16.5505L5.80377 14.7233ZM18.6449 3.68795C16.8156 3.68795 15.3236 5.15446 15.3236 6.95264C15.3236 8.75083 16.8156 10.2189 18.6449 10.2189C20.4742 10.2189 21.9676 8.75083 21.9676 6.95264C21.9676 5.15446 20.4742 3.68795 18.6449 3.68795ZM18.6449 4.61509C19.9641 4.61509 21.0244 5.65587 21.0244 6.95264C21.0244 8.24942 19.9641 9.29172 18.6449 9.29172C17.3256 9.29172 16.2668 8.24942 16.2668 6.95264C16.2668 5.65587 17.3256 4.61509 18.6449 4.61509ZM3.22105 18.2934C3.07693 18.2652 2.90231 18.2607 2.7341 18.378L2.72112 18.3878C2.18889 18.8017 1.60842 19.356 1.06816 19.9446L1.06569 19.9471L1.06317 19.9495C0.831735 20.2166 0.8994 20.6065 1.15688 20.8616C1.4282 21.1305 1.80532 21.1689 2.08321 20.9538L2.08572 20.9513L2.08945 20.9489C2.64451 20.4882 3.16308 20.0483 3.73933 19.3935L3.74055 19.3923L3.7418 19.3898C3.90509 19.1978 3.86446 19.0038 3.82328 18.8613C3.78224 18.7192 3.72234 18.6003 3.6082 18.4898C3.49316 18.3786 3.36368 18.3232 3.21956 18.295L3.22105 18.2934ZM3.10115 18.8899C3.07719 18.9043 3.06947 18.9009 3.09742 18.9065C3.12948 18.9139 3.17229 18.9409 3.16493 18.9336C3.15494 18.9238 3.19921 18.9857 3.21256 19.029C2.69009 19.6145 2.22037 20.0206 1.68867 20.462C1.73721 20.4232 1.65308 20.4657 1.60879 20.4229C1.53443 20.3494 1.58223 20.3161 1.5473 20.3566C2.06228 19.7961 2.61525 19.2704 3.10191 18.8904L3.10115 18.8899ZM4.97532 20.1357C4.80883 20.1032 4.61089 20.0994 4.42689 20.2278L4.41939 20.2314L4.41193 20.2351C3.74941 20.7502 3.02242 21.4429 2.34726 22.1786L2.34479 22.181L2.34353 22.1847C2.08725 22.4806 2.15604 22.9237 2.4557 23.2206C2.7673 23.5294 3.20508 23.5661 3.51107 23.3294L3.5148 23.3269L3.51731 23.3232C4.21304 22.7458 4.85854 22.1995 5.57733 21.3828L5.57859 21.3804L5.57984 21.3792C5.7551 21.1731 5.71385 20.9549 5.66593 20.7887C5.61802 20.6226 5.54526 20.4806 5.41704 20.3569C5.28851 20.2331 5.13759 20.1674 4.97156 20.1349L4.97532 20.1357ZM4.79713 20.7366C4.7723 20.7541 4.79768 20.7379 4.8509 20.7494C4.90554 20.7604 4.96892 20.7977 4.97529 20.8037H4.97654C4.97904 20.8062 5.03869 20.8939 5.05802 20.9608C5.07724 21.0276 5.03942 21.0458 5.09644 20.9788C4.41239 21.7555 3.80617 22.2709 3.11783 22.8422C3.1434 22.8215 2.99392 22.8675 2.90891 22.7833C2.79238 22.6679 2.83892 22.5817 2.82906 22.5931C3.47996 21.8845 4.17938 21.2186 4.79694 20.7372L4.79713 20.7366ZM6.8203 21.9009C6.67618 21.8727 6.50152 21.8678 6.33331 21.9855L6.32033 21.9953C5.7881 22.4092 5.20768 22.9635 4.66741 23.5522L4.6649 23.5546L4.66242 23.5571C4.43095 23.8242 4.49865 24.214 4.75613 24.4692C5.02744 24.738 5.40457 24.7764 5.68246 24.5613L5.68493 24.5588L5.68866 24.5564C6.24373 24.0957 6.7623 23.6558 7.33858 23.0011L7.33983 22.9986L7.34105 22.9974C7.50432 22.8054 7.46219 22.6114 7.4209 22.4688C7.37985 22.3262 7.32223 22.2066 7.20737 22.0958C7.09234 21.9844 6.96284 21.9308 6.81874 21.9026L6.8203 21.9009ZM6.7004 22.4974C6.67644 22.5118 6.66868 22.5084 6.69663 22.5139C6.72869 22.5213 6.7715 22.5466 6.76414 22.5397V22.5409C6.75415 22.5311 6.79846 22.5929 6.81181 22.6361C6.28937 23.2217 5.81957 23.6278 5.28788 24.0691C5.33654 24.0304 5.25097 24.0728 5.20656 24.03C5.1322 23.9564 5.18147 23.9233 5.14666 23.9636C5.66163 23.4031 6.21465 22.8774 6.70131 22.4974H6.7004Z" fill="url(#paint0_linear_208_8432)"/>
<defs>
<linearGradient id="paint0_linear_208_8432" x1="-5.57041" y1="10.4253" x2="12.5435" y2="-5.48136" gradientUnits="userSpaceOnUse">
<stop stop-color="#35B8FA"/>
<stop offset="1" stop-color="#AC2DFE"/>
</linearGradient>
</defs>
</svg>
