<svg width="66" height="66" viewBox="0 0 66 66" fill="none" xmlns="http://www.w3.org/2000/svg">
<path d="M33 36.25C34.7949 36.25 36.25 34.7949 36.25 33C36.25 31.2051 34.7949 29.75 33 29.75C31.2051 29.75 29.75 31.2051 29.75 33C29.75 34.7949 31.2051 36.25 33 36.25Z" stroke="black" stroke-width="1.33333" stroke-linecap="round" stroke-linejoin="round"/>
<path d="M41.0193 36.2487C40.8751 36.5754 40.832 36.9379 40.8958 37.2893C40.9595 37.6408 41.127 37.965 41.3768 38.2204L41.4418 38.2854C41.6432 38.4866 41.803 38.7255 41.9121 38.9886C42.0211 39.2516 42.0772 39.5335 42.0772 39.8183C42.0772 40.103 42.0211 40.385 41.9121 40.648C41.803 40.911 41.6432 41.15 41.4418 41.3512C41.2405 41.5526 41.0016 41.7125 40.7386 41.8215C40.4755 41.9305 40.1936 41.9867 39.9089 41.9867C39.6241 41.9867 39.3422 41.9305 39.0791 41.8215C38.8161 41.7125 38.5772 41.5526 38.3759 41.3512L38.3109 41.2862C38.0556 41.0364 37.7313 40.8689 37.3799 40.8052C37.0285 40.7415 36.666 40.7845 36.3393 40.9287C36.0189 41.066 35.7456 41.294 35.5531 41.5847C35.3606 41.8753 35.2573 42.2159 35.2559 42.5645V42.7487C35.2559 43.3233 35.0277 43.8744 34.6213 44.2808C34.215 44.6871 33.6639 44.9154 33.0893 44.9154C32.5146 44.9154 31.9635 44.6871 31.5572 44.2808C31.1509 43.8744 30.9226 43.3233 30.9226 42.7487V42.6512C30.9142 42.2926 30.7981 41.9449 30.5895 41.6531C30.3808 41.3614 30.0892 41.1392 29.7526 41.0154C29.4259 40.8712 29.0634 40.8281 28.712 40.8919C28.3605 40.9556 28.0363 41.1231 27.7809 41.3729L27.7159 41.4379C27.5147 41.6393 27.2758 41.7991 27.0127 41.9082C26.7497 42.0172 26.4678 42.0733 26.183 42.0733C25.8983 42.0733 25.6163 42.0172 25.3533 41.9082C25.0903 41.7991 24.8513 41.6393 24.6501 41.4379C24.4487 41.2366 24.2888 40.9977 24.1798 40.7347C24.0708 40.4716 24.0146 40.1897 24.0146 39.9049C24.0146 39.6202 24.0708 39.3383 24.1798 39.0752C24.2888 38.8122 24.4487 38.5733 24.6501 38.372L24.7151 38.307C24.9649 38.0517 25.1324 37.7274 25.1961 37.376C25.2598 37.0246 25.2168 36.6621 25.0726 36.3354C24.9353 36.0149 24.7073 35.7417 24.4166 35.5492C24.126 35.3567 23.7854 35.2534 23.4368 35.252H23.2526C22.678 35.252 22.1269 35.0238 21.7205 34.6174C21.3142 34.2111 21.0859 33.66 21.0859 33.0854C21.0859 32.5107 21.3142 31.9596 21.7205 31.5533C22.1269 31.147 22.678 30.9187 23.2526 30.9187H23.3501C23.7087 30.9103 24.0564 30.7942 24.3482 30.5856C24.6399 30.3769 24.8621 30.0853 24.9859 29.7487C25.1301 29.4219 25.1732 29.0595 25.1094 28.7081C25.0457 28.3566 24.8782 28.0323 24.6284 27.777L24.5634 27.712C24.362 27.5108 24.2022 27.2718 24.0931 27.0088C23.9841 26.7458 23.928 26.4638 23.928 26.1791C23.928 25.8944 23.9841 25.6124 24.0931 25.3494C24.2022 25.0864 24.362 24.8474 24.5634 24.6462C24.7647 24.4447 25.0036 24.2849 25.2666 24.1759C25.5297 24.0669 25.8116 24.0107 26.0964 24.0107C26.3811 24.0107 26.663 24.0669 26.9261 24.1759C27.1891 24.2849 27.428 24.4447 27.6293 24.6462L27.6943 24.7112C27.9496 24.9609 28.2739 25.1285 28.6253 25.1922C28.9767 25.2559 29.3392 25.2129 29.6659 25.0687H29.7526C30.073 24.9314 30.3463 24.7033 30.5388 24.4127C30.7313 24.1221 30.8345 23.7815 30.8359 23.4329V23.2487C30.8359 22.6741 31.0642 22.123 31.4705 21.7166C31.8769 21.3103 32.428 21.082 33.0026 21.082C33.5772 21.082 34.1283 21.3103 34.5347 21.7166C34.941 22.123 35.1693 22.6741 35.1693 23.2487V23.3462C35.1707 23.6948 35.274 24.0354 35.4664 24.326C35.6589 24.6167 35.9322 24.8447 36.2526 24.982C36.5794 25.1262 36.9418 25.1693 37.2932 25.1055C37.6447 25.0418 37.969 24.8743 38.2243 24.6245L38.2893 24.5595C38.4905 24.3581 38.7295 24.1983 38.9925 24.0892C39.2555 23.9802 39.5375 23.9241 39.8222 23.9241C40.1069 23.9241 40.3889 23.9802 40.6519 24.0892C40.9149 24.1983 41.1539 24.3581 41.3551 24.5595C41.5566 24.7608 41.7164 24.9997 41.8254 25.2627C41.9344 25.5258 41.9906 25.8077 41.9906 26.0924C41.9906 26.3772 41.9344 26.6591 41.8254 26.9222C41.7164 27.1852 41.5566 27.4241 41.3551 27.6254L41.2901 27.6904C41.0404 27.9457 40.8728 28.27 40.8091 28.6214C40.7454 28.9728 40.7884 29.3353 40.9326 29.662V29.7487C41.0699 30.0691 41.298 30.3424 41.5886 30.5349C41.8792 30.7273 42.2198 30.8306 42.5684 30.832H42.7526C43.3272 30.832 43.8783 31.0603 44.2847 31.4666C44.691 31.873 44.9193 32.4241 44.9193 32.9987C44.9193 33.5733 44.691 34.1244 44.2847 34.5308C43.8783 34.9371 43.3272 35.1654 42.7526 35.1654H42.6551C42.3065 35.1668 41.9659 35.27 41.6753 35.4625C41.3846 35.655 41.1566 35.9283 41.0193 36.2487V36.2487Z" stroke="black" stroke-width="1.33333" stroke-linecap="round" stroke-linejoin="round"/>
</svg>
