<svg width="24" height="24" viewBox="0 0 24 24" fill="none" xmlns="http://www.w3.org/2000/svg">
<mask id="mask0_762_5298" style="mask-type:alpha" maskUnits="userSpaceOnUse" x="0" y="0" width="24" height="24">
<rect width="24" height="24" fill="#D9D9D9"/>
</mask>
<g mask="url(#mask0_762_5298)">
<path d="M7.0751 20.75C6.55843 20.75 6.11676 20.5667 5.7501 20.2C5.38343 19.8333 5.2001 19.3917 5.2001 18.875V6.075H5.1751C4.90843 6.075 4.68343 5.98333 4.5001 5.8C4.31676 5.61667 4.2251 5.39167 4.2251 5.125C4.2251 4.875 4.31676 4.65833 4.5001 4.475C4.68343 4.29167 4.90843 4.2 5.1751 4.2H9.0501C9.0501 3.93333 9.14176 3.70833 9.3251 3.525C9.50843 3.34167 9.7251 3.25 9.9751 3.25H14.0501C14.3168 3.25 14.5378 3.34167 14.7131 3.525C14.8878 3.70833 14.9751 3.93333 14.9751 4.2H18.8751C19.1251 4.2 19.3418 4.29167 19.5251 4.475C19.7084 4.65833 19.8001 4.875 19.8001 5.125C19.8001 5.39167 19.7084 5.61667 19.5251 5.8C19.3418 5.98333 19.1251 6.075 18.8751 6.075H18.8251V18.875C18.8251 19.3917 18.6418 19.8333 18.2751 20.2C17.9084 20.5667 17.4668 20.75 16.9501 20.75H7.0751ZM9.1251 15.975C9.1251 16.225 9.21676 16.4417 9.4001 16.625C9.58343 16.8083 9.80843 16.9 10.0751 16.9C10.3251 16.9 10.5418 16.8083 10.7251 16.625C10.9084 16.4417 11.0001 16.225 11.0001 15.975V8.975C11.0001 8.70833 10.9084 8.48333 10.7251 8.3C10.5418 8.11667 10.3251 8.025 10.0751 8.025C9.80843 8.025 9.58343 8.11667 9.4001 8.3C9.21676 8.48333 9.1251 8.70833 9.1251 8.975V15.975ZM13.0251 15.975C13.0251 16.225 13.1168 16.4417 13.3001 16.625C13.4834 16.8083 13.7084 16.9 13.9751 16.9C14.2251 16.9 14.4418 16.8083 14.6251 16.625C14.8084 16.4417 14.9001 16.225 14.9001 15.975V8.975C14.9001 8.70833 14.8084 8.48333 14.6251 8.3C14.4418 8.11667 14.2251 8.025 13.9751 8.025C13.7084 8.025 13.4834 8.11667 13.3001 8.3C13.1168 8.48333 13.0251 8.70833 13.0251 8.975V15.975Z" fill="white"/>
</g>
</svg>
