<svg width="24" height="24" viewBox="0 0 24 24" fill="none" xmlns="http://www.w3.org/2000/svg">
<mask id="mask0_990_7985" style="mask-type:alpha" maskUnits="userSpaceOnUse" x="0" y="0" width="24" height="24">
<rect width="24" height="24" fill="#D9D9D9"/>
</mask>
<g mask="url(#mask0_990_7985)">
<path d="M19.3911 8.72316L19.3898 8.7244C19.3182 8.79627 19.2368 8.83333 19.1111 8.83333H13.7778C13.6521 8.83333 13.5707 8.79627 13.4991 8.72439L13.4978 8.72317C13.426 8.65154 13.3889 8.5701 13.3889 8.44444V4.88889C13.3889 4.76322 13.426 4.68111 13.4984 4.60866C13.5699 4.53717 13.6516 4.5 13.7778 4.5H19.1111C19.2373 4.5 19.3189 4.53717 19.3904 4.60866C19.4629 4.68111 19.5 4.76322 19.5 4.88889V8.44444C19.5 8.5701 19.4629 8.65154 19.3911 8.72316ZM4.61017 12.2799L4.60894 12.2787C4.53706 12.2071 4.5 12.1257 4.5 12V4.88889C4.5 4.76322 4.5371 4.68111 4.60955 4.60866C4.68105 4.53717 4.76269 4.5 4.88889 4.5H10.2222C10.3481 4.5 10.4303 4.53699 10.5024 4.60867C10.5741 4.68084 10.6111 4.76303 10.6111 4.88889V12C10.6111 12.1262 10.5739 12.2078 10.5024 12.2793C10.43 12.3518 10.3479 12.3889 10.2222 12.3889H4.88889C4.76324 12.3889 4.68179 12.3518 4.61017 12.2799ZM19.3911 19.3898L19.3898 19.3911C19.3182 19.4629 19.2368 19.5 19.1111 19.5H13.7778C13.6521 19.5 13.5707 19.4629 13.4991 19.3911L13.4978 19.3898C13.426 19.3182 13.3889 19.2368 13.3889 19.1111V12C13.3889 11.8743 13.426 11.7922 13.4984 11.7198C13.5699 11.6483 13.6516 11.6111 13.7778 11.6111H19.1111C19.2373 11.6111 19.3189 11.6483 19.3904 11.7198C19.4629 11.7922 19.5 11.8743 19.5 12V19.1111C19.5 19.2368 19.4629 19.3182 19.3911 19.3898ZM4.61017 19.3911L4.60894 19.3898C4.53706 19.3182 4.5 19.2368 4.5 19.1111V15.5556C4.5 15.4299 4.5371 15.3478 4.60955 15.2753C4.68105 15.2038 4.76269 15.1667 4.88889 15.1667H10.2222C10.3481 15.1667 10.4303 15.2037 10.5025 15.2754C10.5741 15.3475 10.6111 15.4297 10.6111 15.5556V19.1111C10.6111 19.2373 10.5739 19.3189 10.5024 19.3904C10.43 19.4629 10.3479 19.5 10.2222 19.5H4.88889C4.76324 19.5 4.68179 19.4629 4.61017 19.3911Z" fill="#17141C" stroke="#17141C"/>
</g>
</svg>
