<svg width="24" height="24" viewBox="0 0 24 24" fill="none" xmlns="http://www.w3.org/2000/svg">
<mask id="mask0_1150_9336" style="mask-type:alpha" maskUnits="userSpaceOnUse" x="0" y="0" width="24" height="24">
<rect width="24" height="24" fill="#D9D9D9"/>
</mask>
<g mask="url(#mask0_1150_9336)">
<path d="M5.87023 18.1246L5.87062 18.1248C6.06082 18.2175 6.24262 18.259 6.42051 18.259H17.5795C17.7749 18.259 17.9582 18.2157 18.1354 18.1271C18.297 18.0463 18.4156 17.935 18.5024 17.7875C18.8499 17.1953 19.1014 16.5952 19.2602 15.9867L5.87023 18.1246ZM5.87023 18.1246C5.70258 18.0432 5.58379 17.9327 5.49936 17.7904M5.87023 18.1246L5.49936 17.7904M5.49936 17.7904C5.17902 17.226 4.93246 16.6297 4.75942 16.0007L4.75932 16.0003C4.58732 15.377 4.5 14.7109 4.5 14C4.5 12.958 4.699 11.9871 5.09412 11.0821C5.49391 10.1665 6.0334 9.37114 6.71253 8.69201C7.39101 8.01353 8.18538 7.47779 9.09981 7.08468C10.0062 6.69557 10.9713 6.5 12 6.5C13.0431 6.5 14.0149 6.69587 14.9205 7.08459C15.835 7.4777 16.6294 8.01348 17.308 8.69201C17.9865 9.37055 18.5223 10.165 18.9154 11.0795C19.3041 11.9851 19.5 12.9569 19.5 14C19.5 14.7141 19.419 15.3756 19.2602 15.9866L5.49936 17.7904ZM10.4079 15.5354L10.4156 15.5434L10.4236 15.5511C10.8463 15.9553 11.3877 16.141 12 16.141C12.6365 16.141 13.1809 15.9074 13.5245 15.3838L16.9265 10.3014C17.0319 10.1479 17.1121 9.95024 17.0931 9.72258C17.0739 9.4918 16.9593 9.3086 16.8253 9.17465C16.6914 9.0407 16.5082 8.92609 16.2774 8.90686C16.0498 8.88788 15.8521 8.96813 15.6986 9.07354L10.6163 12.4754C10.1018 12.8129 9.85602 13.3406 9.83865 13.9656C9.8218 14.5723 10.0023 15.1113 10.4079 15.5354Z" fill="#17141C" stroke="#17141C"/>
</g>
</svg>
