<svg width="48" height="48" viewBox="0 0 48 48" fill="none" xmlns="http://www.w3.org/2000/svg">
<mask id="mask0_1139_9331" style="mask-type:alpha" maskUnits="userSpaceOnUse" x="12" y="12" width="25" height="25">
<rect x="12" y="12" width="24.0005" height="24.0005" fill="#D9D9D9"/>
</mask>
<g mask="url(#mask0_1139_9331)">
<path d="M21.7502 21.7255H29.2253C29.4253 21.7255 29.5962 21.6588 29.7378 21.5255C29.8795 21.3921 29.9503 21.2255 29.9503 21.0255C29.9503 20.8088 29.8795 20.6338 29.7378 20.5005C29.5962 20.3671 29.4253 20.3005 29.2253 20.3005H21.7502C21.5502 20.3005 21.3793 20.3713 21.2377 20.513C21.096 20.6546 21.0252 20.8255 21.0252 21.0255C21.0252 21.2255 21.096 21.3921 21.2377 21.5255C21.3793 21.6588 21.5502 21.7255 21.7502 21.7255ZM21.7502 25.7006H29.2253C29.4253 25.7006 29.5962 25.6339 29.7378 25.5006C29.8795 25.3672 29.9503 25.2006 29.9503 25.0006C29.9503 24.7839 29.8795 24.6089 29.7378 24.4755C29.5962 24.3422 29.4253 24.2755 29.2253 24.2755H21.7502C21.5502 24.2755 21.3793 24.3464 21.2377 24.488C21.096 24.6297 21.0252 24.8006 21.0252 25.0006C21.0252 25.2006 21.096 25.3672 21.2377 25.5006C21.3793 25.6339 21.5502 25.7006 21.7502 25.7006ZM19.0251 21.8005C19.2584 21.8005 19.4543 21.7255 19.6126 21.5755C19.771 21.4255 19.8501 21.2421 19.8501 21.0255C19.8501 20.7921 19.771 20.5963 19.6126 20.438C19.4543 20.2796 19.2668 20.2005 19.0501 20.2005C18.8168 20.2005 18.6251 20.2796 18.4751 20.438C18.3251 20.5963 18.2501 20.7921 18.2501 21.0255C18.2501 21.2421 18.3251 21.4255 18.4751 21.5755C18.6251 21.7255 18.8084 21.8005 19.0251 21.8005ZM19.0251 25.7756C19.2584 25.7756 19.4543 25.7006 19.6126 25.5506C19.771 25.4006 19.8501 25.2172 19.8501 25.0006C19.8501 24.7672 19.771 24.5714 19.6126 24.413C19.4543 24.2547 19.2668 24.1755 19.0501 24.1755C18.8168 24.1755 18.6251 24.2547 18.4751 24.413C18.3251 24.5714 18.2501 24.7672 18.2501 25.0006C18.2501 25.2172 18.3251 25.4006 18.4751 25.5506C18.6251 25.7006 18.8084 25.7756 19.0251 25.7756ZM21.0502 32.8757C20.8335 32.8757 20.6585 32.8091 20.5251 32.6757C20.3918 32.5424 20.3251 32.3757 20.3251 32.1757V30.9007H15.575C15.175 30.9007 14.8333 30.759 14.55 30.4757C14.2667 30.1923 14.125 29.8507 14.125 29.4507V16.5504C14.125 16.1504 14.2667 15.8087 14.55 15.5254C14.8333 15.242 15.175 15.1003 15.575 15.1003H32.4504C32.8337 15.1003 33.1671 15.242 33.4504 15.5254C33.7338 15.8087 33.8754 16.1504 33.8754 16.5504V29.4507C33.8754 29.8507 33.7338 30.1923 33.4504 30.4757C33.1671 30.759 32.8337 30.9007 32.4504 30.9007H27.6753V32.1757C27.6753 32.3757 27.6086 32.5424 27.4753 32.6757C27.342 32.8091 27.1753 32.8757 26.9753 32.8757H21.0502Z" fill="#17141C"/>
</g>
</svg>
