<svg width="24" height="24" viewBox="0 0 24 24" fill="none" xmlns="http://www.w3.org/2000/svg">
<mask id="mask0_1150_9348" style="mask-type:alpha" maskUnits="userSpaceOnUse" x="0" y="0" width="24" height="24">
<rect width="24" height="24" fill="#D9D9D9"/>
</mask>
<g mask="url(#mask0_1150_9348)">
<path d="M8.36364 14C8.9697 14 9.48485 13.8056 9.90909 13.4167C10.3333 13.0278 10.5455 12.5556 10.5455 12C10.5455 11.4444 10.3333 10.9722 9.90909 10.5833C9.48485 10.1944 8.9697 10 8.36364 10C7.75758 10 7.24242 10.1944 6.81818 10.5833C6.39394 10.9722 6.18182 11.4444 6.18182 12C6.18182 12.5556 6.39394 13.0278 6.81818 13.4167C7.24242 13.8056 7.75758 14 8.36364 14ZM8.36364 16C7.15152 16 6.12121 15.6111 5.27273 14.8333C4.42424 14.0556 4 13.1111 4 12C4 10.8889 4.42424 9.94444 5.27273 9.16667C6.12121 8.38889 7.15152 8 8.36364 8C9.34545 8 10.2032 8.25556 10.9367 8.76667C11.6698 9.27778 12.1818 9.91111 12.4727 10.6667H18.5455L20 11.9667L17.0909 14.6667L15.6364 13.3333L14.1818 14.6667L12.7273 13.3333H12.4727C12.1697 14.1333 11.6424 14.7778 10.8909 15.2667C10.1394 15.7556 9.29697 16 8.36364 16Z" fill="#1C1B1F"/>
</g>
</svg>
