<svg width="24" height="24" viewBox="0 0 24 24" fill="none" xmlns="http://www.w3.org/2000/svg">
<mask id="mask0_990_8004" style="mask-type:alpha" maskUnits="userSpaceOnUse" x="0" y="0" width="24" height="24">
<rect width="24" height="24" fill="#D9D9D9"/>
</mask>
<g mask="url(#mask0_990_8004)">
<path d="M17.6203 7.91979V11.0695H17.2166V7.88235V7.38235H16.7166H15.1818H14.6818V7.88235V8.63102C14.6818 8.88467 14.5976 9.08832 14.4165 9.26944C14.2354 9.45057 14.0317 9.53476 13.7781 9.53476H9.34225C9.08859 9.53476 8.88495 9.45057 8.70382 9.26944C8.5227 9.08832 8.4385 8.88468 8.4385 8.63102V7.88235V7.38235H7.9385H6.40374H5.90374V7.88235V18.1952V18.6952H6.40374H10.3209V19.0989H6.44118C6.17366 19.0989 5.9609 19.0107 5.77431 18.8246C5.58819 18.6381 5.5 18.4253 5.5 18.1578V7.91979C5.5 7.6317 5.59071 7.41854 5.76532 7.24393C5.95748 7.05177 6.14615 6.97861 6.34759 6.97861H9.51069H9.88785L9.99146 6.61597C10.0843 6.29115 10.2685 6.02856 10.5615 5.81737L10.5617 5.81719C10.8609 5.60127 11.1741 5.5 11.5134 5.5C11.8836 5.5 12.2038 5.60478 12.4904 5.81497C12.7774 6.02542 12.9604 6.28846 13.054 6.61597L13.1576 6.97861H13.5348H16.6791C16.9672 6.97861 17.1804 7.06932 17.355 7.24393C17.5296 7.41854 17.6203 7.6317 17.6203 7.91979ZM13.7801 17.2011L14.1337 17.5547L14.4872 17.2011L18.1557 13.5327C18.1994 13.489 18.2378 13.4733 18.2985 13.4733C18.3583 13.4733 18.3966 13.4887 18.4406 13.5327C18.4846 13.5767 18.5 13.6149 18.5 13.6748C18.5 13.7355 18.4843 13.7738 18.4406 13.8176L14.2668 17.9914C14.2194 18.0387 14.1829 18.0508 14.1337 18.0508C14.0845 18.0508 14.048 18.0387 14.0006 17.9914L11.8961 15.8868C11.8628 15.8478 11.8449 15.8047 11.8449 15.7336C11.8449 15.6738 11.8603 15.6355 11.9044 15.5915C11.9481 15.5478 11.9865 15.5321 12.0472 15.5321C12.106 15.5321 12.1284 15.5461 12.1541 15.5743L12.1621 15.5831L12.1705 15.5915L13.7801 17.2011ZM11.5695 8.30749C11.8947 8.30749 12.1826 8.1823 12.4097 7.95516C12.6437 7.72118 12.762 7.42428 12.762 7.09626C12.762 6.77109 12.6368 6.48321 12.4097 6.25607C12.1826 6.02893 11.8947 5.90374 11.5695 5.90374C11.2415 5.90374 10.9446 6.0221 10.7106 6.25607C10.4835 6.48321 10.3583 6.77109 10.3583 7.09626C10.3583 7.42428 10.4766 7.72118 10.7106 7.95516C10.9446 8.18913 11.2415 8.30749 11.5695 8.30749Z" fill="#17141C" stroke="#17141C"/>
</g>
</svg>
