<svg width="24" height="24" viewBox="0 0 24 24" fill="none" xmlns="http://www.w3.org/2000/svg">
<mask id="mask0_1150_9362" style="mask-type:alpha" maskUnits="userSpaceOnUse" x="0" y="0" width="24" height="24">
<rect width="24" height="24" fill="#D9D9D9"/>
</mask>
<g mask="url(#mask0_1150_9362)">
<path d="M4.96572 7.40382C4.86186 7.62964 4.7736 7.86148 4.70083 8.09944L4.70066 8.1C4.56792 8.53225 4.5 8.99709 4.5 9.49708C4.5 10.8773 4.9817 12.0407 5.95636 13.0153C6.93034 13.9893 8.09338 14.4708 9.47368 14.4708C9.80341 14.4708 10.1105 14.4421 10.396 14.3864C10.6837 14.3302 10.9692 14.2457 11.2529 14.1323L11.5598 14.0095L11.793 14.2438L16.4705 18.9447C16.4706 18.9448 16.4707 18.9449 16.4708 18.945C16.6651 19.1392 16.8606 19.2701 17.0559 19.3505C17.2586 19.434 17.4744 19.4766 17.7076 19.4766C17.9407 19.4766 18.1623 19.434 18.376 19.3487L4.96572 7.40382ZM4.96572 7.40382L7.83358 10.2717L8.18474 10.6228L8.53828 10.2741L10.2693 8.56648L10.6276 8.21294L10.2717 7.85697L7.3925 4.97779C7.6222 4.86667 7.85786 4.7741 8.09963 4.69984C8.53335 4.56723 8.99066 4.5 9.47368 4.5C10.8711 4.5 12.0419 4.98254 13.0154 5.95553C13.9883 6.92905 14.4708 8.09974 14.4708 9.49708C14.4708 9.82681 14.4421 10.1335 14.3865 10.4183L14.3864 10.4185C14.3302 10.7068 14.2457 10.9926 14.1323 11.2763L14.0088 11.5849L14.2456 11.8182L18.9629 16.4655C19.1435 16.6603 19.2763 16.8611 19.3676 17.0673C19.4555 17.2673 19.5 17.4792 19.5 17.7076C19.5 17.9362 19.4554 18.1595 19.3634 18.3809C19.2727 18.5978 19.1439 18.7907 18.9741 18.962C18.7834 19.1387 18.5841 19.2653 18.3764 19.3486L4.96572 7.40382Z" fill="white" stroke="white"/>
</g>
</svg>
