<svg width="24" height="24" viewBox="0 0 24 24" fill="none" xmlns="http://www.w3.org/2000/svg">
<mask id="mask0_1150_9366" style="mask-type:alpha" maskUnits="userSpaceOnUse" x="0" y="0" width="24" height="24">
<rect width="24" height="24" fill="#D9D9D9"/>
</mask>
<g mask="url(#mask0_1150_9366)">
<path d="M8.12791 15.133L8.13019 15.1308L9.70967 13.5308L10.0587 13.1772L9.7074 12.8259L8.1074 11.2259C8.04686 11.1654 8.02821 11.1133 8.02821 11.0462C8.02821 10.994 8.04158 10.9462 8.11222 10.8814L8.12023 10.8741L8.12791 10.8664C8.19212 10.8022 8.25061 10.7794 8.32368 10.7771L8.32502 10.777C8.3706 10.7755 8.41135 10.784 8.47245 10.8507L8.4806 10.8596L8.48917 10.8681L10.6235 12.9821C10.6531 13.0202 10.6713 13.0534 10.6824 13.0817C10.6942 13.1133 10.7 13.1449 10.7 13.1795C10.7 13.2144 10.6941 13.2457 10.6825 13.2765C10.6713 13.3052 10.6531 13.3388 10.6235 13.3769L8.48917 15.4909L8.47986 15.5001L8.47106 15.5098C8.43341 15.5512 8.39577 15.5718 8.31836 15.5718C8.23908 15.5718 8.18482 15.5495 8.12791 15.4926C8.06737 15.4321 8.04872 15.3799 8.04872 15.3128C8.04872 15.2457 8.06737 15.1936 8.12791 15.133ZM5.03846 17.2205V17.7205H5.53846H18.4615H18.9615V17.2205V9.13846V8.63846H18.4615H5.53846H5.03846V9.13846V17.2205ZM12.8205 15.9C12.7534 15.9 12.7013 15.8813 12.6407 15.8208C12.5802 15.7603 12.5615 15.7082 12.5615 15.641C12.5615 15.5506 12.587 15.4944 12.6407 15.4407C12.7013 15.3802 12.7534 15.3615 12.8205 15.3615H16.1026C16.193 15.3615 16.2491 15.387 16.3029 15.4407C16.3566 15.4944 16.3821 15.5506 16.3821 15.641C16.3821 15.7082 16.3634 15.7603 16.3029 15.8208C16.2491 15.8745 16.193 15.9 16.1026 15.9H12.8205ZM5.53846 18.259C5.24768 18.259 5.01231 18.1616 4.80484 17.9541C4.59737 17.7467 4.5 17.5113 4.5 17.2205V7.53846C4.5 7.24768 4.59737 7.01231 4.80484 6.80484C5.01231 6.59737 5.24768 6.5 5.53846 6.5H18.4615C18.7523 6.5 18.9877 6.59737 19.1952 6.80484C19.4026 7.01231 19.5 7.24768 19.5 7.53846V17.2205C19.5 17.5113 19.4026 17.7467 19.1952 17.9541C18.9877 18.1616 18.7523 18.259 18.4615 18.259H5.53846Z" fill="white" stroke="white"/>
</g>
</svg>
