<svg width="24" height="24" viewBox="0 0 24 24" fill="none" xmlns="http://www.w3.org/2000/svg">
<mask id="mask0_1150_9389" style="mask-type:alpha" maskUnits="userSpaceOnUse" x="0" y="0" width="24" height="24">
<rect width="24" height="24" fill="#D9D9D9"/>
</mask>
<g mask="url(#mask0_1150_9389)">
<path d="M4.53806 18.3898L4.53743 18.3887C4.48849 18.3027 4.48399 18.2424 4.54522 18.1366L4.54535 18.1364L11.7852 5.61656C11.838 5.53195 11.8914 5.5 12.0066 5.5C12.079 5.5 12.1143 5.51465 12.1308 5.5241C12.1463 5.53292 12.1709 5.55166 12.1994 5.60299L12.1994 5.60303L12.204 5.61099L19.4615 18.1267C19.5151 18.2322 19.5109 18.3043 19.4602 18.3981L19.46 18.3985C19.431 18.4522 19.4055 18.4719 19.3894 18.4812C19.3721 18.4912 19.3352 18.5066 19.2597 18.5066H4.7328C4.63581 18.5066 4.59059 18.4826 4.53806 18.3898ZM12.0162 9.94257C11.6744 9.94257 11.3659 10.0657 11.1224 10.3091C10.8858 10.5457 10.7559 10.8448 10.7559 11.1829V13.6241C10.7559 13.9659 10.879 14.2744 11.1224 14.5179C11.2301 14.6256 11.3506 14.7097 11.481 14.7701C11.3429 14.831 11.2156 14.9181 11.1024 15.0313C10.859 15.2748 10.7359 15.5833 10.7359 15.9252C10.7359 16.267 10.859 16.5755 11.1024 16.819C11.3459 17.0624 11.6544 17.1855 11.9962 17.1855C12.338 17.1855 12.6466 17.0624 12.89 16.819C13.1335 16.5755 13.2566 16.267 13.2566 15.9252C13.2566 15.5833 13.1335 15.2748 12.89 15.0313C12.7802 14.9215 12.6571 14.8362 12.5237 14.7756C12.6576 14.7141 12.7805 14.6274 12.89 14.5179C13.1335 14.2744 13.2566 13.9659 13.2566 13.6241V11.1829C13.2566 10.8448 13.1267 10.5457 12.89 10.3091C12.6534 10.0725 12.3543 9.94257 12.0162 9.94257Z" fill="white" stroke="white"/>
</g>
</svg>
