<svg width="24" height="24" viewBox="0 0 24 24" fill="none" xmlns="http://www.w3.org/2000/svg">
<mask id="mask0_1150_9382" style="mask-type:alpha" maskUnits="userSpaceOnUse" x="0" y="0" width="24" height="24">
<rect width="24" height="24" fill="#D9D9D9"/>
</mask>
<g mask="url(#mask0_1150_9382)">
<path d="M8.8 7.15789V5.57895C8.8 5.14474 8.9568 4.77289 9.2704 4.46342C9.58347 4.15447 9.96 4 10.4 4H13.6C14.04 4 14.4168 4.15447 14.7304 4.46342C15.0435 4.77289 15.2 5.14474 15.2 5.57895V7.15789H18.4C18.84 7.15789 19.2168 7.31263 19.5304 7.62211C19.8435 7.93105 20 8.30263 20 8.73684V12.6842H14.4V11.1053H9.6V12.6842H4V8.73684C4 8.30263 4.1568 7.93105 4.4704 7.62211C4.78347 7.31263 5.16 7.15789 5.6 7.15789H8.8ZM10.4 7.15789H13.6V5.57895H10.4V7.15789ZM11.2 14.2632V12.6842H12.8V14.2632H11.2ZM4 14.2632H9.6V15.8421H14.4V14.2632H20V17.4211C20 17.8553 19.8435 18.2271 19.5304 18.5366C19.2168 18.8455 18.84 19 18.4 19H5.6C5.16 19 4.78347 18.8455 4.4704 18.5366C4.1568 18.2271 4 17.8553 4 17.4211V14.2632Z" fill="white"/>
</g>
</svg>
