<svg width="24" height="24" viewBox="0 0 24 24" fill="none" xmlns="http://www.w3.org/2000/svg">
<mask id="mask0_1150_9370" style="mask-type:alpha" maskUnits="userSpaceOnUse" x="0" y="0" width="24" height="24">
<rect width="24" height="24" fill="#D9D9D9"/>
</mask>
<g mask="url(#mask0_1150_9370)">
<path d="M7.40014 18.3941C7.3998 18.3943 7.39946 18.3946 7.39913 18.3948C7.27649 18.472 7.17805 18.4978 7.09827 18.4999C7.01902 18.5019 6.9241 18.4817 6.80623 18.4134C6.59056 18.2886 6.5 18.132 6.5 17.8809V6.09404C6.5 5.95313 6.52978 5.85671 6.57064 5.78676C6.61128 5.71721 6.67897 5.64624 6.79756 5.58051C6.91425 5.51622 7.00974 5.49708 7.09144 5.50035C7.17414 5.50366 7.27517 5.53129 7.39951 5.6097C7.39972 5.60983 7.39993 5.60997 7.40014 5.6101L16.63 11.481C16.8286 11.6242 16.9067 11.7854 16.9067 12.0021C16.9067 12.2196 16.8294 12.3648 16.6389 12.4884C16.6385 12.4886 16.6382 12.4888 16.6378 12.489L7.40014 18.3941Z" fill="white" stroke="white"/>
</g>
</svg>
