<svg width="24" height="24" viewBox="0 0 24 24" fill="none" xmlns="http://www.w3.org/2000/svg">
<mask id="mask0_1150_9374" style="mask-type:alpha" maskUnits="userSpaceOnUse" x="0" y="0" width="24" height="24">
<rect width="24" height="24" fill="#D9D9D9"/>
</mask>
<g mask="url(#mask0_1150_9374)">
<path d="M6.25703 7.15377L6.2572 7.15361C6.74578 6.71656 7.31481 6.5 7.98886 6.5H16.0039C16.6779 6.5 17.2473 6.71652 17.7364 7.15361C18.2303 7.59541 18.527 8.14014 18.6332 8.80679L19.4751 14.8852L19.4751 14.8852L19.4761 14.8918C19.5527 15.3953 19.4449 15.8061 19.1655 16.1634C18.8981 16.5047 18.5416 16.68 18.0385 16.68C17.8413 16.68 17.6545 16.644 17.4747 16.572L17.4743 16.5718C17.2988 16.5017 17.13 16.3949 16.9676 16.2446L15.1244 14.4014L14.978 14.2549H14.7709H9.22195H9.01484L8.8684 14.4014L7.01876 16.251C6.87238 16.3974 6.71318 16.5024 6.53984 16.5718C6.36229 16.6428 6.1686 16.68 5.95426 16.68C5.46885 16.68 5.11757 16.5077 4.84784 16.1634C4.56605 15.8031 4.4525 15.3883 4.51798 14.8831L5.35963 8.80681C5.46582 8.14029 5.76264 7.5956 6.25703 7.15377ZM16.9636 12.5098L16.9648 12.5085C17.2137 12.2587 17.3466 11.944 17.3466 11.59C17.3466 11.2361 17.2137 10.9213 16.9648 10.6715L16.9636 10.6703C16.7137 10.4213 16.399 10.2885 16.045 10.2885C15.691 10.2885 15.3762 10.4214 15.1267 10.6709C14.8771 10.9206 14.7435 11.2355 14.7435 11.59C14.7435 11.9445 14.8771 12.2595 15.1267 12.5091C15.3762 12.7586 15.691 12.8915 16.045 12.8915C16.399 12.8915 16.7137 12.7587 16.9636 12.5098ZM15.3412 8.24641L15.34 8.24519C15.0902 7.99623 14.7754 7.86342 14.4215 7.86342C14.0675 7.86342 13.7527 7.99629 13.5032 8.2458C13.2535 8.49549 13.12 8.81042 13.12 9.16493C13.12 9.51915 13.2533 9.83388 13.5031 10.0831C13.7524 10.333 14.0672 10.4664 14.4215 10.4664C14.776 10.4664 15.0909 10.3329 15.3406 10.0832C15.5901 9.83373 15.723 9.51893 15.723 9.16493C15.723 8.81098 15.5902 8.49624 15.3412 8.24641ZM10.2563 11.775V11.4529H10.5989C10.887 11.4529 11.154 11.3516 11.3635 11.1421C11.573 10.9325 11.6743 10.6656 11.6743 10.3775C11.6743 10.0894 11.573 9.82239 11.3635 9.61289C11.154 9.40338 10.887 9.30203 10.5989 9.30203H10.2563V8.95942C10.2563 8.67132 10.1549 8.40434 9.94543 8.19483C9.73592 7.98533 9.46894 7.88397 9.18085 7.88397C8.89304 7.88397 8.62902 7.98468 8.41687 8.18388L8.41602 8.18469C8.19643 8.39185 8.08485 8.6619 8.08485 8.95942V9.30203H7.74224C7.45415 9.30203 7.18716 9.40338 6.97766 9.61289C6.76815 9.82239 6.6668 10.0894 6.6668 10.3775C6.6668 10.6656 6.76815 10.9325 6.97766 11.1421C7.18716 11.3516 7.45415 11.4529 7.74224 11.4529H8.08485V11.775C8.08485 12.0719 8.19556 12.3394 8.40558 12.5494C8.61565 12.7595 8.88322 12.871 9.18085 12.871C9.47895 12.871 9.74909 12.7587 9.95598 12.5385C10.1557 12.3267 10.2563 12.0626 10.2563 11.775Z" fill="white" stroke="white"/>
</g>
</svg>
