<svg width="24" height="24" viewBox="0 0 24 24" fill="none" xmlns="http://www.w3.org/2000/svg">
<mask id="mask0_1150_9400" style="mask-type:alpha" maskUnits="userSpaceOnUse" x="0" y="0" width="24" height="24">
<rect width="24" height="24" fill="#D9D9D9"/>
</mask>
<g mask="url(#mask0_1150_9400)">
<path d="M14.2 11.85L17.4 10.125L14.2 8.4L11 10.125L14.2 11.85ZM14.2 14.1375L16.4 12.9375V11.3625L14.2 12.5625L12 11.3625V12.9375L14.2 14.1375ZM12.8 18C12.8 16.8625 12.5699 15.7938 12.1096 14.7938C11.6499 13.7938 11.02 12.9188 10.22 12.1688C9.42 11.4188 8.48667 10.8282 7.42 10.3972C6.35333 9.96575 5.21333 9.75 4 9.75V7.5C4 7.0875 4.1568 6.7345 4.4704 6.441C4.78347 6.147 5.16 6 5.6 6H18.4C18.84 6 19.2168 6.147 19.5304 6.441C19.8435 6.7345 20 7.0875 20 7.5V16.5C20 16.9125 19.8435 17.2658 19.5304 17.5598C19.2168 17.8533 18.84 18 18.4 18H12.8ZM9.6 18C9.6 16.5375 9.0568 15.2967 7.9704 14.2777C6.88347 13.2592 5.56 12.75 4 12.75V11.25C5 11.25 5.9368 11.428 6.8104 11.784C7.68347 12.1405 8.44347 12.6218 9.0904 13.2278C9.7368 13.8343 10.2501 14.547 10.6304 15.366C11.0101 16.1845 11.2 17.0625 11.2 18H9.6ZM6.4 18C6.4 17.375 6.16667 16.8437 5.7 16.4062C5.23333 15.9688 4.66667 15.75 4 15.75V14.25C5.10667 14.25 6.04987 14.6155 6.8296 15.3465C7.60987 16.078 8 16.9625 8 18H6.4Z" fill="white"/>
</g>
</svg>
