<svg width="24" height="24" viewBox="0 0 24 24" fill="none" xmlns="http://www.w3.org/2000/svg">
<mask id="mask0_762_5912" style="mask-type:alpha" maskUnits="userSpaceOnUse" x="0" y="0" width="24" height="24">
<rect width="24" height="24" fill="#D9D9D9"/>
</mask>
<g mask="url(#mask0_762_5912)">
<path d="M11.35 14.25L8.77498 11.65C8.47498 11.35 8.40398 11.0123 8.56198 10.637C8.72065 10.2623 9.00832 10.075 9.42498 10.075H14.575C14.9917 10.075 15.2793 10.2623 15.438 10.637C15.596 11.0123 15.5333 11.35 15.25 11.65L12.65 14.25C12.55 14.3333 12.446 14.4 12.338 14.45C12.2293 14.5 12.1167 14.525 12 14.525C11.8833 14.525 11.771 14.5 11.663 14.45C11.5543 14.4 11.45 14.3333 11.35 14.25Z" fill="white"/>
</g>
</svg>
