<svg width="48" height="48" viewBox="0 0 48 48" fill="none" xmlns="http://www.w3.org/2000/svg">
<mask id="mask0_780_5701" style="mask-type:alpha" maskUnits="userSpaceOnUse" x="12" y="12" width="24" height="24">
<rect x="12" y="12" width="24" height="24" fill="#D9D9D9"/>
</mask>
<g mask="url(#mask0_780_5701)">
<path d="M17 31C16.7167 31 16.479 30.904 16.287 30.712C16.0957 30.5207 16 30.2833 16 30C16 29.7167 16.0957 29.4793 16.287 29.288C16.479 29.096 16.7167 29 17 29H18V22C18 20.6167 18.4167 19.3873 19.25 18.312C20.0833 17.2373 21.1667 16.5333 22.5 16.2V15.5C22.5 15.0833 22.646 14.7293 22.938 14.438C23.2293 14.146 23.5833 14 24 14C24.4167 14 24.7707 14.146 25.062 14.438C25.354 14.7293 25.5 15.0833 25.5 15.5V16.2C26.8333 16.5333 27.9167 17.2373 28.75 18.312C29.5833 19.3873 30 20.6167 30 22V29H31C31.2833 29 31.5207 29.096 31.712 29.288C31.904 29.4793 32 29.7167 32 30C32 30.2833 31.904 30.5207 31.712 30.712C31.5207 30.904 31.2833 31 31 31H17ZM24 34C23.45 34 22.9793 33.8043 22.588 33.413C22.196 33.021 22 32.55 22 32H26C26 32.55 25.8043 33.021 25.413 33.413C25.021 33.8043 24.55 34 24 34Z" fill="white"/>
</g>
</svg>
