<svg width="24" height="24" viewBox="0 0 24 24" fill="none" xmlns="http://www.w3.org/2000/svg">
<mask id="mask0_1150_9406" style="mask-type:alpha" maskUnits="userSpaceOnUse" x="0" y="0" width="24" height="24">
<rect width="24" height="24" fill="#D9D9D9"/>
</mask>
<g mask="url(#mask0_1150_9406)">
<path d="M15.5 16.9L16.9 15.5C17 15.4 17.05 15.2833 17.05 15.15C17.05 15.0167 17 14.9 16.9 14.8L13.5 11.375C13.5667 11.1917 13.6167 11.0083 13.65 10.825C13.6833 10.6417 13.7 10.4333 13.7 10.2C13.7 9.25 13.3627 8.43733 12.688 7.762C12.0127 7.08733 11.2 6.75 10.25 6.75C9.96667 6.75 9.68333 6.78733 9.4 6.862C9.11667 6.93733 8.84167 7.04167 8.575 7.175L10.925 9.525L9.525 10.925L7.175 8.575C7.04167 8.84167 6.93767 9.11667 6.863 9.4C6.78767 9.68333 6.75 9.96667 6.75 10.25C6.75 11.2 7.08767 12.0127 7.763 12.688C8.43767 13.3627 9.25 13.7 10.2 13.7C10.4167 13.7 10.6207 13.6833 10.812 13.65C11.004 13.6167 11.1917 13.5667 11.375 13.5L14.8 16.9C14.9 17 15.0167 17.05 15.15 17.05C15.2833 17.05 15.4 17 15.5 16.9ZM12 22C10.6167 22 9.31667 21.7373 8.1 21.212C6.88333 20.6873 5.825 19.975 4.925 19.075C4.025 18.175 3.31267 17.1167 2.788 15.9C2.26267 14.6833 2 13.3833 2 12C2 10.6167 2.26267 9.31667 2.788 8.1C3.31267 6.88333 4.025 5.825 4.925 4.925C5.825 4.025 6.88333 3.31233 8.1 2.787C9.31667 2.26233 10.6167 2 12 2C13.3833 2 14.6833 2.26233 15.9 2.787C17.1167 3.31233 18.175 4.025 19.075 4.925C19.975 5.825 20.6873 6.88333 21.212 8.1C21.7373 9.31667 22 10.6167 22 12C22 13.3833 21.7373 14.6833 21.212 15.9C20.6873 17.1167 19.975 18.175 19.075 19.075C18.175 19.975 17.1167 20.6873 15.9 21.212C14.6833 21.7373 13.3833 22 12 22Z" fill="white"/>
</g>
</svg>
