<svg width="30" height="30" viewBox="0 0 30 30" fill="none" xmlns="http://www.w3.org/2000/svg">
<mask id="mask0_1039_8784" style="mask-type:alpha" maskUnits="userSpaceOnUse" x="0" y="0" width="30" height="30">
<rect width="30" height="30" fill="#D9D9D9"/>
</mask>
<g mask="url(#mask0_1039_8784)">
<path d="M23.5915 25L18.5681 20.0235H9.97653L6.22066 23.7793V7.34742H8.56808L14.6714 13.4507H12.0423L5 6.40845L6.31455 5.0939L24.9061 23.6854L23.5915 25ZM23.7793 19.8826L17.3474 13.4507H21.2441V11.5728H15.4695L14.5305 10.6338H21.2441V8.75587H13.7324V9.83568L8.89671 5H23.1221C23.6385 5 24.0808 5.18372 24.4488 5.55117C24.8163 5.91925 25 6.3615 25 6.87793V18.1455C25 18.5524 24.8867 18.9083 24.6601 19.2131C24.4329 19.5186 24.1393 19.7418 23.7793 19.8826ZM10.9155 16.2676C11.1815 16.2676 11.4047 16.1775 11.585 15.9972C11.7646 15.8175 11.8545 15.5947 11.8545 15.3286C11.8545 15.0626 11.7646 14.8394 11.585 14.6592C11.4047 14.4795 11.1815 14.3897 10.9155 14.3897C10.6495 14.3897 10.4263 14.4795 10.246 14.6592C10.0664 14.8394 9.97653 15.0626 9.97653 15.3286C9.97653 15.5947 10.0664 15.8175 10.246 15.9972C10.4263 16.1775 10.6495 16.2676 10.9155 16.2676ZM10.9155 13.4507C11.1815 13.4507 11.4047 13.3606 11.585 13.1803C11.7646 13.0006 11.8545 12.7778 11.8545 12.5117C11.8545 12.2457 11.7646 12.0225 11.585 11.8423C11.4047 11.6626 11.1815 11.5728 10.9155 11.5728C10.6495 11.5728 10.4263 11.6626 10.246 11.8423C10.0664 12.0225 9.97653 12.2457 9.97653 12.5117C9.97653 12.7778 10.0664 13.0006 10.246 13.1803C10.4263 13.3606 10.6495 13.4507 10.9155 13.4507Z" fill="white"/>
</g>
</svg>
