<svg width="24" height="24" viewBox="0 0 24 24" fill="none" xmlns="http://www.w3.org/2000/svg">
<mask id="mask0_1150_9415" style="mask-type:alpha" maskUnits="userSpaceOnUse" x="0" y="0" width="24" height="24">
<rect width="24" height="24" fill="#D9D9D9"/>
</mask>
<g mask="url(#mask0_1150_9415)">
<path d="M3 21C2.45 21 1.97933 20.8043 1.588 20.413C1.196 20.021 1 19.55 1 19V6H3V19H20V21H3ZM7 17C6.45 17 5.97933 16.8043 5.588 16.413C5.196 16.021 5 15.55 5 15V4C5 3.45 5.196 2.979 5.588 2.587C5.97933 2.19567 6.45 2 7 2H12L14 4H21C21.55 4 22.021 4.196 22.413 4.588C22.8043 4.97933 23 5.45 23 6V15C23 15.55 22.8043 16.021 22.413 16.413C22.021 16.8043 21.55 17 21 17H7Z" fill="white"/>
</g>
</svg>
