<svg width="24" height="24" viewBox="0 0 24 24" fill="none" xmlns="http://www.w3.org/2000/svg">
<mask id="mask0_762_5914" style="mask-type:alpha" maskUnits="userSpaceOnUse" x="0" y="0" width="24" height="24">
<rect width="24" height="24" fill="#D9D9D9"/>
</mask>
<g mask="url(#mask0_762_5914)">
<path d="M12 20.25C11.4667 20.25 11.0084 20.0583 10.625 19.675C10.2417 19.2917 10.05 18.8333 10.05 18.3C10.05 17.75 10.2417 17.2877 10.625 16.913C11.0084 16.5377 11.4667 16.35 12 16.35C12.55 16.35 13.0127 16.5377 13.388 16.913C13.7627 17.2877 13.95 17.75 13.95 18.3C13.95 18.8333 13.7627 19.2917 13.388 19.675C13.0127 20.0583 12.55 20.25 12 20.25ZM12 13.95C11.4667 13.95 11.0084 13.7583 10.625 13.375C10.2417 12.9917 10.05 12.5333 10.05 12C10.05 11.45 10.2417 10.9873 10.625 10.612C11.0084 10.2373 11.4667 10.05 12 10.05C12.55 10.05 13.0127 10.2373 13.388 10.612C13.7627 10.9873 13.95 11.45 13.95 12C13.95 12.5333 13.7627 12.9917 13.388 13.375C13.0127 13.7583 12.55 13.95 12 13.95ZM12 7.65C11.4667 7.65 11.0084 7.45833 10.625 7.075C10.2417 6.69167 10.05 6.23333 10.05 5.7C10.05 5.15 10.2417 4.68733 10.625 4.312C11.0084 3.93733 11.4667 3.75 12 3.75C12.55 3.75 13.0127 3.93733 13.388 4.312C13.7627 4.68733 13.95 5.15 13.95 5.7C13.95 6.23333 13.7627 6.69167 13.388 7.075C13.0127 7.45833 12.55 7.65 12 7.65Z" fill="white"/>
</g>
</svg>
