<svg width="30" height="30" viewBox="0 0 30 30" fill="none" xmlns="http://www.w3.org/2000/svg">
<mask id="mask0_971_8653" style="mask-type:alpha" maskUnits="userSpaceOnUse" x="0" y="0" width="30" height="30">
<rect width="30" height="30" fill="#D9D9D9"/>
</mask>
<g mask="url(#mask0_971_8653)">
<path d="M7.53076 23.6251C7.21826 23.6251 6.94743 23.5105 6.71826 23.2814C6.4891 23.0522 6.37451 22.7814 6.37451 22.4689V18.6251C6.37451 18.3126 6.4891 18.0418 6.71826 17.8126C6.94743 17.5835 7.22868 17.4689 7.56201 17.4689C7.87451 17.4689 8.14535 17.5835 8.37451 17.8126C8.60368 18.0418 8.71826 18.3126 8.71826 18.6251V21.2814H11.3745C11.687 21.2814 11.9578 21.396 12.187 21.6251C12.4162 21.8543 12.5308 22.1251 12.5308 22.4376C12.5308 22.771 12.4162 23.0522 12.187 23.2814C11.9578 23.5105 11.687 23.6251 11.3745 23.6251H7.53076ZM7.56201 12.5314C7.22868 12.5314 6.94743 12.4168 6.71826 12.1876C6.4891 11.9585 6.37451 11.6772 6.37451 11.3439V7.53137C6.37451 7.19804 6.4891 6.92179 6.71826 6.70262C6.94743 6.48429 7.21826 6.37512 7.53076 6.37512H11.3745C11.687 6.37512 11.9578 6.48971 12.187 6.71887C12.4162 6.94804 12.5308 7.21887 12.5308 7.53137C12.5308 7.86471 12.4162 8.14596 12.187 8.37512C11.9578 8.60429 11.687 8.71887 11.3745 8.71887H8.71826V11.3439C8.71826 11.6772 8.60368 11.9585 8.37451 12.1876C8.14535 12.4168 7.87451 12.5314 7.56201 12.5314ZM18.6558 23.6251C18.3224 23.6251 18.0412 23.5105 17.812 23.2814C17.5828 23.0522 17.4683 22.771 17.4683 22.4376C17.4683 22.1251 17.5828 21.8543 17.812 21.6251C18.0412 21.396 18.3224 21.2814 18.6558 21.2814H21.2808V18.6251C21.2808 18.3126 21.3953 18.0418 21.6245 17.8126C21.8537 17.5835 22.1349 17.4689 22.4683 17.4689C22.7808 17.4689 23.0516 17.5835 23.2808 17.8126C23.5099 18.0418 23.6245 18.3126 23.6245 18.6251V22.4689C23.6245 22.7814 23.5153 23.0522 23.297 23.2814C23.0778 23.5105 22.8016 23.6251 22.4683 23.6251H18.6558ZM22.4683 12.5314C22.1349 12.5314 21.8537 12.4168 21.6245 12.1876C21.3953 11.9585 21.2808 11.6772 21.2808 11.3439V8.71887H18.6558C18.3224 8.71887 18.0412 8.60429 17.812 8.37512C17.5828 8.14596 17.4683 7.86471 17.4683 7.53137C17.4683 7.21887 17.5828 6.94804 17.812 6.71887C18.0412 6.48971 18.3224 6.37512 18.6558 6.37512H22.4683C22.8016 6.37512 23.0778 6.48429 23.297 6.70262C23.5153 6.92179 23.6245 7.19804 23.6245 7.53137V11.3439C23.6245 11.6772 23.5099 11.9585 23.2808 12.1876C23.0516 12.4168 22.7808 12.5314 22.4683 12.5314Z" fill="white"/>
</g>
</svg>
