<svg width="30" height="30" viewBox="0 0 30 30" fill="none" xmlns="http://www.w3.org/2000/svg">
<mask id="mask0_999_8608" style="mask-type:alpha" maskUnits="userSpaceOnUse" x="0" y="0" width="30" height="30">
<rect width="30" height="30" fill="#D9D9D9"/>
</mask>
<g mask="url(#mask0_999_8608)">
<path d="M9.08654 18.2918C9.31731 18.2918 9.50962 18.2119 9.66346 18.0521C9.81731 17.893 9.89423 17.701 9.89423 17.4759V16.0691H12.2308V17.4759C12.2308 17.701 12.3123 17.893 12.4754 18.0521C12.6392 18.2119 12.8365 18.2918 13.0673 18.2918C13.2981 18.2918 13.4904 18.2119 13.6442 18.0521C13.7981 17.893 13.875 17.701 13.875 17.4759V12.496C13.875 12.2709 13.7981 12.0833 13.6442 11.9333C13.4904 11.7832 13.2981 11.7082 13.0673 11.7082C12.8365 11.7082 12.6392 11.7832 12.4754 11.9333C12.3123 12.0833 12.2308 12.2709 12.2308 12.496V14.4654H9.89423V12.496C9.89423 12.2709 9.81731 12.0833 9.66346 11.9333C9.50962 11.7832 9.31731 11.7082 9.08654 11.7082C8.85577 11.7082 8.65885 11.7832 8.49577 11.9333C8.33192 12.0833 8.25 12.2709 8.25 12.496V17.4759C8.25 17.701 8.33192 17.893 8.49577 18.0521C8.65885 18.2119 8.85577 18.2918 9.08654 18.2918ZM16.6731 18.2918H20.3942C20.7788 18.2918 21.1012 18.165 21.3612 17.9114C21.6204 17.6586 21.75 17.3446 21.75 16.9695V13.0305C21.75 12.6554 21.6204 12.3411 21.3612 12.0875C21.1012 11.8346 20.7788 11.7082 20.3942 11.7082H16.6731C16.5192 11.7082 16.3896 11.7596 16.2842 11.8624C16.1781 11.9659 16.125 12.0927 16.125 12.2428V17.7572C16.125 17.9073 16.1781 18.0337 16.2842 18.1365C16.3896 18.24 16.5192 18.2918 16.6731 18.2918ZM17.7692 16.6881V13.3119H20.1058V16.6881H17.7692ZM5.91346 23.75C5.31731 23.75 4.80769 23.5437 4.38462 23.131C3.96154 22.7184 3.75 22.2213 3.75 21.6399V8.36013C3.75 7.77867 3.96154 7.28162 4.38462 6.86897C4.80769 6.45632 5.31731 6.25 5.91346 6.25H24.0865C24.6827 6.25 25.1923 6.45632 25.6154 6.86897C26.0385 7.28162 26.25 7.77867 26.25 8.36013V21.6399C26.25 22.2213 26.0385 22.7184 25.6154 23.131C25.1923 23.5437 24.6827 23.75 24.0865 23.75H5.91346Z" fill="white"/>
</g>
</svg>
