<svg width="30" height="30" viewBox="0 0 30 30" fill="none" xmlns="http://www.w3.org/2000/svg">
<mask id="mask0_999_11421" style="mask-type:alpha" maskUnits="userSpaceOnUse" x="0" y="0" width="30" height="30">
<rect width="30" height="30" fill="#D9D9D9"/>
</mask>
<g mask="url(#mask0_999_11421)">
<path d="M6.07547 23C5.50356 23 5.01467 22.7886 4.6088 22.3658C4.20293 21.9429 4 21.4336 4 20.8378V9.16216C4 8.56637 4.20293 8.05706 4.6088 7.63423C5.01467 7.21141 5.50356 7 6.07547 7H23.9245C24.4964 7 24.9853 7.21141 25.3912 7.63423C25.7971 8.05706 26 8.56637 26 9.16216V20.8378C26 21.4336 25.7971 21.9429 25.3912 22.3658C24.9853 22.7886 24.4964 23 23.9245 23H6.07547ZM13.9623 12.6216H16.0377V10.4595H13.9623V12.6216ZM13.9623 16.0811H16.0377V13.9189H13.9623V16.0811ZM10.6415 12.6216H12.717V10.4595H10.6415V12.6216ZM10.6415 16.0811H12.717V13.9189H10.6415V16.0811ZM7.32075 16.0811H9.39623V13.9189H7.32075V16.0811ZM7.32075 12.6216H9.39623V10.4595H7.32075V12.6216ZM11.6377 19.5405H18.3623C18.639 19.5405 18.8788 19.4348 19.0818 19.2234C19.2847 19.012 19.3862 18.7526 19.3862 18.445C19.3862 18.1568 19.2847 17.9069 19.0818 17.6955C18.8788 17.4841 18.639 17.3784 18.3623 17.3784H11.6377C11.3426 17.3784 11.0935 17.4841 10.8906 17.6955C10.6876 17.9069 10.5862 18.1568 10.5862 18.445C10.5862 18.7526 10.6876 19.012 10.8906 19.2234C11.0935 19.4348 11.3426 19.5405 11.6377 19.5405ZM17.283 16.0811H19.3585V13.9189H17.283V16.0811ZM17.283 12.6216H19.3585V10.4595H17.283V12.6216ZM20.6038 16.0811H22.6792V13.9189H20.6038V16.0811ZM20.6038 12.6216H22.6792V10.4595H20.6038V12.6216Z" fill="white"/>
</g>
</svg>
