<svg width="64" height="64" viewBox="0 0 64 64" fill="none" xmlns="http://www.w3.org/2000/svg">
<mask id="mask0_999_8330" style="mask-type:alpha" maskUnits="userSpaceOnUse" x="0" y="0" width="64" height="64">
<rect width="64" height="64" fill="#D9D9D9"/>
</mask>
<g mask="url(#mask0_999_8330)">
<path d="M21.2076 49.7776C20.2625 49.7776 19.4546 49.4257 18.7839 48.7219C18.1132 48.018 17.7778 47.1702 17.7778 46.1784V27.2707C17.7778 26.279 18.1132 25.4311 18.7839 24.7273C19.4546 24.0235 20.2625 23.6715 21.2076 23.6715H37.3963V19.9284C37.3963 18.3608 36.8707 17.0247 35.8195 15.9203C34.7671 14.8172 33.4939 14.2657 32.0001 14.2657C30.7806 14.2657 29.6983 14.6496 28.7532 15.4174C27.8081 16.1852 27.1679 17.161 26.8325 18.3448C26.6801 18.8246 26.4514 19.2086 26.1465 19.4965C25.8417 19.7844 25.4911 19.9284 25.0947 19.9284C24.5155 19.9284 24.0582 19.7281 23.7228 19.3276C23.3875 18.9283 23.2808 18.4727 23.4027 17.9608C23.8295 15.8813 24.8356 14.1454 26.4209 12.7531C28.0062 11.362 29.866 10.6665 32.0001 10.6665C34.439 10.6665 36.5195 11.57 38.2414 13.3769C39.9645 15.1852 40.8261 17.369 40.8261 19.9284V23.6715H42.7925C43.7376 23.6715 44.5455 24.0235 45.2162 24.7273C45.8869 25.4311 46.2223 26.279 46.2223 27.2707V46.1784C46.2223 47.1702 45.8869 48.018 45.2162 48.7219C44.5455 49.4257 43.7376 49.7776 42.7925 49.7776H21.2076ZM32.0001 40.4197C32.9756 40.4197 33.8067 40.0595 34.4933 39.339C35.1786 38.6198 35.5213 37.7483 35.5213 36.7246C35.5213 35.7008 35.1786 34.8287 34.4933 34.1082C33.8067 33.389 32.9756 33.0294 32.0001 33.0294C31.0245 33.0294 30.194 33.389 29.5087 34.1082C28.8221 34.8287 28.4788 35.7008 28.4788 36.7246C28.4788 37.7483 28.8221 38.6198 29.5087 39.339C30.194 40.0595 31.0245 40.4197 32.0001 40.4197Z" fill="white"/>
</g>
</svg>
