<svg width="64" height="64" viewBox="0 0 64 64" fill="none" xmlns="http://www.w3.org/2000/svg">
<mask id="mask0_999_8628" style="mask-type:alpha" maskUnits="userSpaceOnUse" x="0" y="0" width="64" height="64">
<rect width="64" height="64" fill="#D9D9D9"/>
</mask>
<g mask="url(#mask0_999_8628)">
<path d="M21.6276 51.2752C20.6498 51.2752 19.8131 50.9274 19.1174 50.2317C18.4205 49.5348 18.072 48.6974 18.072 47.7197V29.9419C18.072 28.9641 18.4205 28.1268 19.1174 27.4299C19.8131 26.7342 20.6498 26.3863 21.6276 26.3863H23.4054V22.8308C23.4054 20.3715 24.2723 18.2749 26.0062 16.541C27.739 14.8083 29.835 13.9419 32.2942 13.9419C34.7535 13.9419 36.8501 14.8083 38.584 16.541C40.3168 18.2749 41.1831 20.3715 41.1831 22.8308V26.3863H42.9609C43.9387 26.3863 44.776 26.7342 45.4729 27.4299C46.1686 28.1268 46.5165 28.9641 46.5165 29.9419V47.7197C46.5165 48.6974 46.1686 49.5348 45.4729 50.2317C44.776 50.9274 43.9387 51.2752 42.9609 51.2752H21.6276ZM26.9609 26.3863H37.6276V22.8308C37.6276 21.3493 37.1091 20.09 36.072 19.053C35.035 18.016 33.7757 17.4974 32.2942 17.4974C30.8128 17.4974 29.5535 18.016 28.5165 19.053C27.4794 20.09 26.9609 21.3493 26.9609 22.8308V26.3863ZM32.2942 42.3863C33.272 42.3863 34.1094 42.0385 34.8062 41.3428C35.5019 40.6459 35.8498 39.8086 35.8498 38.8308C35.8498 37.853 35.5019 37.0157 34.8062 36.3188C34.1094 35.6231 33.272 35.2752 32.2942 35.2752C31.3165 35.2752 30.4797 35.6231 29.784 36.3188C29.0871 37.0157 28.7387 37.853 28.7387 38.8308C28.7387 39.8086 29.0871 40.6459 29.784 41.3428C30.4797 42.0385 31.3165 42.3863 32.2942 42.3863Z" fill="white"/>
</g>
</svg>
