<svg width="48" height="48" viewBox="0 0 48 48" fill="none" xmlns="http://www.w3.org/2000/svg">
<mask id="mask0_780_5143" style="mask-type:alpha" maskUnits="userSpaceOnUse" x="12" y="12" width="24" height="24">
<rect x="12" y="12" width="24" height="24" fill="#D9D9D9"/>
</mask>
<g mask="url(#mask0_780_5143)">
<path d="M15.9751 33V30H19.0751L16.5251 21.65C16.0751 21.4 15.7044 21.0334 15.4131 20.55C15.1211 20.0667 14.9751 19.55 14.9751 19C14.9751 18.1667 15.2668 17.4584 15.8501 16.875C16.4334 16.2917 17.1418 16 17.9751 16C18.6251 16 19.2044 16.1874 19.7131 16.562C20.2211 16.9374 20.5751 17.4167 20.7751 18H23.9751V17C23.9751 16.7167 24.0711 16.479 24.2631 16.287C24.4544 16.0957 24.6918 16 24.9751 16C25.1251 16 25.2711 16.0334 25.4131 16.1C25.5544 16.1667 25.6751 16.2667 25.7751 16.4L27.4751 14.8C27.6251 14.65 27.8041 14.554 28.0121 14.512C28.2208 14.4707 28.4251 14.5 28.6251 14.6L32.5251 16.4C32.7251 16.5 32.8628 16.6457 32.9381 16.837C33.0128 17.029 33.0084 17.2167 32.9251 17.4C32.8251 17.6 32.6794 17.729 32.4881 17.787C32.2961 17.8457 32.1084 17.8334 31.9251 17.75L28.3251 16.1L25.9751 18.3V19.7L28.3251 21.85L31.9251 20.2C32.1084 20.1167 32.3001 20.1084 32.5001 20.175C32.7001 20.2417 32.8418 20.3667 32.9251 20.55C33.0251 20.75 33.0334 20.9417 32.9501 21.125C32.8668 21.3084 32.7251 21.45 32.5251 21.55L28.6251 23.4C28.4251 23.5 28.2208 23.529 28.0121 23.487C27.8041 23.4457 27.6251 23.35 27.4751 23.2L25.7751 21.6C25.6751 21.7 25.5544 21.7917 25.4131 21.875C25.2711 21.9584 25.1251 22 24.9751 22C24.6918 22 24.4544 21.904 24.2631 21.712C24.0711 21.5207 23.9751 21.2834 23.9751 21V20H20.7751C20.7251 20.1334 20.6711 20.2584 20.6131 20.375C20.5544 20.4917 20.4751 20.6167 20.3751 20.75L25.3751 30H28.9751V33H15.9751ZM17.9751 20C18.2584 20 18.4961 19.9044 18.6881 19.713C18.8794 19.521 18.9751 19.2834 18.9751 19C18.9751 18.7167 18.8794 18.479 18.6881 18.287C18.4961 18.0957 18.2584 18 17.9751 18C17.6918 18 17.4544 18.0957 17.2631 18.287C17.0711 18.479 16.9751 18.7167 16.9751 19C16.9751 19.2834 17.0711 19.521 17.2631 19.713C17.4544 19.9044 17.6918 20 17.9751 20ZM21.1251 30H23.0751L18.7751 22C18.7751 22 18.7584 22 18.7251 22C18.6918 22 18.6751 22 18.6751 22L21.1251 30Z" fill="white"/>
</g>
</svg>
