<svg width="48" height="48" viewBox="0 0 48 48" fill="none" xmlns="http://www.w3.org/2000/svg">
<mask id="mask0_780_5142" style="mask-type:alpha" maskUnits="userSpaceOnUse" x="12" y="12" width="24" height="24">
<rect x="12" y="12" width="24" height="24" fill="#D9D9D9"/>
</mask>
<g mask="url(#mask0_780_5142)">
<path d="M18.575 31.775C17.1083 31.775 15.854 31.2666 14.812 30.25C13.7707 29.2333 13.25 27.9916 13.25 26.525C13.25 25.2583 13.6377 24.129 14.413 23.137C15.1877 22.1456 16.1917 21.525 17.425 21.275C17.825 19.775 18.6333 18.5583 19.85 17.625C21.0667 16.6916 22.45 16.225 24 16.225C25.9 16.225 27.5083 16.8873 28.825 18.212C30.1417 19.5373 30.8 21.1416 30.8 23.025V23.1C31.9167 23.1833 32.8543 23.646 33.613 24.488C34.371 25.3293 34.75 26.3083 34.75 27.425C34.75 28.625 34.3293 29.65 33.488 30.5C32.646 31.35 31.6167 31.775 30.4 31.775H18.575Z" fill="white"/>
</g>
</svg>
