<svg width="30" height="30" viewBox="0 0 30 30" fill="none" xmlns="http://www.w3.org/2000/svg">
<mask id="mask0_999_11598" style="mask-type:alpha" maskUnits="userSpaceOnUse" x="0" y="0" width="30" height="30">
<rect width="30" height="30" fill="#D9D9D9"/>
</mask>
<g mask="url(#mask0_999_11598)">
<path d="M18.8192 24.519C18.4499 24.6744 18.1051 24.6356 17.7848 24.4023C17.4637 24.1691 17.3032 23.8387 17.3032 23.4111C17.3032 23.2167 17.3615 23.0418 17.4781 22.8863C17.5948 22.7308 17.7405 22.6239 17.9155 22.5656C19.3926 21.9631 20.5782 21.006 21.4723 19.6945C22.3664 18.3821 22.8134 16.9193 22.8134 15.3061C22.8134 13.6929 22.3664 12.2301 21.4723 10.9178C20.5782 9.60622 19.3926 8.65889 17.9155 8.0758C17.7405 7.99806 17.5948 7.87677 17.4781 7.71195C17.3615 7.54636 17.3032 7.36638 17.3032 7.17201C17.3032 6.76385 17.4637 6.44315 17.7848 6.20991C18.1051 5.97668 18.4499 5.9378 18.8192 6.09329C20.6851 6.87075 22.1817 8.08552 23.309 9.73761C24.4363 11.3897 25 13.2459 25 15.3061C25 17.3664 24.4363 19.2272 23.309 20.8886C22.1817 22.5508 20.6851 23.7609 18.8192 24.519ZM6.07872 18.6589C5.78717 18.6589 5.5345 18.552 5.3207 18.3382C5.1069 18.1244 5 17.8717 5 17.5802V13.0904C5 12.7794 5.1069 12.5217 5.3207 12.3172C5.5345 12.1135 5.78717 12.0117 6.07872 12.0117H9.51895L13.2799 8.25073C13.6297 7.90087 14.0235 7.81808 14.4612 8.00233C14.8982 8.18737 15.1166 8.52284 15.1166 9.00875V21.6327C15.1166 22.1186 14.8982 22.4536 14.4612 22.6379C14.0235 22.8229 13.6297 22.7502 13.2799 22.4198L9.51895 18.6589H6.07872ZM17.3032 19.8834V10.758C18.2362 11.1856 18.965 11.8076 19.4898 12.6239C20.0146 13.4402 20.277 14.344 20.277 15.3353C20.277 16.3071 20.0146 17.2012 19.4898 18.0175C18.965 18.8338 18.2362 19.4558 17.3032 19.8834Z" fill="white"/>
</g>
</svg>
