<svg width="30" height="30" viewBox="0 0 30 30" fill="none" xmlns="http://www.w3.org/2000/svg">
<mask id="mask0_972_8659" style="mask-type:alpha" maskUnits="userSpaceOnUse" x="0" y="0" width="30" height="30">
<rect width="30" height="30" fill="#D9D9D9"/>
</mask>
<g mask="url(#mask0_972_8659)">
<path d="M22.2164 23.7678L20.0339 21.8048C19.8149 21.9173 19.5958 22.0262 19.3768 22.1315C19.1578 22.2373 18.9309 22.3325 18.6962 22.4169C18.3833 22.5295 18.0939 22.4943 17.8279 22.3113C17.5619 22.1284 17.4289 21.8751 17.4289 21.5515C17.4289 21.3967 17.4799 21.2596 17.582 21.1403C17.6833 21.0204 17.8123 20.9323 17.9687 20.876C18.0939 20.8338 18.2153 20.7879 18.3329 20.7384C18.45 20.6894 18.5632 20.6368 18.6728 20.5805L15.5515 17.7731V20.1161C15.5515 20.496 15.3597 20.7598 14.9761 20.9072C14.5931 21.0553 14.2529 20.9956 13.9557 20.7282L10.8579 17.942H8.04172C7.77575 17.942 7.55296 17.8609 7.37335 17.6988C7.19312 17.5372 7.103 17.3369 7.103 17.0976V13.7203C7.103 13.4811 7.19312 13.2804 7.37335 13.1183C7.55296 12.9568 7.77575 12.876 8.04172 12.876H10.1069L6.25815 9.41425C6.08605 9.25945 6 9.06244 6 8.82322C6 8.58399 6.08605 8.38698 6.25815 8.23219C6.43025 8.0774 6.64928 8 6.91525 8C7.18123 8 7.40026 8.0774 7.57236 8.23219L23.5306 22.5858C23.7027 22.7405 23.7888 22.9376 23.7888 23.1768C23.7888 23.416 23.7027 23.613 23.5306 23.7678C23.3585 23.9226 23.1395 24 22.8735 24C22.6076 24 22.3885 23.9226 22.2164 23.7678ZM18.6962 8.35884C20.292 8.9358 21.575 9.85752 22.545 11.124C23.515 12.3905 24 13.8118 24 15.3879C24 16.1337 23.8867 16.8514 23.6602 17.5409C23.433 18.2304 23.1082 18.8707 22.6858 19.4617L21.3246 18.2375C21.5906 17.8012 21.7902 17.3439 21.9235 16.8654C22.0562 16.387 22.1226 15.8945 22.1226 15.3879C22.1226 14.1495 21.7433 13.0378 20.9848 12.0528C20.2257 11.0677 19.2203 10.35 17.9687 9.89974C17.7966 9.84345 17.6636 9.75198 17.5698 9.62533C17.4759 9.49868 17.4289 9.35796 17.4289 9.20317C17.4289 8.89358 17.5619 8.64732 17.8279 8.46438C18.0939 8.28144 18.3833 8.24626 18.6962 8.35884ZM19.5411 16.6332L17.4289 14.7335V11.9894C18.1643 12.299 18.7394 12.7634 19.1543 13.3826C19.5686 14.0018 19.7758 14.6772 19.7758 15.409C19.7758 15.6201 19.7563 15.8278 19.7175 16.0321C19.6781 16.2358 19.6193 16.4362 19.5411 16.6332ZM15.5515 13.0449L13.1108 10.8496L13.9557 10.0897C14.2529 9.82234 14.5931 9.76239 14.9761 9.90987C15.3597 10.0579 15.5515 10.3219 15.5515 10.7018V13.0449Z" fill="white"/>
</g>
</svg>
