<svg width="24" height="24" viewBox="0 0 24 24" fill="none" xmlns="http://www.w3.org/2000/svg">
<mask id="mask0_990_7943" style="mask-type:alpha" maskUnits="userSpaceOnUse" x="0" y="0" width="24" height="24">
<rect width="24" height="24" fill="#D9D9D9"/>
</mask>
<g mask="url(#mask0_990_7943)">
<path d="M9.13024 11.2981L9.13025 11.2981L9.12854 11.2964C9.03132 11.1992 8.99741 11.1229 8.98603 11.0688C8.97504 11.0165 8.976 10.9424 9.02261 10.8314C9.0704 10.7188 9.12373 10.6643 9.16959 10.6344C9.21634 10.604 9.29264 10.575 9.42498 10.575H14.575C14.7073 10.575 14.7836 10.604 14.8304 10.6344C14.8762 10.6643 14.9296 10.7188 14.9774 10.8315C15.0254 10.9458 15.0283 11.0244 15.0179 11.0805C15.0075 11.1362 14.9766 11.2099 14.8908 11.302L12.3139 13.8789C12.2502 13.9301 12.1883 13.9682 12.1285 13.9959C12.0839 14.0164 12.0425 14.025 12 14.025C11.9574 14.025 11.9166 14.0164 11.873 13.9962L11.872 13.9957C11.8119 13.9681 11.7502 13.9302 11.6869 13.8796L9.13024 11.2981Z" fill="#17141C" stroke="#17141C"/>
</g>
</svg>
