<svg width="48" height="48" viewBox="0 0 48 48" fill="none" xmlns="http://www.w3.org/2000/svg">
<path d="M18.5 29.5H18H17C16.8428 29.5 16.7343 29.5478 16.6406 29.6416C16.5478 29.7343 16.5 29.8423 16.5 30C16.5 30.1577 16.5478 30.2657 16.6406 30.3584C16.7343 30.4522 16.8428 30.5 17 30.5H31C31.1571 30.5 31.2649 30.4523 31.3578 30.3591L31.3591 30.3578C31.4523 30.2649 31.5 30.1571 31.5 30C31.5 29.8429 31.4523 29.7351 31.3591 29.6422L31.3578 29.6409C31.2649 29.5477 31.1571 29.5 31 29.5H30H29.5V29V22C29.5 20.7256 29.119 19.6045 28.3549 18.6184C27.591 17.6333 26.6046 16.9915 25.3787 16.6851L25 16.5904V16.2V15.5C25 15.2146 24.9058 14.9884 24.7089 14.792L24.708 14.7911C24.5116 14.5942 24.2854 14.5 24 14.5C23.7146 14.5 23.4884 14.5942 23.292 14.7911L23.2911 14.792C23.0942 14.9884 23 15.2146 23 15.5V16.2V16.5904L22.6213 16.6851C21.3955 16.9915 20.4091 17.6333 19.6452 18.6183L18.5 29.5ZM18.5 29.5V29M18.5 29.5V29M18.5 29V22M18.5 29V22M18.5 22C18.5 20.7256 18.881 19.6045 19.6451 18.6184L18.5 22ZM24 33.5C23.5835 33.5 23.2398 33.3577 22.9416 33.0594C22.7713 32.8892 22.6518 32.7044 22.5805 32.5H25.4197C25.3485 32.7045 25.2291 32.8894 25.0592 33.0597C24.7603 33.3578 24.4162 33.5 24 33.5Z" fill="#17141C" stroke="#17141C"/>
</svg>
