<svg width="24" height="24" viewBox="0 0 24 24" fill="none" xmlns="http://www.w3.org/2000/svg">
<mask id="mask0_990_7951" style="mask-type:alpha" maskUnits="userSpaceOnUse" x="0" y="0" width="24" height="24">
<rect width="24" height="24" fill="#D9D9D9"/>
</mask>
<g mask="url(#mask0_990_7951)">
<path d="M10.9786 13.0214C11.2699 13.3127 11.6018 13.45 12 13.45C12.4193 13.45 12.752 13.3098 13.0306 13.0254C13.3144 12.7349 13.45 12.4019 13.45 12C13.45 11.5771 13.3116 11.2433 13.0345 10.9656C12.7568 10.6885 12.4229 10.55 12 10.55C11.5981 10.55 11.265 10.6857 10.9746 10.9695L10.9786 13.0214ZM10.9786 13.0214C10.6873 12.7301 10.55 12.3983 10.55 12M10.9786 13.0214L10.55 12M10.55 12C10.55 11.5808 10.6902 11.2482 10.9745 10.9696L10.55 12ZM10.9745 17.2706L10.9749 17.2703C11.2654 16.9858 11.5984 16.85 12 16.85C12.4228 16.85 12.7567 16.9887 13.0345 17.2666L13.388 16.913L13.0345 17.2666C13.3115 17.5435 13.45 17.877 13.45 18.3C13.45 18.7019 13.3144 19.0349 13.0306 19.3254C12.752 19.6098 12.4193 19.75 12 19.75C11.6018 19.75 11.2699 19.6127 10.9786 19.3214C10.6873 19.0301 10.55 18.6983 10.55 18.3C10.55 17.8806 10.6902 17.5484 10.9745 17.2706ZM12 7.15C11.6018 7.15 11.2699 7.01274 10.9786 6.72145C10.6873 6.43015 10.55 6.09829 10.55 5.7C10.55 5.28069 10.6902 4.94801 10.9747 4.66939C11.2651 4.38564 11.5982 4.25 12 4.25C12.4229 4.25 12.7568 4.38848 13.0345 4.66557C13.3116 4.94328 13.45 5.27714 13.45 5.7C13.45 6.10189 13.3144 6.43494 13.0306 6.72535C12.752 7.00984 12.4193 7.15 12 7.15Z" fill="#17141C" stroke="#17141C"/>
</g>
</svg>
