<svg width="24" height="24" viewBox="0 0 24 24" fill="none" xmlns="http://www.w3.org/2000/svg">
<mask id="mask0_1149_9333" style="mask-type:alpha" maskUnits="userSpaceOnUse" x="0" y="0" width="24" height="24">
<rect width="24" height="24" fill="#D9D9D9"/>
</mask>
<g mask="url(#mask0_1149_9333)">
<path d="M6 20.9999C5.25 20.9999 4.50833 20.8166 3.775 20.4499C3.04167 20.0833 2.45 19.5999 2 18.9999C2.43333 18.9999 2.875 18.8293 3.325 18.4879C3.775 18.1459 4 17.6499 4 16.9999C4 16.1666 4.29167 15.4583 4.875 14.8749C5.45833 14.2916 6.16667 13.9999 7 13.9999C7.83333 13.9999 8.54167 14.2916 9.125 14.8749C9.70833 15.4583 10 16.1666 10 16.9999C10 18.0999 9.60833 19.0416 8.825 19.8249C8.04167 20.6083 7.1 20.9999 6 20.9999ZM11.75 14.9999L9 12.2499L17.95 3.29994C18.1333 3.1166 18.3627 3.0206 18.638 3.01194C18.9127 3.00394 19.15 3.09994 19.35 3.29994L20.7 4.64994C20.9 4.84994 21 5.08327 21 5.34994C21 5.6166 20.9 5.84994 20.7 6.04994L11.75 14.9999Z" fill="#1C1B1F"/>
</g>
</svg>
