<svg width="48" height="48" viewBox="0 0 48 48" fill="none" xmlns="http://www.w3.org/2000/svg">
<path d="M23.95 30C24.3 30 24.596 29.879 24.838 29.637C25.0793 29.3957 25.2 29.1 25.2 28.75C25.2 28.4 25.0793 28.1043 24.838 27.863C24.596 27.621 24.3 27.5 23.95 27.5C23.6 27.5 23.304 27.621 23.062 27.863C22.8207 28.1043 22.7 28.4 22.7 28.75C22.7 29.1 22.8207 29.3957 23.062 29.637C23.304 29.879 23.6 30 23.95 30ZM24.1 19.7C24.5667 19.7 24.9417 19.829 25.225 20.087C25.5083 20.3457 25.65 20.6833 25.65 21.1C25.65 21.3833 25.5543 21.6707 25.363 21.962C25.171 22.254 24.9 22.5583 24.55 22.875C24.05 23.3083 23.6833 23.725 23.45 24.125C23.2167 24.525 23.1 24.925 23.1 25.325C23.1 25.5583 23.1877 25.754 23.363 25.912C23.5377 26.0707 23.7417 26.15 23.975 26.15C24.2083 26.15 24.4167 26.0667 24.6 25.9C24.7833 25.7333 24.9 25.525 24.95 25.275C25 24.9917 25.1127 24.7293 25.288 24.488C25.4627 24.246 25.75 23.9333 26.15 23.55C26.6667 23.0667 27.0293 22.625 27.238 22.225C27.446 21.825 27.55 21.3833 27.55 20.9C27.55 20.05 27.2293 19.354 26.588 18.812C25.946 18.2707 25.1167 18 24.1 18C23.4 18 22.7793 18.1333 22.238 18.4C21.696 18.6667 21.275 19.075 20.975 19.625C20.8583 19.8417 20.8167 20.054 20.85 20.262C20.8833 20.4707 21 20.6417 21.2 20.775C21.4167 20.9083 21.6543 20.95 21.913 20.9C22.171 20.85 22.3833 20.7083 22.55 20.475C22.7333 20.225 22.9543 20.0333 23.213 19.9C23.471 19.7667 23.7667 19.7 24.1 19.7ZM24 34C22.6333 34 21.3417 33.7373 20.125 33.212C18.9083 32.6873 17.846 31.975 16.938 31.075C16.0293 30.175 15.3127 29.1167 14.788 27.9C14.2627 26.6833 14 25.3833 14 24C14 22.6167 14.2627 21.3167 14.788 20.1C15.3127 18.8833 16.0293 17.825 16.938 16.925C17.846 16.025 18.9083 15.3123 20.125 14.787C21.3417 14.2623 22.6333 14 24 14C25.4 14 26.7083 14.2623 27.925 14.787C29.1417 15.3123 30.2 16.025 31.1 16.925C32 17.825 32.7083 18.8833 33.225 20.1C33.7417 21.3167 34 22.6167 34 24C34 25.3833 33.7417 26.6833 33.225 27.9C32.7083 29.1167 32 30.175 31.1 31.075C30.2 31.975 29.1417 32.6873 27.925 33.212C26.7083 33.7373 25.4 34 24 34Z" fill="#17141C"/>
</svg>
