<svg width="24" height="24" viewBox="0 0 24 24" fill="none" xmlns="http://www.w3.org/2000/svg">
<mask id="mask0_990_7978" style="mask-type:alpha" maskUnits="userSpaceOnUse" x="0" y="0" width="24" height="24">
<rect width="24" height="24" fill="#D9D9D9"/>
</mask>
<g mask="url(#mask0_990_7978)">
<path d="M5.7001 6.075V5.575H5.2001H5.1751C5.03681 5.575 4.94027 5.53306 4.85365 5.44645C4.76704 5.35983 4.7251 5.26329 4.7251 5.125C4.7251 5.013 4.7602 4.922 4.85365 4.82855C4.94027 4.74194 5.03681 4.7 5.1751 4.7H9.0501H9.5501V4.2C9.5501 4.06171 9.59204 3.96517 9.67865 3.87855C9.7721 3.78511 9.8631 3.75 9.9751 3.75H14.0501C14.188 3.75 14.2758 3.79132 14.3515 3.87034C14.4323 3.95529 14.4751 4.05448 14.4751 4.2V4.7H14.9751H18.8751C18.9871 4.7 19.0781 4.7351 19.1715 4.82855C19.265 4.922 19.3001 5.013 19.3001 5.125C19.3001 5.26329 19.2582 5.35983 19.1715 5.44645C19.0781 5.53989 18.9871 5.575 18.8751 5.575H18.8251H18.3251V6.075V18.875C18.3251 19.2585 18.1948 19.5732 17.9215 19.8464C17.6483 20.1197 17.3336 20.25 16.9501 20.25H7.0751C6.69158 20.25 6.37693 20.1197 6.10365 19.8464C5.83037 19.5732 5.7001 19.2585 5.7001 18.875V6.075ZM8.6251 15.975C8.6251 16.363 8.77332 16.7053 9.04654 16.9786C9.3266 17.2586 9.68005 17.4 10.0751 17.4C10.4631 17.4 10.8054 17.2518 11.0787 16.9786C11.3519 16.7053 11.5001 16.363 11.5001 15.975V8.975C11.5001 8.57996 11.3587 8.2265 11.0787 7.94645C10.8054 7.67323 10.4631 7.525 10.0751 7.525C9.68005 7.525 9.3266 7.6664 9.04654 7.94645C8.76649 8.2265 8.6251 8.57996 8.6251 8.975V15.975ZM12.5251 15.975C12.5251 16.363 12.6733 16.7053 12.9465 16.9786C13.2266 17.2586 13.5801 17.4 13.9751 17.4C14.3631 17.4 14.7054 17.2518 14.9787 16.9786C15.2519 16.7053 15.4001 16.363 15.4001 15.975V8.975C15.4001 8.57996 15.2587 8.2265 14.9787 7.94645C14.7054 7.67323 14.3631 7.525 13.9751 7.525C13.5801 7.525 13.2266 7.6664 12.9465 7.94645C12.6665 8.2265 12.5251 8.57995 12.5251 8.975V15.975Z" fill="#17141C" stroke="#17141C"/>
</g>
</svg>
