<svg width="48" height="48" viewBox="0 0 48 48" fill="none" xmlns="http://www.w3.org/2000/svg">
<path d="M16.62 30.12C17.64 29.34 18.78 28.7248 20.04 28.2744C21.3 27.8248 22.62 27.6 24 27.6C25.38 27.6 26.7 27.8248 27.96 28.2744C29.22 28.7248 30.36 29.34 31.38 30.12C32.08 29.3 32.6252 28.37 33.0156 27.33C33.4052 26.29 33.6 25.18 33.6 24C33.6 21.34 32.6652 19.0748 30.7956 17.2044C28.9252 15.3348 26.66 14.4 24 14.4C21.34 14.4 19.0752 15.3348 17.2056 17.2044C15.3352 19.0748 14.4 21.34 14.4 24C14.4 25.18 14.5952 26.29 14.9856 27.33C15.3752 28.37 15.92 29.3 16.62 30.12ZM24 25.2C22.82 25.2 21.8248 24.7952 21.0144 23.9856C20.2048 23.1752 19.8 22.18 19.8 21C19.8 19.82 20.2048 18.8248 21.0144 18.0144C21.8248 17.2048 22.82 16.8 24 16.8C25.18 16.8 26.1752 17.2048 26.9856 18.0144C27.7952 18.8248 28.2 19.82 28.2 21C28.2 22.18 27.7952 23.1752 26.9856 23.9856C26.1752 24.7952 25.18 25.2 24 25.2ZM24 36C22.34 36 20.78 35.6848 19.32 35.0544C17.86 34.4248 16.59 33.57 15.51 32.49C14.43 31.41 13.5752 30.14 12.9456 28.68C12.3152 27.22 12 25.66 12 24C12 22.34 12.3152 20.78 12.9456 19.32C13.5752 17.86 14.43 16.59 15.51 15.51C16.59 14.43 17.86 13.5748 19.32 12.9444C20.78 12.3148 22.34 12 24 12C25.66 12 27.22 12.3148 28.68 12.9444C30.14 13.5748 31.41 14.43 32.49 15.51C33.57 16.59 34.4248 17.86 35.0544 19.32C35.6848 20.78 36 22.34 36 24C36 25.66 35.6848 27.22 35.0544 28.68C34.4248 30.14 33.57 31.41 32.49 32.49C31.41 33.57 30.14 34.4248 28.68 35.0544C27.22 35.6848 25.66 36 24 36Z" fill="#17141C"/>
</svg>
